<?xml version="1.0" standalone="no"?>
<!DOCTYPE svg PUBLIC "-//W3C//DTD SVG 1.1//EN" "http://www.w3.org/Graphics/SVG/1.1/DTD/svg11.dtd" >
<svg xmlns="http://www.w3.org/2000/svg" xmlns:xlink="http://www.w3.org/1999/xlink" version="1.1">
<metadata>
Created by FontForge 20160405 at Wed Sep 26 03:38:40 2018
 By www-data
\(c\)2016 Richard Miller
</metadata>
<defs>
<font id="TacticSansExd-Med" horiz-adv-x="864" >
  <font-face 
    font-family="TacticSansExd-Med"
    font-weight="400"
    font-stretch="expanded"
    units-per-em="1000"
    panose-1="0 0 6 5 0 0 0 0 0 0"
    ascent="814"
    descent="-186"
    x-height="528"
    cap-height="700"
    bbox="-896 -196 1450 872"
    underline-thickness="50"
    underline-position="-100"
    stemh="88"
    stemv="102"
    unicode-range="U+0020-FB02"
  />
<missing-glyph horiz-adv-x="720" 
d="M10 0v700h700v-700h-700zM259 350l-169 -169l107 -107l169 169l169 -169l107 107l-169 169l169 169l-107 107l-169 -169l-169 169l-107 -107z" />
    <glyph glyph-name="ellipsis" unicode="&#x2e;&#x2e;&#x2e;" horiz-adv-x="968" 
d="M216 0h-152v144h152v-144zM560 0h-152v144h152v-144zM904 0h-152v144h152v-144z" />
    <glyph glyph-name="blackbox.liga" unicode="[&#x2b;]" horiz-adv-x="940" 
d="M120 0v700h700v-700h-700z" />
    <glyph glyph-name="checkbox.liga" unicode="[]" horiz-adv-x="940" 
d="M120 0v700h700v-700h-700zM750 633h-560v-566h560v566z" />
    <glyph glyph-name="checkround.liga" unicode="&#x28;&#x29;" horiz-adv-x="940" 
d="M726 95c-70 -70 -155 -105 -256 -105s-186 35 -255 105c-70 69 -105 154 -105 255s35 186 105 256c69 69 154 104 255 104s186 -35 256 -104c69 -70 104 -155 104 -256s-35 -186 -104 -255zM264 142c56 -57 125 -85 206 -85s150 28 206 85c56 56 84 125 84 208
s-28 152 -84 209c-56 56 -125 84 -206 84s-150 -28 -206 -84c-56 -57 -84 -126 -84 -209s28 -152 84 -208z" />
    <glyph glyph-name="checkstar.liga" unicode="&#x7b;&#x7d;" horiz-adv-x="940" 
d="M378 437l92 283l92 -283h297l-240 -174l91 -283l-240 175l-240 -175l91 283l-240 174h297zM522 383l-52 161l-53 -161h-169l138 -99l-53 -162l137 100l136 -100l-52 162l137 99h-169z" />
    <glyph glyph-name="blackround.liga" unicode="&#x28;&#x2b;&#x29;" horiz-adv-x="940" 
d="M726 95c-70 -70 -155 -105 -256 -105s-186 35 -255 105c-70 69 -105 154 -105 255s35 186 105 256c69 69 154 104 255 104s186 -35 256 -104c69 -70 104 -155 104 -256s-35 -186 -104 -255z" />
    <glyph glyph-name="filledstar.liga" unicode="&#x7b;&#x2b;&#x7d;" horiz-adv-x="940" 
d="M378 437l92 283l92 -283h297l-240 -174l91 -283l-240 175l-240 -175l91 283l-240 174h297z" />
    <glyph glyph-name="ff.liga" unicode="ff" horiz-adv-x="1064" 
d="M1048 608h-220c-51 0 -68 -17 -68 -68v-75h288v-97h-288v-368h-126v368h-344v-368h-126v368h-148v97h148v93c0 99 45 142 142 142h232v-92h-180c-51 0 -68 -17 -68 -68v-75h344v93c0 99 45 142 142 142h272v-92z" />
    <glyph glyph-name=".notdef" horiz-adv-x="720" 
d="M10 0v700h700v-700h-700zM259 350l-169 -169l107 -107l169 169l169 -169l107 107l-169 169l169 169l-107 107l-169 -169l-169 169l-107 -107z" />
    <glyph glyph-name="null" horiz-adv-x="0" 
 />
    <glyph glyph-name="nonmarkingreturn" horiz-adv-x="333" 
 />
    <glyph glyph-name="space" unicode=" " horiz-adv-x="300" 
 />
    <glyph glyph-name="exclam" unicode="!" horiz-adv-x="280" 
d="M92 204l-24 496h144l-24 -496h-96zM216 0h-152v128h152v-128z" />
    <glyph glyph-name="quotedbl" unicode="&#x22;" horiz-adv-x="440" 
d="M64 408v292h108v-292h-108zM268 408v292h108v-292h-108z" />
    <glyph glyph-name="numbersign" unicode="#" 
d="M812 467v-80h-159l-28 -154h145v-80h-159l-27 -153h-99l27 153h-216l-27 -153h-99l27 153h-145v80h159l28 154h-145v80h159l27 153h99l-27 -153h216l27 153h99l-27 -153h145zM310 233h216l28 154h-216z" />
    <glyph glyph-name="dollar" unicode="$" 
d="M267 428l393 -31c99 -8 142 -46 142 -142v-113c0 -97 -46 -142 -142 -142h-185v-100h-87v100h-184c-96 0 -142 45 -142 142v63h123v-37c0 -51 17 -68 68 -68h354c51 0 68 17 68 68v59c0 49 -16 64 -68 68l-393 31c-99 8 -142 46 -142 142v90c0 97 46 142 142 142h174v100
h87v-100h171c96 0 142 -45 142 -142v-49h-123v23c0 51 -17 68 -68 68h-330c-51 0 -68 -17 -68 -68v-36c0 -49 17 -64 68 -68z" />
    <glyph glyph-name="percent" unicode="%" horiz-adv-x="972" 
d="M318 306h-172c-69 0 -104 35 -104 104v106c0 72 33 104 104 104h172c71 0 104 -32 104 -104v-106c0 -69 -35 -104 -104 -104zM216 0h-86l626 620h86zM169 372h126c37 0 51 15 51 52v78c0 37 -14 52 -51 52h-126c-37 0 -51 -15 -51 -52v-78c0 -37 14 -52 51 -52zM826 0
h-172c-69 0 -104 35 -104 104v106c0 72 33 104 104 104h172c71 0 104 -32 104 -104v-106c0 -69 -35 -104 -104 -104zM677 66h126c37 0 51 15 51 52v78c0 37 -14 52 -51 52h-126c-37 0 -51 -15 -51 -52v-78c0 -37 14 -52 51 -52z" />
    <glyph glyph-name="ampersand" unicode="&#x26;" horiz-adv-x="943" 
d="M279 407h648v-87h-108v-178c0 -97 -46 -142 -142 -142h-481c-96 0 -142 45 -142 142v97c0 74 30 117 89 130c-39 19 -59 59 -59 120v69c0 97 46 142 142 142h421c96 0 142 -45 142 -142v-47h-123v26c0 51 -17 68 -68 68h-319c-51 0 -68 -17 -68 -68v-62
c0 -51 17 -68 68 -68zM696 163v157h-447c-51 0 -68 -17 -68 -68v-89c0 -51 17 -68 68 -68h379c51 0 68 17 68 68z" />
    <glyph glyph-name="quotesingle" unicode="'" horiz-adv-x="236" 
d="M64 408v292h108v-292h-108z" />
    <glyph glyph-name="parenleft" unicode="(" horiz-adv-x="496" 
d="M464 -100h-170c-153 0 -230 77 -230 230v440c0 153 77 230 230 230h170v-98h-151c-90 0 -135 -45 -135 -135v-434c0 -90 45 -135 135 -135h151v-98z" />
    <glyph glyph-name="parenright" unicode=")" horiz-adv-x="496" 
d="M32 800h170c153 0 230 -77 230 -230v-440c0 -153 -77 -230 -230 -230h-170v98h151c90 0 135 45 135 135v434c0 90 -45 135 -135 135h-151v98z" />
    <glyph glyph-name="asterisk" unicode="*" horiz-adv-x="458" 
d="M389 612l25 -76l-133 -35l87 -107l-64 -47l-75 117l-75 -117l-64 47l87 107l-134 35l25 76l129 -50l-8 138h80l-8 -138z" />
    <glyph glyph-name="plus" unicode="+" 
d="M489 402h307v-104h-307v-252h-114v252h-307v104h307v252h114v-252z" />
    <glyph glyph-name="comma" unicode="," horiz-adv-x="280" 
d="M145 -160h-81l51 160h-51v144h152v-67c0 -35 -7 -68 -20 -97z" />
    <glyph glyph-name="hyphen" unicode="-" horiz-adv-x="516" 
d="M48 298v104h420v-104h-420z" />
    <glyph glyph-name="period" unicode="." horiz-adv-x="280" 
d="M216 0h-152v144h152v-144z" />
    <glyph glyph-name="slash" unicode="/" horiz-adv-x="527" 
d="M6 -100l428 900h87l-428 -900h-87z" />
    <glyph glyph-name="zero" unicode="0" 
d="M612 0h-360c-128 0 -186 58 -186 186v328c0 128 58 186 186 186h360c128 0 186 -58 186 -186v-328c0 -128 -58 -186 -186 -186zM294 106h276c73 0 100 27 100 100v288c0 73 -27 100 -100 100h-276c-73 0 -100 -27 -100 -100v-288c0 -73 27 -100 100 -100z" />
    <glyph glyph-name="one" unicode="1" horiz-adv-x="804" 
d="M492 700v-598h274v-102h-728v102h326v486l-296 -24v106l364 30h60z" />
    <glyph glyph-name="two" unicode="2" 
d="M787 105v-105h-721v215c0 95 43 136 142 148l395 46c51 7 68 25 68 74v48c0 51 -17 68 -68 68h-332c-51 0 -68 -17 -68 -68v-34h-123v61c0 97 46 142 142 142h434c96 0 142 -45 142 -142v-97c0 -95 -43 -136 -142 -148l-395 -46c-52 -7 -68 -25 -68 -74v-88h594z" />
    <glyph glyph-name="three" unicode="3" 
d="M723 366c51 -16 77 -58 77 -127v-97c0 -97 -46 -142 -142 -142h-452c-96 0 -142 45 -142 142v85h123v-60c0 -51 17 -68 68 -68h350c51 0 68 17 68 68v82c0 51 -17 68 -68 68h-265v92h255c51 0 68 19 68 68v56c0 51 -17 68 -68 68h-330c-51 0 -68 -17 -68 -68v-52h-123v77
c0 97 46 142 142 142h432c96 0 142 -45 142 -142v-69c0 -65 -22 -106 -67 -123z" />
    <glyph glyph-name="four" unicode="4" horiz-adv-x="894" 
d="M676 260h180v-97h-180v-163h-126v163h-512v81l494 456h144v-440zM550 597l-365 -337h365v337z" />
    <glyph glyph-name="five" unicode="5" horiz-adv-x="834" 
d="M626 0h-556v105h503c51 0 68 19 68 68v83c0 51 -17 68 -68 68h-503v376h668v-105h-541v-168h429c96 0 142 -45 142 -142v-143c0 -97 -46 -142 -142 -142z" />
    <glyph glyph-name="six" unicode="6" 
d="M293 429h363c97 0 142 -43 142 -142v-145c0 -97 -46 -142 -142 -142h-448c-96 0 -142 45 -142 142v372c0 128 58 186 186 186h516v-105h-475c-73 0 -100 -27 -100 -100v-99c19 22 53 33 100 33zM671 169v92c0 51 -17 68 -68 68h-342c-51 0 -68 -17 -68 -68v-92
c0 -51 17 -68 68 -68h342c51 0 68 17 68 68z" />
    <glyph glyph-name="seven" unicode="7" horiz-adv-x="824" 
d="M38 590v110h748v-94l-296 -276c-26 -24 -43 -47 -51 -69c-8 -23 -12 -55 -12 -97v-164h-130v164c0 57 6 101 18 132c11 31 34 63 69 94l222 200h-568z" />
    <glyph glyph-name="eight" unicode="8" 
d="M723 366c51 -16 77 -58 77 -127v-97c0 -97 -46 -142 -142 -142h-452c-96 0 -142 45 -142 142v97c0 69 26 111 77 127c-45 17 -67 58 -67 123v69c0 97 46 142 142 142h432c96 0 142 -45 142 -142v-69c0 -65 -22 -106 -67 -123zM201 535v-60c0 -51 17 -68 68 -68h326
c51 0 68 17 68 68v60c0 51 -17 68 -68 68h-326c-51 0 -68 -17 -68 -68zM673 165v87c0 51 -17 68 -68 68h-346c-51 0 -68 -17 -68 -68v-87c0 -51 17 -68 68 -68h346c51 0 68 17 68 68z" />
    <glyph glyph-name="nine" unicode="9" 
d="M208 700h448c96 0 142 -45 142 -142v-372c0 -128 -58 -186 -186 -186h-516v105h475c73 0 100 27 100 100v92c-19 -22 -53 -33 -100 -33h-363c-97 0 -142 43 -142 142v152c0 97 46 142 142 142zM261 364h342c51 0 68 17 68 68v99c0 51 -17 68 -68 68h-342
c-51 0 -68 -17 -68 -68v-99c0 -51 17 -68 68 -68z" />
    <glyph glyph-name="colon" unicode=":" horiz-adv-x="280" 
d="M216 396h-152v132h152v-132zM216 0h-152v132h152v-132z" />
    <glyph glyph-name="semicolon" unicode=";" horiz-adv-x="280" 
d="M216 396h-152v132h152v-132zM145 -160h-81l51 160h-51v132h152v-55c0 -36 -7 -68 -20 -97z" />
    <glyph glyph-name="less" unicode="&#x3c;" 
d="M68 402l728 248v-111l-584 -188l584 -189v-112l-728 248v104z" />
    <glyph glyph-name="equal" unicode="=" 
d="M68 426v100h728v-100h-728zM68 174v100h728v-100h-728z" />
    <glyph glyph-name="greater" unicode="&#x3e;" 
d="M68 538v112l728 -248v-104l-728 -248v111l584 189z" />
    <glyph glyph-name="question" unicode="?" horiz-adv-x="797" 
d="M427 192h-120v75c0 84 31 120 120 137l131 21c48 9 68 29 68 74v34c0 48 -18 66 -67 66h-326c-49 0 -66 -18 -66 -66v-41h-123v66c0 97 46 142 142 142h425c96 0 142 -45 142 -142v-67c0 -88 -42 -133 -138 -152l-129 -21c-44 -8 -59 -27 -59 -72v-54zM442 0h-151v116
h151v-116z" />
    <glyph glyph-name="at" unicode="@" horiz-adv-x="1006" 
d="M241 700h524c128 0 186 -58 186 -186v-222c0 -87 -37 -122 -122 -122h-91c-48 0 -78 16 -91 49l-12 -8c-26 -19 -48 -31 -67 -36c-19 -6 -46 -9 -80 -9h-156c-80 0 -112 40 -97 121l23 131c15 84 53 116 132 116h154c67 0 97 -10 134 -47l3 -3l16 42h78l-42 -241
c-5 -33 4 -47 35 -47h44c47 0 60 12 60 59v212c0 91 -32 123 -123 123h-493c-91 0 -123 -32 -123 -123v-318c0 -91 32 -123 123 -123h631v-68h-646c-128 0 -186 58 -186 186v328c0 128 58 186 186 186zM613 263l25 17l25 142l-19 16c-18 15 -46 23 -85 23h-149
c-41 0 -54 -13 -61 -56l-19 -108c-9 -44 0 -58 44 -58h151c35 0 65 8 88 24z" />
    <glyph glyph-name="A" unicode="A" horiz-adv-x="923" 
d="M925 0h-148l-83 156h-468l-83 -156h-141l390 700h144zM460 597l-180 -340h361z" />
    <glyph glyph-name="B" unicode="B" horiz-adv-x="885" 
d="M754 367c55 -14 83 -57 83 -128v-97c0 -97 -46 -142 -142 -142h-631v700h611c96 0 142 -45 142 -142v-69c0 -63 -21 -103 -63 -122zM618 600h-423v-192h423c51 0 68 17 68 68v56c0 51 -17 68 -68 68zM706 168v83c0 51 -17 68 -68 68h-443v-219h443c51 0 68 17 68 68z" />
    <glyph glyph-name="C" unicode="C" horiz-adv-x="896" 
d="M659 0h-418c-128 0 -186 58 -186 186v328c0 128 58 186 186 186h418c128 0 186 -58 186 -186v-74h-128v52c0 73 -27 100 -100 100h-330c-73 0 -100 -27 -100 -100v-284c0 -73 27 -100 100 -100h330c73 0 100 27 100 100v61h128v-83c0 -128 -58 -186 -186 -186z" />
    <glyph glyph-name="D" unicode="D" horiz-adv-x="923" 
d="M638 0h-574v700h574c149 0 230 -79 230 -230v-240c0 -151 -81 -230 -230 -230zM196 590v-480h412c85 0 128 43 128 128v224c0 85 -43 128 -128 128h-412z" />
    <glyph glyph-name="E" unicode="E" horiz-adv-x="801" 
d="M195 314v-207h574v-107h-705v700h695v-107h-564v-181h524v-98h-524z" />
    <glyph glyph-name="F" unicode="F" horiz-adv-x="765" 
d="M749 700v-112h-554v-199h514v-106h-514v-283h-131v700h685z" />
    <glyph glyph-name="G" unicode="G" horiz-adv-x="922" 
d="M55 186v328c0 128 58 186 186 186h440c128 0 186 -58 186 -186v-42h-130v21c0 73 -27 100 -100 100h-352c-73 0 -100 -27 -100 -100v-289c0 -73 27 -100 100 -100h356c73 0 100 27 100 100v72h-263v99h389v-189c0 -128 -58 -186 -186 -186h-440c-128 0 -186 58 -186 186z
" />
    <glyph glyph-name="H" unicode="H" horiz-adv-x="912" 
d="M716 423v277h132v-700h-132v309h-520v-309h-132v700h132v-277h520z" />
    <glyph glyph-name="I" unicode="I" horiz-adv-x="272" 
d="M69 0v700h134v-700h-134z" />
    <glyph glyph-name="J" unicode="J" horiz-adv-x="820" 
d="M578 0h-360c-128 0 -186 58 -186 186v82h128v-60c0 -73 27 -100 100 -100h272c73 0 100 27 100 100v492h132v-514c0 -128 -58 -186 -186 -186z" />
    <glyph glyph-name="K" unicode="K" horiz-adv-x="858" 
d="M368 362l484 -362h-211l-446 344v-344h-131v700h131v-327l441 327h212z" />
    <glyph glyph-name="L" unicode="L" horiz-adv-x="736" 
d="M196 700v-586h524v-114h-656v700h132z" />
    <glyph glyph-name="M" unicode="M" horiz-adv-x="1040" 
d="M523 261l341 439h112v-700h-126v506l-294 -372h-72l-294 372v-506h-126v700h117z" />
    <glyph glyph-name="N" unicode="N" horiz-adv-x="932" 
d="M740 174v526h128v-700h-106l-570 532v-532h-128v700h112z" />
    <glyph glyph-name="O" unicode="O" horiz-adv-x="924" 
d="M683 0h-442c-128 0 -186 58 -186 186v328c0 128 58 186 186 186h442c128 0 186 -58 186 -186v-328c0 -128 -58 -186 -186 -186zM287 110h350c73 0 100 27 100 100v280c0 73 -27 100 -100 100h-350c-73 0 -100 -25 -100 -100v-280c0 -75 27 -100 100 -100z" />
    <glyph glyph-name="P" unicode="P" horiz-adv-x="860" 
d="M196 0h-132v700h598c117 0 166 -47 166 -166v-128c0 -119 -49 -166 -166 -166h-466v-240zM196 598v-260h415c65 0 85 19 85 84v92c0 65 -20 84 -85 84h-415z" />
    <glyph glyph-name="Q" unicode="Q" horiz-adv-x="924" 
d="M869 514v-328c0 -124 -54 -182 -173 -186l131 -140h-146l-124 140h-316c-128 0 -186 58 -186 186v328c0 128 58 186 186 186h442c128 0 186 -58 186 -186zM737 210v280c0 73 -27 100 -100 100h-350c-73 0 -100 -25 -100 -100v-280c0 -75 27 -100 100 -100h350
c73 0 100 27 100 100z" />
    <glyph glyph-name="R" unicode="R" horiz-adv-x="884" 
d="M644 268l214 -268h-155l-206 262h-301v-262h-132v700h598c117 0 166 -47 166 -166v-98c0 -119 -49 -166 -166 -166zM611 602h-415v-244h415c65 0 85 19 85 84v76c0 65 -20 84 -85 84z" />
    <glyph glyph-name="S" unicode="S" horiz-adv-x="902" 
d="M55 142v63h126v-36c0 -49 19 -68 68 -68h400c49 0 68 19 68 68v57c0 49 -16 63 -68 68l-442 31c-100 8 -142 46 -142 142v91c0 97 45 142 142 142h484c97 0 142 -45 142 -142v-49h-126v22c0 49 -19 68 -68 68h-376c-49 0 -68 -19 -68 -68v-34c0 -48 17 -63 68 -68
l442 -30c100 -8 142 -46 142 -142v-115c0 -97 -45 -142 -142 -142h-508c-97 0 -142 45 -142 142z" />
    <glyph glyph-name="T" unicode="T" horiz-adv-x="800" 
d="M16 700h768v-114h-318v-586h-132v586h-318v114z" />
    <glyph glyph-name="U" unicode="U" horiz-adv-x="897" 
d="M654 0h-412c-128 0 -186 58 -186 186v514h132v-488c0 -73 27 -100 100 -100h320c75 0 100 25 100 100v488h132v-514c0 -128 -58 -186 -186 -186z" />
    <glyph glyph-name="V" unicode="V" horiz-adv-x="900" 
d="M454 133l302 567h142l-386 -700h-124l-386 700h149z" />
    <glyph glyph-name="W" unicode="W" horiz-adv-x="1258" 
d="M900 161l216 539h140l-295 -700h-115l-217 526l-217 -526h-115l-295 700h147l215 -540l217 540h101z" />
    <glyph glyph-name="X" unicode="X" horiz-adv-x="875" 
d="M167 0h-161l344 356l-334 344h171l255 -274l253 274h164l-334 -344l344 -356h-171l-264 286z" />
    <glyph glyph-name="Y" unicode="Y" horiz-adv-x="856" 
d="M704 700h156l-366 -443v-257h-132v257l-366 443h163l273 -340z" />
    <glyph glyph-name="Z" unicode="Z" horiz-adv-x="872" 
d="M830 0h-788v88l573 502h-553v110h768v-88l-573 -502h573v-110z" />
    <glyph glyph-name="bracketleft" unicode="[" horiz-adv-x="476" 
d="M444 -100h-380v900h380v-98h-266v-704h266v-98z" />
    <glyph glyph-name="backslash" unicode="\" horiz-adv-x="527" 
d="M6 800h87l428 -900h-87z" />
    <glyph glyph-name="bracketright" unicode="]" horiz-adv-x="476" 
d="M32 800h380v-900h-380v98h266v704h-266v98z" />
    <glyph glyph-name="asciicircum" unicode="^" 
d="M482 700l324 -420h-128l-245 321l-245 -321h-130l324 420h100z" />
    <glyph glyph-name="underscore" unicode="_" horiz-adv-x="764" 
d="M0 -126v86h764v-86h-764z" />
    <glyph glyph-name="grave" unicode="`" horiz-adv-x="353" 
d="M321 576h-111l-146 124h142z" />
    <glyph glyph-name="a" unicode="a" horiz-adv-x="788" 
d="M220 528h343c117 0 166 -47 166 -166v-362h-102l-14 71l-17 -13c-31 -25 -57 -41 -80 -48s-58 -10 -105 -10h-233c-83 0 -124 41 -124 124v55c0 83 41 124 124 124h427v52c0 64 -21 84 -86 84h-253c-51 0 -68 -17 -68 -68v-19h-120v34c0 97 46 142 142 142zM559 114
l46 34v83h-366c-45 0 -61 -16 -61 -61v-26c0 -45 16 -61 61 -61h210c45 0 81 10 110 31z" />
    <glyph glyph-name="b" unicode="b" horiz-adv-x="803" 
d="M398 528h185c117 0 166 -47 166 -166v-196c0 -119 -49 -166 -166 -166h-185c-51 0 -89 4 -116 12s-58 26 -92 54l-9 7l-14 -73h-104v700h126v-239l1 1c34 28 65 46 92 54s65 12 116 12zM624 183v162c0 65 -20 85 -85 85h-180c-55 0 -99 -12 -130 -35l-40 -30v-202l40 -30
c31 -23 75 -35 130 -35h180c65 0 85 20 85 85z" />
    <glyph glyph-name="c" unicode="c" horiz-adv-x="770" 
d="M54 166v196c0 119 49 166 166 166h330c117 0 166 -47 166 -166v-41h-122v24c0 65 -19 85 -84 85h-246c-65 0 -84 -20 -84 -85v-162c0 -65 19 -85 84 -85h246c65 0 84 20 84 85v32h122v-49c0 -119 -49 -166 -166 -166h-330c-117 0 -166 47 -166 166z" />
    <glyph glyph-name="d" unicode="d" horiz-adv-x="803" 
d="M614 461v239h126v-700h-104l-14 73l-9 -7c-34 -28 -64 -46 -91 -54s-65 -12 -116 -12h-186c-117 0 -166 47 -166 166v196c0 119 49 166 166 166h186c51 0 89 -4 116 -12s57 -26 91 -54zM575 133l39 30v202l-39 30c-32 23 -76 35 -131 35h-180c-65 0 -84 -20 -84 -85v-162
c0 -65 19 -85 84 -85h180c55 0 99 12 131 35z" />
    <glyph glyph-name="e" unicode="e" horiz-adv-x="783" 
d="M220 528h343c117 0 166 -47 166 -166v-114h-551v-67c0 -65 20 -85 85 -85h278c49 0 68 19 68 68v23h120v-45c0 -97 -46 -142 -142 -142h-367c-117 0 -166 47 -166 166v196c0 119 49 166 166 166zM178 354v-28h431v28c0 65 -21 85 -86 85h-260c-65 0 -85 -20 -85 -85z" />
    <glyph glyph-name="f" unicode="f" horiz-adv-x="593" 
d="M577 603h-221c-51 0 -68 -19 -68 -68v-70h289v-97h-289v-368h-124v368h-148v97h148v93c0 97 46 142 142 142h271v-97z" />
    <glyph glyph-name="g" unicode="g" horiz-adv-x="802" 
d="M623 455l14 73h102v-502c0 -128 -58 -186 -186 -186h-479v92h440c73 0 100 27 100 100v72l-1 -1c-33 -27 -64 -45 -92 -53c-29 -9 -67 -13 -116 -13h-185c-117 0 -166 47 -166 166v159c0 119 49 166 166 166h185c49 0 88 -4 116 -12s59 -26 92 -53zM575 168l39 29v171
l-39 30c-31 23 -75 34 -131 34h-181c-65 0 -85 -20 -85 -85v-129c0 -65 20 -85 85 -85h181c55 0 99 12 131 35z" />
    <glyph glyph-name="h" unicode="h" horiz-adv-x="798" 
d="M402 528h171c117 0 166 -47 166 -166v-362h-125v342c0 65 -20 85 -85 85h-170c-57 0 -100 -11 -130 -34l-40 -30v-363h-126v700h126v-242l5 4c34 28 65 46 92 54s65 12 116 12z" />
    <glyph glyph-name="i" unicode="i" horiz-adv-x="260" 
d="M193 601h-126v99h126v-99zM193 0h-126v528h126v-528z" />
    <glyph glyph-name="j" unicode="j" horiz-adv-x="300" 
d="M233 601h-126v99h126v-99zM91 -160h-153v95h101c51 0 68 17 68 68v525h126v-546c0 -97 -45 -142 -142 -142z" />
    <glyph glyph-name="k" unicode="k" horiz-adv-x="750" 
d="M357 266l395 -266h-208l-356 250v-250h-125v700h125v-423l352 251h206z" />
    <glyph glyph-name="l" unicode="l" horiz-adv-x="262" 
d="M194 0h-127v700h127v-700z" />
    <glyph glyph-name="m" unicode="m" horiz-adv-x="1277" 
d="M912 528h140c117 0 166 -47 166 -166v-362h-126v342c0 65 -20 85 -85 85h-134c-55 0 -99 -11 -130 -34l-40 -30v-363h-125v342c0 65 -20 85 -85 85h-134c-57 0 -100 -11 -130 -34l-40 -30v-363h-126v528h104l14 -73l9 7c34 28 65 46 92 54s65 12 116 12h139
c81 0 131 -26 152 -78l15 12c34 28 65 46 92 54s65 12 116 12z" />
    <glyph glyph-name="n" unicode="n" horiz-adv-x="798" 
d="M398 528h175c117 0 166 -47 166 -166v-362h-125v342c0 65 -20 85 -85 85h-170c-57 0 -100 -11 -130 -34l-40 -30v-363h-126v528h104l14 -73l9 7c34 28 65 46 92 54s65 12 116 12z" />
    <glyph glyph-name="o" unicode="o" horiz-adv-x="794" 
d="M574 0h-354c-117 0 -166 47 -166 166v196c0 119 49 166 166 166h354c117 0 166 -47 166 -166v-196c0 -119 -49 -166 -166 -166zM264 98h266c65 0 84 20 84 85v162c0 65 -19 85 -84 85h-266c-65 0 -84 -20 -84 -85v-162c0 -65 19 -85 84 -85z" />
    <glyph glyph-name="p" unicode="p" horiz-adv-x="803" 
d="M398 528h185c117 0 166 -47 166 -166v-196c0 -119 -49 -166 -166 -166h-185c-51 0 -89 4 -116 12s-58 26 -92 54l-1 1v-227h-126v688h104l14 -73l9 7c34 28 65 46 92 54s65 12 116 12zM624 183v162c0 65 -20 85 -85 85h-180c-55 0 -99 -12 -130 -35l-40 -30v-202l40 -30
c31 -23 75 -35 130 -35h180c65 0 85 20 85 85z" />
    <glyph glyph-name="q" unicode="q" horiz-adv-x="803" 
d="M622 455l14 73h104v-688h-126v227l-1 -1c-34 -28 -64 -46 -89 -54c-26 -8 -64 -12 -114 -12h-190c-117 0 -166 47 -166 166v196c0 119 49 166 166 166h186c51 0 89 -4 116 -12s57 -26 91 -54zM575 133l39 30v202l-39 30c-32 23 -76 35 -131 35h-180
c-65 0 -84 -20 -84 -85v-162c0 -65 19 -85 84 -85h180c55 0 99 12 131 35z" />
    <glyph glyph-name="r" unicode="r" horiz-adv-x="530" 
d="M394 528h120v-111h-155c-57 0 -100 -11 -130 -34l-40 -30v-353h-126v528h92l15 -78l16 12c34 28 65 46 92 54s65 12 116 12z" />
    <glyph glyph-name="s" unicode="s" horiz-adv-x="773" 
d="M54 116v50h120v-35c0 -32 12 -44 45 -44h331c32 0 45 12 45 44v42c0 31 -13 42 -45 45l-371 26c-77 6 -115 44 -115 115v54c0 75 42 115 115 115h410c73 0 116 -41 116 -116v-45h-120v30c0 32 -13 44 -45 44h-307c-33 0 -45 -12 -45 -44v-17c0 -32 13 -43 45 -46l370 -26
c77 -7 116 -45 116 -115v-78c0 -75 -43 -115 -116 -115h-434c-73 0 -115 41 -115 116z" />
    <glyph glyph-name="t" unicode="t" horiz-adv-x="614" 
d="M588 528v-97h-298v-265c0 -51 17 -68 68 -68h230v-98h-282c-97 0 -142 43 -142 142v289h-148v97h148l25 120h101v-120h298z" />
    <glyph glyph-name="u" unicode="u" horiz-adv-x="798" 
d="M609 528h126v-528h-104l-14 73l-9 -7c-34 -28 -64 -46 -91 -54s-66 -12 -117 -12h-175c-117 0 -166 47 -166 166v362h125v-342c0 -65 20 -85 85 -85h170c57 0 100 11 130 34l40 30v363z" />
    <glyph glyph-name="v" unicode="v" horiz-adv-x="758" 
d="M382 127l230 401h142l-320 -528h-110l-320 528h147z" />
    <glyph glyph-name="w" unicode="w" horiz-adv-x="1058" 
d="M754 140l166 388h132l-244 -528h-107l-171 387l-171 -387h-109l-244 528h137l168 -387l172 387h97z" />
    <glyph glyph-name="x" unicode="x" horiz-adv-x="757" 
d="M165 0h-163l288 269l-278 259h171l199 -197l199 197h164l-278 -259l288 -269h-172l-208 207z" />
    <glyph glyph-name="y" unicode="y" horiz-adv-x="758" 
d="M381 122l231 406h142l-328 -540c-36 -59 -71 -99 -106 -119c-35 -19 -88 -29 -157 -29h-109v98h120c37 0 65 5 84 15c19 11 37 32 56 64l-310 511h147z" />
    <glyph glyph-name="z" unicode="z" horiz-adv-x="758" 
d="M718 0h-678v74l470 360h-450v94h658v-74l-470 -360h470v-94z" />
    <glyph glyph-name="braceleft" unicode="{" horiz-adv-x="564" 
d="M276 601v-145c0 -53 -19 -89 -57 -106c38 -19 57 -54 57 -107v-144c0 -71 30 -101 101 -101h155v-98h-180c-128 0 -190 61 -190 190v159c0 37 -19 56 -56 56h-74v90h74c37 0 56 18 56 55v160c0 129 62 190 190 190h180v-98h-155c-71 0 -101 -30 -101 -101z" />
    <glyph glyph-name="bar" unicode="|" horiz-adv-x="252" 
d="M74 -100v900h104v-900h-104z" />
    <glyph glyph-name="braceright" unicode="}" horiz-adv-x="564" 
d="M458 395h74v-90h-74c-37 0 -56 -18 -56 -55v-160c0 -129 -62 -190 -190 -190h-180v98h155c71 0 101 30 101 101v145c0 53 19 89 57 106c-38 19 -57 54 -57 107v144c0 71 -30 101 -101 101h-155v98h180c128 0 190 -61 190 -190v-159c0 -37 19 -56 56 -56z" />
    <glyph glyph-name="asciitilde" unicode="~" 
d="M385 452l192 -154c15 -14 34 -21 55 -21h23c24 0 33 9 33 33v194h108v-214c0 -68 -26 -94 -94 -94h-91c-31 0 -55 3 -71 10c-17 6 -37 20 -61 42l-192 154c-15 14 -34 21 -55 21h-23c-24 0 -33 -9 -33 -33v-194h-108v214c0 68 26 94 94 94h91c31 0 55 -3 72 -9
c17 -7 37 -21 60 -43z" />
    <glyph glyph-name="exclamdown" unicode="&#xa1;" horiz-adv-x="280" 
d="M64 700h152v-128h-152v128zM188 496l24 -496h-144l24 496h96z" />
    <glyph glyph-name="cent" unicode="&#xa2;" 
d="M798 534v-55h-124v36c0 65 -20 85 -85 85h-310c-65 0 -85 -20 -85 -85v-200c0 -65 20 -85 85 -85h310c65 0 85 20 85 85v43h124v-62c0 -119 -49 -166 -166 -166h-154v-100h-88v100h-158c-117 0 -166 47 -166 166v238c0 119 49 166 166 166h158v100h88v-100h154
c117 0 166 -47 166 -166z" />
    <glyph glyph-name="sterling" unicode="&#xa3;" horiz-adv-x="892" 
d="M826 514v-60h-124v48c0 73 -27 100 -100 100h-264c-69 0 -96 -27 -96 -100v-109h340v-74h-340v-217h392c51 0 68 17 68 68v68h124v-96c0 -99 -45 -142 -142 -142h-668v102h98v217h-108v74h108v121c0 128 58 186 186 186h340c128 0 186 -58 186 -186z" />
    <glyph glyph-name="currency" unicode="&#xa4;" 
d="M739 432v-164c0 -29 -4 -54 -13 -74l97 -97l-59 -59l-90 90c-28 -19 -62 -28 -103 -28h-278c-41 0 -75 9 -103 28l-90 -90l-59 59l97 97c-9 20 -13 45 -13 74v164c0 29 4 54 13 74l-97 97l59 59l90 -90c28 19 62 28 103 28h278c41 0 75 -9 103 -28l90 90l59 -59l-97 -97
c9 -20 13 -45 13 -74zM325 196h214c65 0 94 29 94 94v120c0 65 -29 94 -94 94h-214c-65 0 -94 -29 -94 -94v-120c0 -65 29 -94 94 -94z" />
    <glyph glyph-name="yen" unicode="&#xa5;" 
d="M685 700h151l-302 -389h272v-64h-310v-90h310v-64h-310v-93h-128v93h-310v64h310v90h-310v64h272l-302 389h158l249 -340z" />
    <glyph glyph-name="brokenbar" unicode="&#xa6;" horiz-adv-x="252" 
d="M74 478v322h104v-322h-104zM74 -100v322h104v-322h-104z" />
    <glyph glyph-name="section" unicode="&#xa7;" horiz-adv-x="1041" 
d="M362 544l491 -40c95 -9 134 -46 134 -138v-71c0 -88 -36 -132 -115 -137c3 -12 5 -28 5 -49v-67c0 -97 -46 -142 -142 -142h-419c-96 0 -142 45 -142 142v50h127v-29c0 -51 17 -68 68 -68h310c49 0 67 18 67 67v27c0 48 -18 62 -67 67l-491 40c-95 9 -134 46 -134 138v71
c0 88 36 129 115 136c-3 17 -5 33 -5 50v67c0 97 46 142 142 142h419c96 0 142 -45 142 -142v-50h-127v29c0 49 -17 68 -68 68h-310c-49 0 -67 -18 -67 -67v-27c0 -48 16 -62 67 -67zM248 290l491 -39c21 -2 40 -6 57 -11c44 1 60 18 60 63v44c0 45 -15 58 -63 63l-491 39
c-21 2 -40 6 -57 11c-44 -1 -60 -18 -60 -63v-44c0 -45 15 -58 63 -63z" />
    <glyph glyph-name="dieresis" unicode="&#xa8;" horiz-adv-x="432" 
d="M166 588h-102v88h102v-88zM392 588h-102v88h102v-88z" />
    <glyph glyph-name="copyright" unicode="&#xa9;" horiz-adv-x="924" 
d="M661 0h-398c-140 0 -223 82 -223 223v254c0 141 83 223 223 223h398c140 0 223 -82 223 -223v-254c0 -141 -83 -223 -223 -223zM273 50h378c119 0 179 60 179 179v242c0 119 -60 179 -179 179h-378c-119 0 -179 -60 -179 -179v-242c0 -119 60 -179 179 -179zM627 132
h-330c-83 0 -121 37 -121 121v194c0 84 38 121 121 121h330c83 0 121 -37 121 -121v-46h-95v31c0 43 -13 57 -56 57h-268c-43 0 -56 -14 -56 -57v-164c0 -43 13 -57 56 -57h268c43 0 56 14 56 57v36h95v-51c0 -84 -38 -121 -121 -121z" />
    <glyph glyph-name="ordfeminine" unicode="&#xaa;" horiz-adv-x="475" 
d="M132 700h207c72 0 102 -30 102 -102v-216h-70l-9 41l-5 -4c-19 -16 -36 -26 -49 -30c-14 -5 -35 -7 -63 -7h-140c-50 0 -75 25 -75 75v35c0 50 25 75 75 75h251v26c0 36 -10 47 -46 47h-146c-28 0 -37 -10 -37 -38v-9h-83v20c0 58 29 87 88 87zM149 438h122
c24 0 44 6 60 17l25 18v46h-207c-25 0 -34 -9 -34 -34v-14c0 -25 9 -33 34 -33z" />
    <glyph glyph-name="guillemotleft" unicode="&#xab;" horiz-adv-x="1000" 
d="M52 311v77l420 198v-103l-308 -132l308 -133v-105zM528 388l420 198v-103l-308 -132l308 -133v-105l-420 198v77z" />
    <glyph glyph-name="logicalnot" unicode="&#xac;" 
d="M682 298h-614v104h728v-280h-114v176z" />
    <glyph glyph-name="uni00AD" unicode="&#xad;" horiz-adv-x="516" 
d="M48 298v104h420v-104h-420z" />
    <glyph glyph-name="registered" unicode="&#xae;" horiz-adv-x="391" 
d="M143 700h105c71 0 107 -36 107 -107v-92c0 -71 -36 -107 -107 -107h-105c-71 0 -107 36 -107 107v92c0 71 36 107 107 107zM318 503v88c0 55 -19 74 -74 74h-97c-55 0 -74 -19 -74 -74v-88c0 -53 21 -74 74 -74h97c53 0 74 21 74 74zM271 587v-27c0 -23 -11 -35 -34 -36
l41 -55h-44l-38 52h-32v-52h-40v155h110c27 0 37 -10 37 -37zM220 592h-56v-39h56c9 0 11 3 11 12v15c0 9 -2 12 -11 12z" />
    <glyph glyph-name="overscore" unicode="&#xaf;" horiz-adv-x="520" 
d="M488 606h-424v66h424v-66z" />
    <glyph glyph-name="degree" unicode="&#xb0;" horiz-adv-x="428" 
d="M265 360h-102c-77 0 -121 45 -121 121v98c0 77 44 121 121 121h102c77 0 121 -44 121 -121v-98c0 -76 -44 -121 -121 -121zM179 431h70c41 0 61 20 61 61v76c0 43 -18 61 -61 61h-70c-43 0 -61 -18 -61 -61v-76c0 -41 20 -61 61 -61z" />
    <glyph glyph-name="plusminus" unicode="&#xb1;" 
d="M489 676v-192h307v-96h-307v-192h-114v192h-307v96h307v192h114zM796 24h-728v97h728v-97z" />
    <glyph glyph-name="uni00B2" unicode="&#xb2;" horiz-adv-x="548" 
d="M495 368v-88h-449v135c0 61 28 89 92 96l226 22c24 3 31 10 31 33v21c0 23 -8 31 -31 31h-175c-23 0 -31 -8 -31 -31v-19h-104v40c0 64 29 92 92 92h264c63 0 92 -28 92 -92v-55c0 -63 -27 -89 -92 -96l-225 -22c-24 -3 -32 -12 -32 -33v-34h342z" />
    <glyph glyph-name="uni00B3" unicode="&#xb3;" horiz-adv-x="544" 
d="M454 497c31 -10 47 -36 47 -79v-46c0 -64 -28 -92 -91 -92h-275c-63 0 -92 28 -92 92v55h104v-32c0 -24 7 -31 31 -31h185c24 0 31 7 31 31v32c0 23 -7 31 -31 31h-148v75h142c24 0 31 8 31 32v20c0 24 -7 31 -31 31h-173c-24 0 -31 -7 -31 -31v-27h-104v50
c0 64 29 92 92 92h263c63 0 91 -28 91 -92v-34c0 -41 -14 -67 -41 -77z" />
    <glyph glyph-name="acute" unicode="&#xb4;" horiz-adv-x="353" 
d="M321 700l-145 -124h-112l116 124h141z" />
    <glyph glyph-name="paragraph" unicode="&#xb6;" horiz-adv-x="874" 
d="M50 438v96c0 119 49 166 166 166h554v-700h-116v598h-178v-598h-116v272h-144c-117 0 -166 47 -166 166z" />
    <glyph glyph-name="middot" unicode="&#xb7;" horiz-adv-x="280" 
d="M216 278h-152v144h152v-144z" />
    <glyph glyph-name="cedilla" unicode="&#xb8;" horiz-adv-x="320" 
d="M248 -160h-196v47h167c9 0 13 4 13 13v13c0 9 -4 13 -13 13h-117v22l26 72h52l-18 -50h86c37 0 52 -15 52 -52v-26c0 -37 -15 -52 -52 -52z" />
    <glyph glyph-name="uni00B9" unicode="&#xb9;" horiz-adv-x="512" 
d="M321 700v-335h158v-85h-447v85h181v241l-163 -13v89l219 18h52z" />
    <glyph glyph-name="ordmasculine" unicode="&#xba;" horiz-adv-x="477" 
d="M345 383h-213c-72 0 -102 29 -102 101v115c0 72 30 101 102 101h213c71 0 101 -29 101 -101v-115c0 -72 -30 -101 -101 -101zM162 451h152c37 0 47 11 47 47v87c0 36 -10 47 -47 47h-152c-35 0 -46 -11 -46 -47v-87c0 -36 11 -47 46 -47z" />
    <glyph glyph-name="guillemotright" unicode="&#xbb;" horiz-adv-x="1000" 
d="M360 349l-308 132v105l420 -198v-77l-420 -198v103zM528 481v105l420 -198v-77l-420 -198v103l308 133z" />
    <glyph glyph-name="onequarter" unicode="&#xbc;" horiz-adv-x="1192" 
d="M322 365h158v-85h-447v85h180v241l-162 -13v89l219 18h52v-335zM303 0l615 700h85l-616 -700h-84zM1056 166h103v-80h-103v-86h-103v86h-295v67l279 267h119v-254zM953 329l-172 -163h172v163z" />
    <glyph glyph-name="onehalf" unicode="&#xbd;" horiz-adv-x="1298" 
d="M322 365h158v-85h-447v85h180v241l-162 -13v89l219 18h52v-335zM303 0l615 700h85l-616 -700h-84zM1159 177l-225 -22c-24 -3 -32 -12 -32 -33v-34h342v-88h-449v135c0 61 28 89 92 96l226 22c24 3 31 10 31 33v21c0 23 -8 31 -31 31h-175c-23 0 -31 -8 -31 -31v-19h-104
v40c0 64 29 92 92 92h264c63 0 92 -28 92 -92v-55c0 -63 -27 -89 -92 -96z" />
    <glyph glyph-name="threequarters" unicode="&#xbe;" horiz-adv-x="1217" 
d="M505 418v-46c0 -64 -28 -92 -91 -92h-275c-63 0 -92 28 -92 92v55h102v-32c0 -24 7 -31 31 -31h188c24 0 31 7 31 31v32c0 23 -7 31 -31 31h-149v75h143c24 0 31 8 31 32v20c0 24 -7 31 -31 31h-176c-24 0 -31 -7 -31 -31v-27h-102v50c0 64 29 92 92 92h263
c63 0 91 -28 91 -92v-34c0 -41 -14 -67 -41 -77c31 -10 47 -36 47 -79zM316 0l615 700h85l-615 -700h-85zM1081 166h103v-80h-103v-86h-103v86h-295v67l279 267h119v-254zM978 329l-172 -163h172v163z" />
    <glyph glyph-name="questiondown" unicode="&#xbf;" horiz-adv-x="797" 
d="M355 700h150v-116h-150v116zM370 508h119v-75c0 -85 -30 -120 -119 -137l-131 -21c-48 -9 -68 -29 -68 -74v-34c0 -48 17 -66 66 -66h326c49 0 67 18 67 66v41h123v-66c0 -97 -46 -142 -142 -142h-425c-96 0 -142 45 -142 142v67c0 88 42 133 138 152l128 21
c45 8 60 27 60 72v54z" />
    <glyph glyph-name="Agrave" unicode="&#xc0;" horiz-adv-x="923" 
d="M400 872l115 -124h-111l-146 124h142zM925 0h-148l-83 156h-468l-83 -156h-141l390 700h144zM460 597l-180 -340h361z" />
    <glyph glyph-name="Aacute" unicode="&#xc1;" horiz-adv-x="923" 
d="M527 872h141l-145 -124h-112zM925 0h-148l-83 156h-468l-83 -156h-141l390 700h144zM460 597l-180 -340h361z" />
    <glyph glyph-name="Acircumflex" unicode="&#xc2;" horiz-adv-x="923" 
d="M568 748l-105 72l-105 -72h-98l138 124h130l138 -124h-98zM925 0h-148l-83 156h-468l-83 -156h-141l390 700h144zM460 597l-180 -340h361z" />
    <glyph glyph-name="Atilde" unicode="&#xc3;" horiz-adv-x="923" 
d="M343 808v-60h-77v74c0 33 17 50 50 50h99c31 0 42 -5 62 -25l42 -39c7 -7 15 -10 25 -10h24c10 0 15 5 15 14v60h77v-74c0 -33 -17 -50 -50 -50h-99c-31 0 -42 5 -62 25l-42 39c-7 7 -15 10 -25 10h-24c-10 0 -15 -5 -15 -14zM925 0h-148l-83 156h-468l-83 -156h-141
l390 700h144zM460 597l-180 -340h361z" />
    <glyph glyph-name="Adieresis" unicode="&#xc4;" horiz-adv-x="923" 
d="M299 848h102v-88h-102v88zM525 848h102v-88h-102v88zM925 0h-148l-83 156h-468l-83 -156h-141l390 700h144zM460 597l-180 -340h361z" />
    <glyph glyph-name="Aring" unicode="&#xc5;" horiz-adv-x="923" 
d="M566 738h-206c-37 0 -54 17 -54 54v26c0 37 17 54 54 54h206c37 0 54 -17 54 -54v-26c0 -37 -17 -54 -54 -54zM361 812v-14c0 -16 4 -21 20 -21h164c16 0 20 5 20 21v14c0 16 -4 21 -20 21h-164c-16 0 -20 -5 -20 -21zM925 0h-148l-83 156h-468l-83 -156h-141l390 700
h144zM460 597l-180 -340h361z" />
    <glyph glyph-name="AE" unicode="&#xc6;" horiz-adv-x="1280" 
d="M746 314l109 -207h393v-107h-484l-78 154h-461l-82 -154h-141l390 700h846v-107h-639l95 -181h504v-98h-452zM461 597l-183 -343h357z" />
    <glyph glyph-name="Ccedilla" unicode="&#xc7;" horiz-adv-x="896" 
d="M845 514v-74h-128v52c0 73 -27 100 -100 100h-330c-73 0 -100 -27 -100 -100v-284c0 -73 27 -100 100 -100h330c73 0 100 27 100 100v61h128v-83c0 -128 -58 -186 -186 -186h-196l-11 -30h86c37 0 52 -15 52 -52v-26c0 -37 -15 -52 -52 -52h-196v47h167c9 0 13 4 13 13
v13c0 9 -4 13 -13 13h-117v22l19 52h-170c-128 0 -186 58 -186 186v328c0 128 58 186 186 186h418c128 0 186 -58 186 -186z" />
    <glyph glyph-name="Egrave" unicode="&#xc8;" horiz-adv-x="801" 
d="M337 872l115 -124h-111l-146 124h142zM195 314v-207h574v-107h-705v700h695v-107h-564v-181h524v-98h-524z" />
    <glyph glyph-name="Eacute" unicode="&#xc9;" horiz-adv-x="801" 
d="M464 872h141l-145 -124h-112zM195 314v-207h574v-107h-705v700h695v-107h-564v-181h524v-98h-524z" />
    <glyph glyph-name="Ecircumflex" unicode="&#xca;" horiz-adv-x="801" 
d="M505 748l-105 72l-105 -72h-98l138 124h130l138 -124h-98zM195 314v-207h574v-107h-705v700h695v-107h-564v-181h524v-98h-524z" />
    <glyph glyph-name="Edieresis" unicode="&#xcb;" horiz-adv-x="801" 
d="M236 848h102v-88h-102v88zM462 848h102v-88h-102v88zM195 314v-207h574v-107h-705v700h695v-107h-564v-181h524v-98h-524z" />
    <glyph glyph-name="Igrave" unicode="&#xcc;" horiz-adv-x="272" 
d="M188 748h-111l-146 124h142zM69 0v700h134v-700h-134z" />
    <glyph glyph-name="Iacute" unicode="&#xcd;" horiz-adv-x="272" 
d="M341 872l-145 -124h-112l116 124h141zM69 0v700h134v-700h-134z" />
    <glyph glyph-name="Icircumflex" unicode="&#xce;" horiz-adv-x="272" 
d="M31 748h-98l138 124h130l138 -124h-98l-105 72zM69 0v700h134v-700h-134z" />
    <glyph glyph-name="Idieresis" unicode="&#xcf;" horiz-adv-x="272" 
d="M74 760h-102v88h102v-88zM300 760h-102v88h102v-88zM69 0v700h134v-700h-134z" />
    <glyph glyph-name="Eth" unicode="&#xd0;" horiz-adv-x="983" 
d="M124 700h574c149 0 230 -79 230 -230v-240c0 -151 -81 -230 -230 -230h-574v311h-92v78h92v311zM796 238v224c0 85 -43 128 -128 128h-412v-201h298v-78h-298v-201h412c85 0 128 43 128 128z" />
    <glyph glyph-name="Ntilde" unicode="&#xd1;" horiz-adv-x="932" 
d="M344 808v-60h-77v74c0 33 17 50 50 50h99c31 0 42 -5 62 -25l42 -39c7 -7 15 -10 25 -10h24c10 0 15 5 15 14v60h77v-74c0 -33 -17 -50 -50 -50h-99c-31 0 -42 5 -62 25l-42 39c-7 7 -15 10 -25 10h-24c-10 0 -15 -5 -15 -14zM740 174v526h128v-700h-106l-570 532v-532
h-128v700h112z" />
    <glyph glyph-name="Ograve" unicode="&#xd2;" horiz-adv-x="924" 
d="M514 748h-111l-146 124h142zM683 0h-442c-128 0 -186 58 -186 186v328c0 128 58 186 186 186h442c128 0 186 -58 186 -186v-328c0 -128 -58 -186 -186 -186zM287 110h350c73 0 100 27 100 100v280c0 73 -27 100 -100 100h-350c-73 0 -100 -25 -100 -100v-280
c0 -75 27 -100 100 -100z" />
    <glyph glyph-name="Oacute" unicode="&#xd3;" horiz-adv-x="924" 
d="M667 872l-145 -124h-112l116 124h141zM683 0h-442c-128 0 -186 58 -186 186v328c0 128 58 186 186 186h442c128 0 186 -58 186 -186v-328c0 -128 -58 -186 -186 -186zM287 110h350c73 0 100 27 100 100v280c0 73 -27 100 -100 100h-350c-73 0 -100 -25 -100 -100v-280
c0 -75 27 -100 100 -100z" />
    <glyph glyph-name="Ocircumflex" unicode="&#xd4;" horiz-adv-x="924" 
d="M357 748h-98l138 124h130l138 -124h-98l-105 72zM683 0h-442c-128 0 -186 58 -186 186v328c0 128 58 186 186 186h442c128 0 186 -58 186 -186v-328c0 -128 -58 -186 -186 -186zM287 110h350c73 0 100 27 100 100v280c0 73 -27 100 -100 100h-350
c-73 0 -100 -25 -100 -100v-280c0 -75 27 -100 100 -100z" />
    <glyph glyph-name="Otilde" unicode="&#xd5;" horiz-adv-x="924" 
d="M342 748h-77v74c0 33 17 50 50 50h99c31 0 42 -5 62 -25l42 -39c7 -7 15 -10 25 -10h24c10 0 15 5 15 14v60h77v-74c0 -33 -17 -50 -50 -50h-99c-31 0 -42 5 -62 25l-42 39c-7 7 -15 10 -25 10h-24c-10 0 -15 -5 -15 -14v-60zM683 0h-442c-128 0 -186 58 -186 186v328
c0 128 58 186 186 186h442c128 0 186 -58 186 -186v-328c0 -128 -58 -186 -186 -186zM287 110h350c73 0 100 27 100 100v280c0 73 -27 100 -100 100h-350c-73 0 -100 -25 -100 -100v-280c0 -75 27 -100 100 -100z" />
    <glyph glyph-name="Odieresis" unicode="&#xd6;" horiz-adv-x="924" 
d="M400 760h-102v88h102v-88zM626 760h-102v88h102v-88zM683 0h-442c-128 0 -186 58 -186 186v328c0 128 58 186 186 186h442c128 0 186 -58 186 -186v-328c0 -128 -58 -186 -186 -186zM287 110h350c73 0 100 27 100 100v280c0 73 -27 100 -100 100h-350
c-73 0 -100 -25 -100 -100v-280c0 -75 27 -100 100 -100z" />
    <glyph glyph-name="multiply" unicode="&#xd7;" 
d="M711 645l67 -79l-264 -216l264 -216l-67 -79l-279 228l-279 -228l-67 79l264 216l-264 216l67 79l279 -228z" />
    <glyph glyph-name="Oslash" unicode="&#xd8;" horiz-adv-x="924" 
d="M899 730l-76 -74c31 -30 46 -77 46 -142v-328c0 -128 -58 -186 -186 -186h-442c-32 0 -59 3 -81 10l-41 -40h-94l76 74c-31 30 -46 77 -46 142v328c0 128 58 186 186 186h442c32 0 59 -3 81 -10l41 40h94zM182 494v-288c0 -31 5 -53 15 -68l467 455c-5 1 -12 1 -22 1
h-360c-73 0 -100 -27 -100 -100zM742 206v288c0 31 -5 53 -15 68l-467 -455c5 -1 12 -1 22 -1h360c73 0 100 27 100 100z" />
    <glyph glyph-name="Ugrave" unicode="&#xd9;" horiz-adv-x="897" 
d="M500 748h-111l-146 124h142zM654 0h-412c-128 0 -186 58 -186 186v514h132v-488c0 -73 27 -100 100 -100h320c75 0 100 25 100 100v488h132v-514c0 -128 -58 -186 -186 -186z" />
    <glyph glyph-name="Uacute" unicode="&#xda;" horiz-adv-x="897" 
d="M653 872l-145 -124h-112l116 124h141zM654 0h-412c-128 0 -186 58 -186 186v514h132v-488c0 -73 27 -100 100 -100h320c75 0 100 25 100 100v488h132v-514c0 -128 -58 -186 -186 -186z" />
    <glyph glyph-name="Ucircumflex" unicode="&#xdb;" horiz-adv-x="897" 
d="M343 748h-98l138 124h130l138 -124h-98l-105 72zM654 0h-412c-128 0 -186 58 -186 186v514h132v-488c0 -73 27 -100 100 -100h320c75 0 100 25 100 100v488h132v-514c0 -128 -58 -186 -186 -186z" />
    <glyph glyph-name="Udieresis" unicode="&#xdc;" horiz-adv-x="897" 
d="M386 760h-102v88h102v-88zM612 760h-102v88h102v-88zM654 0h-412c-128 0 -186 58 -186 186v514h132v-488c0 -73 27 -100 100 -100h320c75 0 100 25 100 100v488h132v-514c0 -128 -58 -186 -186 -186z" />
    <glyph glyph-name="Yacute" unicode="&#xdd;" horiz-adv-x="856" 
d="M492 872h141l-145 -124h-112zM704 700h156l-366 -443v-257h-132v257l-366 443h163l273 -340z" />
    <glyph glyph-name="Thorn" unicode="&#xde;" horiz-adv-x="860" 
d="M196 590h466c117 0 166 -47 166 -166v-128c0 -119 -49 -166 -166 -166h-466v-130h-132v700h132v-110zM696 312v92c0 65 -20 84 -85 84h-415v-260h415c65 0 85 19 85 84z" />
    <glyph glyph-name="germandbls" unicode="&#xdf;" horiz-adv-x="804" 
d="M669 367c55 -14 83 -57 83 -128v-97c0 -97 -46 -142 -142 -142h-233v97h183c51 0 68 19 68 68v88c0 49 -17 68 -68 68h-183v86h163c51 0 68 17 68 68v60c0 49 -17 68 -68 68h-285c-49 0 -68 -19 -68 -68v-535h-124v558c0 97 46 142 142 142h385c96 0 142 -45 142 -142
v-69c0 -63 -21 -103 -63 -122z" />
    <glyph glyph-name="agrave" unicode="&#xe0;" horiz-adv-x="788" 
d="M339 700l115 -124h-111l-146 124h142zM220 528h343c117 0 166 -47 166 -166v-362h-102l-14 71l-17 -13c-31 -25 -57 -41 -80 -48s-58 -10 -105 -10h-233c-83 0 -124 41 -124 124v55c0 83 41 124 124 124h427v52c0 64 -21 84 -86 84h-253c-51 0 -68 -17 -68 -68v-19h-120
v34c0 97 46 142 142 142zM559 114l46 34v83h-366c-45 0 -61 -16 -61 -61v-26c0 -45 16 -61 61 -61h210c45 0 81 10 110 31z" />
    <glyph glyph-name="aacute" unicode="&#xe1;" horiz-adv-x="788" 
d="M466 700h141l-145 -124h-112zM220 528h343c117 0 166 -47 166 -166v-362h-102l-14 71l-17 -13c-31 -25 -57 -41 -80 -48s-58 -10 -105 -10h-233c-83 0 -124 41 -124 124v55c0 83 41 124 124 124h427v52c0 64 -21 84 -86 84h-253c-51 0 -68 -17 -68 -68v-19h-120v34
c0 97 46 142 142 142zM559 114l46 34v83h-366c-45 0 -61 -16 -61 -61v-26c0 -45 16 -61 61 -61h210c45 0 81 10 110 31z" />
    <glyph glyph-name="acircumflex" unicode="&#xe2;" horiz-adv-x="788" 
d="M507 576l-105 72l-105 -72h-98l138 124h130l138 -124h-98zM220 528h343c117 0 166 -47 166 -166v-362h-102l-14 71l-17 -13c-31 -25 -57 -41 -80 -48s-58 -10 -105 -10h-233c-83 0 -124 41 -124 124v55c0 83 41 124 124 124h427v52c0 64 -21 84 -86 84h-253
c-51 0 -68 -17 -68 -68v-19h-120v34c0 97 46 142 142 142zM559 114l46 34v83h-366c-45 0 -61 -16 -61 -61v-26c0 -45 16 -61 61 -61h210c45 0 81 10 110 31z" />
    <glyph glyph-name="atilde" unicode="&#xe3;" horiz-adv-x="788" 
d="M282 636v-60h-77v74c0 33 17 50 50 50h99c31 0 42 -5 62 -25l42 -39c7 -7 15 -10 25 -10h24c10 0 15 5 15 14v60h77v-74c0 -33 -17 -50 -50 -50h-99c-31 0 -42 5 -62 25l-42 39c-7 7 -15 10 -25 10h-24c-10 0 -15 -5 -15 -14zM220 528h343c117 0 166 -47 166 -166v-362
h-102l-14 71l-17 -13c-31 -25 -57 -41 -80 -48s-58 -10 -105 -10h-233c-83 0 -124 41 -124 124v55c0 83 41 124 124 124h427v52c0 64 -21 84 -86 84h-253c-51 0 -68 -17 -68 -68v-19h-120v34c0 97 46 142 142 142zM559 114l46 34v83h-366c-45 0 -61 -16 -61 -61v-26
c0 -45 16 -61 61 -61h210c45 0 81 10 110 31z" />
    <glyph glyph-name="adieresis" unicode="&#xe4;" horiz-adv-x="788" 
d="M238 676h102v-88h-102v88zM464 676h102v-88h-102v88zM220 528h343c117 0 166 -47 166 -166v-362h-102l-14 71l-17 -13c-31 -25 -57 -41 -80 -48s-58 -10 -105 -10h-233c-83 0 -124 41 -124 124v55c0 83 41 124 124 124h427v52c0 64 -21 84 -86 84h-253
c-51 0 -68 -17 -68 -68v-19h-120v34c0 97 46 142 142 142zM559 114l46 34v83h-366c-45 0 -61 -16 -61 -61v-26c0 -45 16 -61 61 -61h210c45 0 81 10 110 31z" />
    <glyph glyph-name="aring" unicode="&#xe5;" horiz-adv-x="788" 
d="M505 566h-206c-39 0 -54 17 -54 54v26c0 37 15 54 54 54h206c39 0 54 -17 54 -54v-26c0 -37 -15 -54 -54 -54zM300 640v-14c0 -16 4 -21 20 -21h164c16 0 20 5 20 21v14c0 16 -4 21 -20 21h-164c-16 0 -20 -5 -20 -21zM220 528h343c117 0 166 -47 166 -166v-362h-102
l-14 71l-17 -13c-31 -25 -57 -41 -80 -48s-58 -10 -105 -10h-233c-83 0 -124 41 -124 124v55c0 83 41 124 124 124h427v52c0 64 -21 84 -86 84h-253c-51 0 -68 -17 -68 -68v-19h-120v34c0 97 46 142 142 142zM559 114l46 34v83h-366c-45 0 -61 -16 -61 -61v-26
c0 -45 16 -61 61 -61h210c45 0 81 10 110 31z" />
    <glyph glyph-name="ae" unicode="&#xe6;" horiz-adv-x="1333" 
d="M794 528h319c117 0 166 -47 166 -166v-114h-550v-67c0 -65 19 -85 84 -85h278c49 0 68 17 68 68v23h120v-45c0 -97 -45 -142 -142 -142h-351c-76 0 -125 23 -148 68l-12 -10c-31 -25 -57 -41 -80 -48s-58 -10 -105 -10h-263c-83 0 -124 41 -124 124v55
c0 83 41 124 124 124h427v52c0 64 -21 84 -86 84h-253c-51 0 -68 -17 -68 -68v-19h-120v34c0 97 46 142 142 142h319c62 0 105 -17 128 -51c23 34 65 51 127 51zM729 354v-28h430v28c0 65 -20 85 -85 85h-261c-65 0 -84 -20 -84 -85zM558 114l46 34v83h-365
c-45 0 -61 -16 -61 -61v-26c0 -45 16 -61 61 -61h210c44 0 80 10 109 31z" />
    <glyph glyph-name="ccedilla" unicode="&#xe7;" horiz-adv-x="770" 
d="M716 362v-41h-122v24c0 65 -19 85 -84 85h-246c-65 0 -84 -20 -84 -85v-162c0 -65 19 -85 84 -85h246c65 0 84 20 84 85v32h122v-49c0 -119 -49 -166 -166 -166h-150l-11 -30h86c37 0 52 -15 52 -52v-26c0 -37 -15 -52 -52 -52h-196v47h167c9 0 13 4 13 13v13
c0 9 -4 13 -13 13h-117v22l19 52h-128c-117 0 -166 47 -166 166v196c0 119 49 166 166 166h330c117 0 166 -47 166 -166z" />
    <glyph glyph-name="egrave" unicode="&#xe8;" horiz-adv-x="783" 
d="M328 700l115 -124h-111l-146 124h142zM220 528h343c117 0 166 -47 166 -166v-114h-551v-67c0 -65 20 -85 85 -85h278c49 0 68 19 68 68v23h120v-45c0 -97 -46 -142 -142 -142h-367c-117 0 -166 47 -166 166v196c0 119 49 166 166 166zM178 354v-28h431v28
c0 65 -21 85 -86 85h-260c-65 0 -85 -20 -85 -85z" />
    <glyph glyph-name="eacute" unicode="&#xe9;" horiz-adv-x="783" 
d="M455 700h141l-145 -124h-112zM220 528h343c117 0 166 -47 166 -166v-114h-551v-67c0 -65 20 -85 85 -85h278c49 0 68 19 68 68v23h120v-45c0 -97 -46 -142 -142 -142h-367c-117 0 -166 47 -166 166v196c0 119 49 166 166 166zM178 354v-28h431v28c0 65 -21 85 -86 85
h-260c-65 0 -85 -20 -85 -85z" />
    <glyph glyph-name="ecircumflex" unicode="&#xea;" horiz-adv-x="783" 
d="M496 576l-105 72l-105 -72h-98l138 124h130l138 -124h-98zM220 528h343c117 0 166 -47 166 -166v-114h-551v-67c0 -65 20 -85 85 -85h278c49 0 68 19 68 68v23h120v-45c0 -97 -46 -142 -142 -142h-367c-117 0 -166 47 -166 166v196c0 119 49 166 166 166zM178 354v-28
h431v28c0 65 -21 85 -86 85h-260c-65 0 -85 -20 -85 -85z" />
    <glyph glyph-name="edieresis" unicode="&#xeb;" horiz-adv-x="783" 
d="M227 676h102v-88h-102v88zM453 676h102v-88h-102v88zM220 528h343c117 0 166 -47 166 -166v-114h-551v-67c0 -65 20 -85 85 -85h278c49 0 68 19 68 68v23h120v-45c0 -97 -46 -142 -142 -142h-367c-117 0 -166 47 -166 166v196c0 119 49 166 166 166zM178 354v-28h431v28
c0 65 -21 85 -86 85h-260c-65 0 -85 -20 -85 -85z" />
    <glyph glyph-name="igrave" unicode="&#xec;" horiz-adv-x="262" 
d="M183 576h-111l-146 124h142zM194 0h-127v528h127v-528z" />
    <glyph glyph-name="iacute" unicode="&#xed;" horiz-adv-x="262" 
d="M336 700l-145 -124h-112l116 124h141zM194 0h-127v528h127v-528z" />
    <glyph glyph-name="icircumflex" unicode="&#xee;" horiz-adv-x="262" 
d="M26 576h-98l138 124h130l138 -124h-98l-105 72zM194 0h-127v528h127v-528z" />
    <glyph glyph-name="idieresis" unicode="&#xef;" horiz-adv-x="262" 
d="M69 588h-102v88h102v-88zM295 588h-102v88h102v-88zM194 0h-127v528h127v-528z" />
    <glyph glyph-name="eth" unicode="&#xf0;" horiz-adv-x="793" 
d="M463 700h90c128 0 186 -58 186 -186v-372c0 -97 -46 -142 -142 -142h-401c-96 0 -142 45 -142 142v143c0 99 45 142 142 142h316c49 0 84 -12 103 -36v114c0 73 -27 100 -100 100h-119l-49 -69h-78l49 69h-184v95h251l42 60h78zM615 163v105c0 49 -19 68 -68 68h-301
c-51 0 -68 -17 -68 -68v-105c0 -51 17 -68 68 -68h301c49 0 68 17 68 68z" />
    <glyph glyph-name="ntilde" unicode="&#xf1;" horiz-adv-x="798" 
d="M279 636v-60h-77v74c0 33 17 50 50 50h99c31 0 42 -5 62 -25l42 -39c7 -7 15 -10 25 -10h24c10 0 15 5 15 14v60h77v-74c0 -33 -17 -50 -50 -50h-99c-31 0 -42 5 -62 25l-42 39c-7 7 -15 10 -25 10h-24c-10 0 -15 -5 -15 -14zM398 528h175c117 0 166 -47 166 -166v-362
h-125v342c0 65 -20 85 -85 85h-170c-57 0 -100 -11 -130 -34l-40 -30v-363h-126v528h104l14 -73l9 7c34 28 65 46 92 54s65 12 116 12z" />
    <glyph glyph-name="ograve" unicode="&#xf2;" horiz-adv-x="794" 
d="M449 576h-111l-146 124h142zM574 0h-354c-117 0 -166 47 -166 166v196c0 119 49 166 166 166h354c117 0 166 -47 166 -166v-196c0 -119 -49 -166 -166 -166zM264 98h266c65 0 84 20 84 85v162c0 65 -19 85 -84 85h-266c-65 0 -84 -20 -84 -85v-162c0 -65 19 -85 84 -85z
" />
    <glyph glyph-name="oacute" unicode="&#xf3;" horiz-adv-x="794" 
d="M602 700l-145 -124h-112l116 124h141zM574 0h-354c-117 0 -166 47 -166 166v196c0 119 49 166 166 166h354c117 0 166 -47 166 -166v-196c0 -119 -49 -166 -166 -166zM264 98h266c65 0 84 20 84 85v162c0 65 -19 85 -84 85h-266c-65 0 -84 -20 -84 -85v-162
c0 -65 19 -85 84 -85z" />
    <glyph glyph-name="ocircumflex" unicode="&#xf4;" horiz-adv-x="794" 
d="M292 576h-98l138 124h130l138 -124h-98l-105 72zM574 0h-354c-117 0 -166 47 -166 166v196c0 119 49 166 166 166h354c117 0 166 -47 166 -166v-196c0 -119 -49 -166 -166 -166zM264 98h266c65 0 84 20 84 85v162c0 65 -19 85 -84 85h-266c-65 0 -84 -20 -84 -85v-162
c0 -65 19 -85 84 -85z" />
    <glyph glyph-name="otilde" unicode="&#xf5;" horiz-adv-x="794" 
d="M277 576h-77v74c0 33 17 50 50 50h99c31 0 42 -5 62 -25l42 -39c7 -7 15 -10 25 -10h24c10 0 15 5 15 14v60h77v-74c0 -33 -17 -50 -50 -50h-99c-31 0 -42 5 -62 25l-42 39c-7 7 -15 10 -25 10h-24c-10 0 -15 -5 -15 -14v-60zM574 0h-354c-117 0 -166 47 -166 166v196
c0 119 49 166 166 166h354c117 0 166 -47 166 -166v-196c0 -119 -49 -166 -166 -166zM264 98h266c65 0 84 20 84 85v162c0 65 -19 85 -84 85h-266c-65 0 -84 -20 -84 -85v-162c0 -65 19 -85 84 -85z" />
    <glyph glyph-name="odieresis" unicode="&#xf6;" horiz-adv-x="794" 
d="M335 588h-102v88h102v-88zM561 588h-102v88h102v-88zM574 0h-354c-117 0 -166 47 -166 166v196c0 119 49 166 166 166h354c117 0 166 -47 166 -166v-196c0 -119 -49 -166 -166 -166zM264 98h266c65 0 84 20 84 85v162c0 65 -19 85 -84 85h-266c-65 0 -84 -20 -84 -85
v-162c0 -65 19 -85 84 -85z" />
    <glyph glyph-name="divide" unicode="&#xf7;" 
d="M508 540h-152v112h152v-112zM68 298v104h728v-104h-728zM508 48h-152v112h152v-112z" />
    <glyph glyph-name="oslash" unicode="&#xf8;" horiz-adv-x="794" 
d="M770 564l-75 -69c30 -25 45 -70 45 -133v-196c0 -119 -49 -166 -166 -166h-354c-20 0 -40 2 -60 5l-45 -41h-91l75 69c-30 25 -45 70 -45 133v196c0 119 49 166 166 166h354c20 0 40 -2 60 -5l45 41h91zM172 351v-174c0 -31 5 -52 15 -64l352 323h-1h-282
c-65 0 -84 -20 -84 -85zM622 177v174c0 31 -5 52 -15 64l-352 -323h1h282c65 0 84 20 84 85z" />
    <glyph glyph-name="ugrave" unicode="&#xf9;" horiz-adv-x="798" 
d="M334 700l115 -124h-111l-146 124h142zM609 528h126v-528h-104l-14 73l-9 -7c-34 -28 -64 -46 -91 -54s-66 -12 -117 -12h-175c-117 0 -166 47 -166 166v362h125v-342c0 -65 20 -85 85 -85h170c57 0 100 11 130 34l40 30v363z" />
    <glyph glyph-name="uacute" unicode="&#xfa;" horiz-adv-x="798" 
d="M461 700h141l-145 -124h-112zM609 528h126v-528h-104l-14 73l-9 -7c-34 -28 -64 -46 -91 -54s-66 -12 -117 -12h-175c-117 0 -166 47 -166 166v362h125v-342c0 -65 20 -85 85 -85h170c57 0 100 11 130 34l40 30v363z" />
    <glyph glyph-name="ucircumflex" unicode="&#xfb;" horiz-adv-x="798" 
d="M502 576l-105 72l-105 -72h-98l138 124h130l138 -124h-98zM609 528h126v-528h-104l-14 73l-9 -7c-34 -28 -64 -46 -91 -54s-66 -12 -117 -12h-175c-117 0 -166 47 -166 166v362h125v-342c0 -65 20 -85 85 -85h170c57 0 100 11 130 34l40 30v363z" />
    <glyph glyph-name="udieresis" unicode="&#xfc;" horiz-adv-x="798" 
d="M233 676h102v-88h-102v88zM459 676h102v-88h-102v88zM609 528h126v-528h-104l-14 73l-9 -7c-34 -28 -64 -46 -91 -54s-66 -12 -117 -12h-175c-117 0 -166 47 -166 166v362h125v-342c0 -65 20 -85 85 -85h170c57 0 100 11 130 34l40 30v363z" />
    <glyph glyph-name="yacute" unicode="&#xfd;" horiz-adv-x="758" 
d="M443 700h141l-145 -124h-112zM381 122l231 406h142l-328 -540c-36 -59 -71 -99 -106 -119c-35 -19 -88 -29 -157 -29h-109v98h120c37 0 65 5 84 15c19 11 37 32 56 64l-310 511h147z" />
    <glyph glyph-name="thorn" unicode="&#xfe;" horiz-adv-x="803" 
d="M398 528h185c117 0 166 -47 166 -166v-196c0 -119 -49 -166 -166 -166h-185c-51 0 -89 4 -116 12s-58 26 -92 54l-1 1v-227h-126v860h126v-239l1 1c34 28 65 46 92 54s65 12 116 12zM624 183v162c0 65 -20 85 -85 85h-180c-55 0 -99 -12 -130 -35l-40 -30v-202l40 -30
c31 -23 75 -35 130 -35h180c65 0 85 20 85 85z" />
    <glyph glyph-name="ydieresis" unicode="&#xff;" horiz-adv-x="758" 
d="M215 676h102v-88h-102v88zM441 676h102v-88h-102v88zM381 122l231 406h142l-328 -540c-36 -59 -71 -99 -106 -119c-35 -19 -88 -29 -157 -29h-109v98h120c37 0 65 5 84 15c19 11 37 32 56 64l-310 511h147z" />
    <glyph glyph-name="Amacron" unicode="&#x100;" horiz-adv-x="923" 
d="M251 844h424v-66h-424v66zM925 0h-148l-83 156h-468l-83 -156h-141l390 700h144zM460 597l-180 -340h361z" />
    <glyph glyph-name="amacron" unicode="&#x101;" horiz-adv-x="788" 
d="M190 672h424v-66h-424v66zM220 528h343c117 0 166 -47 166 -166v-362h-102l-14 71l-17 -13c-31 -25 -57 -41 -80 -48s-58 -10 -105 -10h-233c-83 0 -124 41 -124 124v55c0 83 41 124 124 124h427v52c0 64 -21 84 -86 84h-253c-51 0 -68 -17 -68 -68v-19h-120v34
c0 97 46 142 142 142zM559 114l46 34v83h-366c-45 0 -61 -16 -61 -61v-26c0 -45 16 -61 61 -61h210c45 0 81 10 110 31z" />
    <glyph glyph-name="Abreve" unicode="&#x102;" horiz-adv-x="923" 
d="M591 748h-256c-49 0 -73 24 -73 73v51h90v-36c0 -20 10 -30 30 -30h162c20 0 30 10 30 30v36h90v-51c0 -49 -24 -73 -73 -73zM925 0h-148l-83 156h-468l-83 -156h-141l390 700h144zM460 597l-180 -340h361z" />
    <glyph glyph-name="abreve" unicode="&#x103;" horiz-adv-x="788" 
d="M530 576h-256c-49 0 -73 24 -73 73v51h90v-36c0 -20 10 -30 30 -30h162c20 0 30 10 30 30v36h90v-51c0 -49 -24 -73 -73 -73zM220 528h343c117 0 166 -47 166 -166v-362h-102l-14 71l-17 -13c-31 -25 -57 -41 -80 -48s-58 -10 -105 -10h-233c-83 0 -124 41 -124 124v55
c0 83 41 124 124 124h427v52c0 64 -21 84 -86 84h-253c-51 0 -68 -17 -68 -68v-19h-120v34c0 97 46 142 142 142zM559 114l46 34v83h-366c-45 0 -61 -16 -61 -61v-26c0 -45 16 -61 61 -61h210c45 0 81 10 110 31z" />
    <glyph glyph-name="Aogonek" unicode="&#x104;" horiz-adv-x="923" 
d="M807 -90h137v-70h-170c-56 0 -80 24 -80 80v16c0 44 7 59 47 83l20 11l-67 126h-468l-83 -156h-141l390 700h144l389 -700h-105l-22 -12c-19 -9 -22 -17 -22 -34v-13c0 -23 8 -31 31 -31zM460 597l-180 -340h361z" />
    <glyph glyph-name="aogonek" unicode="&#x105;" horiz-adv-x="785" 
d="M668 -90h99v-70h-132c-56 0 -80 24 -80 80v16c0 43 8 59 47 83l19 11l-8 41l-17 -13c-31 -25 -57 -41 -80 -48s-58 -10 -105 -10h-233c-83 0 -124 41 -124 124v55c0 83 41 124 124 124h427v52c0 64 -21 84 -86 84h-253c-51 0 -68 -17 -68 -68v-19h-120v34
c0 97 46 142 142 142h343c117 0 166 -47 166 -166v-362h-50l-20 -12c-19 -11 -22 -18 -22 -35v-12c0 -23 8 -31 31 -31zM559 114l46 34v83h-366c-45 0 -61 -16 -61 -61v-26c0 -45 16 -61 61 -61h210c45 0 81 10 110 31z" />
    <glyph glyph-name="Cacute" unicode="&#x106;" horiz-adv-x="896" 
d="M653 872l-145 -124h-112l116 124h141zM659 0h-418c-128 0 -186 58 -186 186v328c0 128 58 186 186 186h418c128 0 186 -58 186 -186v-74h-128v52c0 73 -27 100 -100 100h-330c-73 0 -100 -27 -100 -100v-284c0 -73 27 -100 100 -100h330c73 0 100 27 100 100v61h128v-83
c0 -128 -58 -186 -186 -186z" />
    <glyph glyph-name="cacute" unicode="&#x107;" horiz-adv-x="770" 
d="M590 700l-145 -124h-112l116 124h141zM54 166v196c0 119 49 166 166 166h330c117 0 166 -47 166 -166v-41h-122v24c0 65 -19 85 -84 85h-246c-65 0 -84 -20 -84 -85v-162c0 -65 19 -85 84 -85h246c65 0 84 20 84 85v32h122v-49c0 -119 -49 -166 -166 -166h-330
c-117 0 -166 47 -166 166z" />
    <glyph glyph-name="Ccircumflex" unicode="&#x108;" horiz-adv-x="896" 
d="M343 748h-98l138 124h130l138 -124h-98l-105 72zM659 0h-418c-128 0 -186 58 -186 186v328c0 128 58 186 186 186h418c128 0 186 -58 186 -186v-74h-128v52c0 73 -27 100 -100 100h-330c-73 0 -100 -27 -100 -100v-284c0 -73 27 -100 100 -100h330c73 0 100 27 100 100
v61h128v-83c0 -128 -58 -186 -186 -186z" />
    <glyph glyph-name="ccircumflex" unicode="&#x109;" horiz-adv-x="770" 
d="M280 576h-98l138 124h130l138 -124h-98l-105 72zM54 166v196c0 119 49 166 166 166h330c117 0 166 -47 166 -166v-41h-122v24c0 65 -19 85 -84 85h-246c-65 0 -84 -20 -84 -85v-162c0 -65 19 -85 84 -85h246c65 0 84 20 84 85v32h122v-49c0 -119 -49 -166 -166 -166h-330
c-117 0 -166 47 -166 166z" />
    <glyph glyph-name="Cdotaccent" unicode="&#x10a;" horiz-adv-x="896" 
d="M511 760h-127v88h127v-88zM659 0h-418c-128 0 -186 58 -186 186v328c0 128 58 186 186 186h418c128 0 186 -58 186 -186v-74h-128v52c0 73 -27 100 -100 100h-330c-73 0 -100 -27 -100 -100v-284c0 -73 27 -100 100 -100h330c73 0 100 27 100 100v61h128v-83
c0 -128 -58 -186 -186 -186z" />
    <glyph glyph-name="cdotaccent" unicode="&#x10b;" horiz-adv-x="770" 
d="M448 588h-127v88h127v-88zM54 166v196c0 119 49 166 166 166h330c117 0 166 -47 166 -166v-41h-122v24c0 65 -19 85 -84 85h-246c-65 0 -84 -20 -84 -85v-162c0 -65 19 -85 84 -85h246c65 0 84 20 84 85v32h122v-49c0 -119 -49 -166 -166 -166h-330
c-117 0 -166 47 -166 166z" />
    <glyph glyph-name="Ccaron" unicode="&#x10c;" horiz-adv-x="896" 
d="M527 798h-18l-138 24h-14l-3 5l106 45l97 -27zM659 0h-418c-128 0 -186 58 -186 186v328c0 128 58 186 186 186h418c128 0 186 -58 186 -186v-74h-128v52c0 73 -27 100 -100 100h-330c-73 0 -100 -27 -100 -100v-284c0 -73 27 -100 100 -100h330c73 0 100 27 100 100v61
h128v-83c0 -128 -58 -186 -186 -186z" />
    <glyph glyph-name="ccaron" unicode="&#x10d;" horiz-adv-x="770" 
d="M464 626h-18l-138 24h-14l-3 5l106 45l97 -27zM54 166v196c0 119 49 166 166 166h330c117 0 166 -47 166 -166v-41h-122v24c0 65 -19 85 -84 85h-246c-65 0 -84 -20 -84 -85v-162c0 -65 19 -85 84 -85h246c65 0 84 20 84 85v32h122v-49c0 -119 -49 -166 -166 -166h-330
c-117 0 -166 47 -166 166z" />
    <glyph glyph-name="Dcaron" unicode="&#x10e;" horiz-adv-x="923" 
d="M542 798h-18l-138 24h-14l-3 5l106 45l97 -27zM638 0h-574v700h574c149 0 230 -79 230 -230v-240c0 -151 -81 -230 -230 -230zM196 590v-480h412c85 0 128 43 128 128v224c0 85 -43 128 -128 128h-412z" />
    <glyph glyph-name="dcaron" unicode="&#x10f;" horiz-adv-x="926" 
d="M613 462l1 -1v239h126v-700h-104l-14 73l-9 -7c-34 -28 -64 -46 -91 -54s-65 -12 -116 -12h-186c-117 0 -166 47 -166 166v196c0 119 49 166 166 166h186c51 0 89 -4 116 -12s57 -26 91 -54zM786 604v96h128v-49c0 -27 -7 -52 -21 -77l-36 -70h-65l43 100h-49zM575 133
l39 30v202l-39 30c-32 23 -76 35 -131 35h-180c-65 0 -84 -20 -84 -85v-162c0 -65 19 -85 84 -85h180c55 0 99 12 131 35z" />
    <glyph glyph-name="Dcroat" unicode="&#x110;" horiz-adv-x="983" 
d="M124 700h574c149 0 230 -79 230 -230v-240c0 -151 -81 -230 -230 -230h-574v311h-92v78h92v311zM796 238v224c0 85 -43 128 -128 128h-412v-201h298v-78h-298v-201h412c85 0 128 43 128 128z" />
    <glyph glyph-name="dslash" unicode="&#x111;" horiz-adv-x="844" 
d="M740 641h82v-62h-82v-579h-104l-14 73l-9 -7c-34 -28 -64 -46 -91 -54s-65 -12 -116 -12h-186c-117 0 -166 47 -166 166v196c0 119 49 166 166 166h186c51 0 89 -4 116 -12s57 -26 91 -54l1 -1v118h-248v62h248v59h126v-59zM575 133l39 30v202l-39 30
c-32 23 -76 35 -131 35h-180c-65 0 -84 -20 -84 -85v-162c0 -65 19 -85 84 -85h180c55 0 99 12 131 35z" />
    <glyph glyph-name="Emacron" unicode="&#x112;" horiz-adv-x="801" 
d="M188 844h424v-66h-424v66zM195 314v-207h574v-107h-705v700h695v-107h-564v-181h524v-98h-524z" />
    <glyph glyph-name="emacron" unicode="&#x113;" horiz-adv-x="783" 
d="M179 672h424v-66h-424v66zM220 528h343c117 0 166 -47 166 -166v-114h-551v-67c0 -65 20 -85 85 -85h278c49 0 68 19 68 68v23h120v-45c0 -97 -46 -142 -142 -142h-367c-117 0 -166 47 -166 166v196c0 119 49 166 166 166zM178 354v-28h431v28c0 65 -21 85 -86 85h-260
c-65 0 -85 -20 -85 -85z" />
    <glyph glyph-name="Ebreve" unicode="&#x114;" horiz-adv-x="801" 
d="M528 748h-256c-49 0 -73 24 -73 73v51h90v-36c0 -20 10 -30 30 -30h162c20 0 30 10 30 30v36h90v-51c0 -49 -24 -73 -73 -73zM195 314v-207h574v-107h-705v700h695v-107h-564v-181h524v-98h-524z" />
    <glyph glyph-name="ebreve" unicode="&#x115;" horiz-adv-x="783" 
d="M519 576h-256c-49 0 -73 24 -73 73v51h90v-36c0 -20 10 -30 30 -30h162c20 0 30 10 30 30v36h90v-51c0 -49 -24 -73 -73 -73zM220 528h343c117 0 166 -47 166 -166v-114h-551v-67c0 -65 20 -85 85 -85h278c49 0 68 19 68 68v23h120v-45c0 -97 -46 -142 -142 -142h-367
c-117 0 -166 47 -166 166v196c0 119 49 166 166 166zM178 354v-28h431v28c0 65 -21 85 -86 85h-260c-65 0 -85 -20 -85 -85z" />
    <glyph glyph-name="Edotaccent" unicode="&#x116;" horiz-adv-x="801" 
d="M336 848h127v-88h-127v88zM195 314v-207h574v-107h-705v700h695v-107h-564v-181h524v-98h-524z" />
    <glyph glyph-name="edotaccent" unicode="&#x117;" horiz-adv-x="783" 
d="M327 676h127v-88h-127v88zM220 528h343c117 0 166 -47 166 -166v-114h-551v-67c0 -65 20 -85 85 -85h278c49 0 68 19 68 68v23h120v-45c0 -97 -46 -142 -142 -142h-367c-117 0 -166 47 -166 166v196c0 119 49 166 166 166zM178 354v-28h431v28c0 65 -21 85 -86 85h-260
c-65 0 -85 -20 -85 -85z" />
    <glyph glyph-name="Eogonek" unicode="&#x118;" horiz-adv-x="801" 
d="M627 0l-22 -12c-19 -9 -22 -17 -22 -34v-13c0 -23 8 -31 31 -31h137v-70h-170c-56 0 -80 24 -80 80v16c0 29 7 51 21 64h-458v700h695v-107h-564v-181h524v-98h-524v-207h574v-107h-142z" />
    <glyph glyph-name="eogonek" unicode="&#x119;" horiz-adv-x="783" 
d="M220 528h343c117 0 166 -47 166 -166v-114h-551v-67c0 -65 20 -85 85 -85h278c49 0 68 19 68 68v23h120v-45c0 -97 -46 -142 -142 -142h-131l-22 -12c-19 -9 -22 -17 -22 -34v-13c0 -23 8 -31 31 -31h137v-70h-170c-56 0 -80 24 -80 80v16c0 29 7 51 21 64h-131
c-117 0 -166 47 -166 166v196c0 119 49 166 166 166zM178 354v-28h431v28c0 65 -21 85 -86 85h-260c-65 0 -85 -20 -85 -85z" />
    <glyph glyph-name="Ecaron" unicode="&#x11a;" horiz-adv-x="801" 
d="M461 798l-138 24h-14l-3 5l106 45l97 -27l-30 -47h-18zM195 314v-207h574v-107h-705v700h695v-107h-564v-181h524v-98h-524z" />
    <glyph glyph-name="ecaron" unicode="&#x11b;" horiz-adv-x="783" 
d="M452 626l-138 24h-14l-3 5l106 45l97 -27l-30 -47h-18zM220 528h343c117 0 166 -47 166 -166v-114h-551v-67c0 -65 20 -85 85 -85h278c49 0 68 19 68 68v23h120v-45c0 -97 -46 -142 -142 -142h-367c-117 0 -166 47 -166 166v196c0 119 49 166 166 166zM178 354v-28h431
v28c0 65 -21 85 -86 85h-260c-65 0 -85 -20 -85 -85z" />
    <glyph glyph-name="Gcircumflex" unicode="&#x11c;" horiz-adv-x="922" 
d="M356 748h-98l138 124h130l138 -124h-98l-105 72zM55 186v328c0 128 58 186 186 186h440c128 0 186 -58 186 -186v-42h-130v21c0 73 -27 100 -100 100h-352c-73 0 -100 -27 -100 -100v-289c0 -73 27 -100 100 -100h356c73 0 100 27 100 100v72h-263v99h389v-189
c0 -128 -58 -186 -186 -186h-440c-128 0 -186 58 -186 186z" />
    <glyph glyph-name="gcircumflex" unicode="&#x11d;" horiz-adv-x="802" 
d="M506 576l-105 72l-105 -72h-98l138 124h130l138 -124h-98zM623 455l14 73h102v-502c0 -128 -58 -186 -186 -186h-479v92h440c73 0 100 27 100 100v72l-1 -1c-33 -27 -64 -45 -92 -53c-29 -9 -67 -13 -116 -13h-185c-117 0 -166 47 -166 166v159c0 119 49 166 166 166h185
c49 0 88 -4 116 -12s59 -26 92 -53zM575 168l39 29v171l-39 30c-31 23 -75 34 -131 34h-181c-65 0 -85 -20 -85 -85v-129c0 -65 20 -85 85 -85h181c55 0 99 12 131 35z" />
    <glyph glyph-name="Gbreve" unicode="&#x11e;" horiz-adv-x="922" 
d="M589 748h-256c-49 0 -73 24 -73 73v51h90v-36c0 -20 10 -30 30 -30h162c20 0 30 10 30 30v36h90v-51c0 -49 -24 -73 -73 -73zM55 186v328c0 128 58 186 186 186h440c128 0 186 -58 186 -186v-42h-130v21c0 73 -27 100 -100 100h-352c-73 0 -100 -27 -100 -100v-289
c0 -73 27 -100 100 -100h356c73 0 100 27 100 100v72h-263v99h389v-189c0 -128 -58 -186 -186 -186h-440c-128 0 -186 58 -186 186z" />
    <glyph glyph-name="gbreve" unicode="&#x11f;" horiz-adv-x="802" 
d="M529 576h-256c-49 0 -73 24 -73 73v51h90v-36c0 -20 10 -30 30 -30h162c20 0 30 10 30 30v36h90v-51c0 -49 -24 -73 -73 -73zM623 455l14 73h102v-502c0 -128 -58 -186 -186 -186h-479v92h440c73 0 100 27 100 100v72l-1 -1c-33 -27 -64 -45 -92 -53
c-29 -9 -67 -13 -116 -13h-185c-117 0 -166 47 -166 166v159c0 119 49 166 166 166h185c49 0 88 -4 116 -12s59 -26 92 -53zM575 168l39 29v171l-39 30c-31 23 -75 34 -131 34h-181c-65 0 -85 -20 -85 -85v-129c0 -65 20 -85 85 -85h181c55 0 99 12 131 35z" />
    <glyph glyph-name="Gdotaccent" unicode="&#x120;" horiz-adv-x="922" 
d="M524 760h-127v88h127v-88zM55 186v328c0 128 58 186 186 186h440c128 0 186 -58 186 -186v-42h-130v21c0 73 -27 100 -100 100h-352c-73 0 -100 -27 -100 -100v-289c0 -73 27 -100 100 -100h356c73 0 100 27 100 100v72h-263v99h389v-189c0 -128 -58 -186 -186 -186h-440
c-128 0 -186 58 -186 186z" />
    <glyph glyph-name="gdotaccent" unicode="&#x121;" horiz-adv-x="802" 
d="M337 676h127v-88h-127v88zM623 455l14 73h102v-502c0 -128 -58 -186 -186 -186h-479v92h440c73 0 100 27 100 100v72l-1 -1c-33 -27 -64 -45 -92 -53c-29 -9 -67 -13 -116 -13h-185c-117 0 -166 47 -166 166v159c0 119 49 166 166 166h185c49 0 88 -4 116 -12
s59 -26 92 -53zM575 168l39 29v171l-39 30c-31 23 -75 34 -131 34h-181c-65 0 -85 -20 -85 -85v-129c0 -65 20 -85 85 -85h181c55 0 99 12 131 35z" />
    <glyph glyph-name="Gcommaaccent" unicode="&#x122;" horiz-adv-x="922" 
d="M55 186v328c0 128 58 186 186 186h440c128 0 186 -58 186 -186v-42h-130v21c0 73 -27 100 -100 100h-352c-73 0 -100 -27 -100 -100v-289c0 -73 27 -100 100 -100h356c73 0 100 27 100 100v72h-263v99h389v-189c0 -128 -58 -186 -186 -186h-440c-128 0 -186 58 -186 186z
M468 -196h-65l43 82h-49v84h128v-35c0 -32 -3 -43 -23 -74z" />
    <glyph glyph-name="gcommaaccent" unicode="&#x123;" horiz-adv-x="802" 
d="M418 660h45v-84h-124v35c0 33 3 45 22 74l33 57h65zM623 455l14 73h102v-502c0 -128 -58 -186 -186 -186h-479v92h440c73 0 100 27 100 100v72l-1 -1c-33 -27 -64 -45 -92 -53c-29 -9 -67 -13 -116 -13h-185c-117 0 -166 47 -166 166v159c0 119 49 166 166 166h185
c49 0 88 -4 116 -12s59 -26 92 -53zM575 168l39 29v171l-39 30c-31 23 -75 34 -131 34h-181c-65 0 -85 -20 -85 -85v-129c0 -65 20 -85 85 -85h181c55 0 99 12 131 35z" />
    <glyph glyph-name="Hcircumflex" unicode="&#x124;" horiz-adv-x="912" 
d="M561 748l-105 72l-105 -72h-98l138 124h130l138 -124h-98zM716 423v277h132v-700h-132v309h-520v-309h-132v700h132v-277h520z" />
    <glyph glyph-name="hcircumflex" unicode="&#x125;" horiz-adv-x="798" 
d="M329 748h-98l-105 72l-105 -72h-98l138 124h130zM402 528h171c117 0 166 -47 166 -166v-362h-125v342c0 65 -20 85 -85 85h-170c-57 0 -100 -11 -130 -34l-40 -30v-363h-126v700h126v-242l5 4c34 28 65 46 92 54s65 12 116 12z" />
    <glyph glyph-name="Hbar" unicode="&#x126;" horiz-adv-x="1032" 
d="M908 600h92v-73h-92v-527h-132v309h-520v-309h-132v527h-92v73h92v100h132v-100h520v100h132v-100zM256 423h520v104h-520v-104z" />
    <glyph glyph-name="hbar" unicode="&#x127;" horiz-adv-x="839" 
d="M449 528h171c117 0 166 -47 166 -166v-362h-125v342c0 65 -20 85 -85 85h-170c-57 0 -100 -11 -130 -34l-40 -30v-363h-126v579h-88v62h88v59h126v-59h242v-62h-242v-121l5 4c34 28 65 46 92 54s65 12 116 12z" />
    <glyph glyph-name="Itilde" unicode="&#x128;" horiz-adv-x="272" 
d="M16 748h-77v74c0 33 17 50 50 50h99c31 0 42 -5 62 -25l42 -39c7 -7 15 -10 25 -10h24c10 0 15 5 15 14v60h77v-74c0 -33 -17 -50 -50 -50h-99c-31 0 -42 5 -62 25l-42 39c-7 7 -15 10 -25 10h-24c-10 0 -15 -5 -15 -14v-60zM69 0v700h134v-700h-134z" />
    <glyph glyph-name="itilde" unicode="&#x129;" horiz-adv-x="262" 
d="M11 576h-77v74c0 33 17 50 50 50h99c31 0 42 -5 62 -25l42 -39c7 -7 15 -10 25 -10h24c10 0 15 5 15 14v60h77v-74c0 -33 -17 -50 -50 -50h-99c-31 0 -42 5 -62 25l-42 39c-7 7 -15 10 -25 10h-24c-10 0 -15 -5 -15 -14v-60zM194 0h-127v528h127v-528z" />
    <glyph glyph-name="Imacron" unicode="&#x12a;" horiz-adv-x="272" 
d="M348 778h-424v66h424v-66zM69 0v700h134v-700h-134z" />
    <glyph glyph-name="imacron" unicode="&#x12b;" horiz-adv-x="262" 
d="M343 606h-424v66h424v-66zM194 0h-127v528h127v-528z" />
    <glyph glyph-name="Ibreve" unicode="&#x12c;" horiz-adv-x="272" 
d="M264 748h-256c-49 0 -73 24 -73 73v51h90v-36c0 -20 10 -30 30 -30h162c20 0 30 10 30 30v36h90v-51c0 -49 -24 -73 -73 -73zM69 0v700h134v-700h-134z" />
    <glyph glyph-name="ibreve" unicode="&#x12d;" horiz-adv-x="262" 
d="M259 576h-256c-49 0 -73 24 -73 73v51h90v-36c0 -20 10 -30 30 -30h162c20 0 30 10 30 30v36h90v-51c0 -49 -24 -73 -73 -73zM194 0h-127v528h127v-528z" />
    <glyph glyph-name="Iogonek" unicode="&#x12e;" horiz-adv-x="272" 
d="M103 -90h137v-70h-170c-56 0 -80 24 -80 80v16c0 44 7 59 47 83l32 17v664h134v-700h-87l-22 -12c-19 -9 -22 -17 -22 -34v-13c0 -23 8 -31 31 -31z" />
    <glyph glyph-name="iogonek" unicode="&#x12f;" horiz-adv-x="262" 
d="M67 676h127v-88h-127v88zM92 -90h137v-70h-170c-56 0 -80 24 -80 80v16c0 44 7 59 47 83l41 22v487h127v-528h-89l-22 -12c-19 -9 -22 -17 -22 -34v-13c0 -23 8 -31 31 -31z" />
    <glyph glyph-name="Idot" unicode="&#x130;" horiz-adv-x="272" 
d="M203 760h-134v88h134v-88zM69 0v700h134v-700h-134z" />
    <glyph glyph-name="dotlessi" unicode="&#x131;" horiz-adv-x="262" 
d="M194 0h-127v528h127v-528z" />
    <glyph glyph-name="IJ" unicode="&#x132;" horiz-adv-x="1092" 
d="M69 0v700h134v-700h-134zM850 0h-360c-128 0 -186 58 -186 186v82h128v-60c0 -73 27 -100 100 -100h272c73 0 100 27 100 100v492h132v-514c0 -128 -58 -186 -186 -186z" />
    <glyph glyph-name="ij" unicode="&#x133;" horiz-adv-x="564" 
d="M193 601h-126v99h126v-99zM497 601h-126v99h126v-99zM193 0h-126v528h126v-528zM355 -160h-153v95h101c51 0 68 17 68 68v525h126v-546c0 -97 -45 -142 -142 -142z" />
    <glyph glyph-name="Jcircumflex" unicode="&#x134;" horiz-adv-x="820" 
d="M593 748h-98l138 124h130l138 -124h-98l-105 72zM578 0h-360c-128 0 -186 58 -186 186v82h128v-60c0 -73 27 -100 100 -100h272c73 0 100 27 100 100v492h132v-514c0 -128 -58 -186 -186 -186z" />
    <glyph glyph-name="jcircumflex" unicode="&#x135;" horiz-adv-x="302" 
d="M66 576h-98l138 124h130l138 -124h-98l-105 72zM92 -160h-154v94h101c49 0 68 17 68 68v526h127v-546c0 -99 -45 -142 -142 -142z" />
    <glyph glyph-name="Kcommaaccent" unicode="&#x136;" horiz-adv-x="858" 
d="M848 700l-480 -338l484 -362h-211l-446 344v-344h-131v700h131v-327l441 327h212zM397 -114h-49v84h128v-35c0 -32 -3 -43 -23 -74l-34 -57h-65z" />
    <glyph glyph-name="kcommaaccent" unicode="&#x137;" horiz-adv-x="750" 
d="M746 528l-389 -262l395 -266h-208l-356 250v-250h-125v700h125v-423l352 251h206zM348 -114h-49v84h128v-35c0 -32 -3 -43 -23 -74l-34 -57h-65z" />
    <glyph glyph-name="Lacute" unicode="&#x139;" horiz-adv-x="736" 
d="M194 872h141l-145 -124h-112zM196 700v-586h524v-114h-656v700h132z" />
    <glyph glyph-name="lacute" unicode="&#x13a;" horiz-adv-x="262" 
d="M336 872l-145 -124h-112l116 124h141zM194 0h-127v700h127v-700z" />
    <glyph glyph-name="Lcommaaccent" unicode="&#x13b;" horiz-adv-x="736" 
d="M196 700v-586h524v-114h-656v700h132zM353 -114h-49v84h128v-35c0 -32 -3 -43 -23 -74l-34 -57h-65z" />
    <glyph glyph-name="lcommaaccent" unicode="&#x13c;" horiz-adv-x="262" 
d="M194 0h-127v700h127v-700zM138 -196h-65l43 82h-49v84h128v-35c0 -32 -3 -43 -23 -74z" />
    <glyph glyph-name="Lcaron" unicode="&#x13d;" horiz-adv-x="736" 
d="M196 700v-586h524v-114h-656v700h132zM441 504h-65l43 100h-49v96h128v-49c0 -27 -7 -52 -21 -77z" />
    <glyph glyph-name="lcaron" unicode="&#x13e;" horiz-adv-x="386" 
d="M194 0h-127v700h127v-700zM318 504h-66l44 100h-50v96h128v-49c0 -27 -7 -52 -21 -77z" />
    <glyph glyph-name="Ldot" unicode="&#x13f;" horiz-adv-x="736" 
d="M196 700v-586h524v-114h-656v700h132zM388 482h152v-144h-152v144z" />
    <glyph glyph-name="ldot" unicode="&#x140;" horiz-adv-x="430" 
d="M194 0h-127v700h127v-700zM414 310h-152v144h152v-144z" />
    <glyph glyph-name="Lslash" unicode="&#x141;" horiz-adv-x="796" 
d="M256 345v-231h524v-114h-656v324l-92 -14v80l92 14v296h132v-275l342 53v-80z" />
    <glyph glyph-name="lslash" unicode="&#x142;" horiz-adv-x="347" 
d="M237 413l88 17v-80l-88 -17v-333h-127v307l-88 -17v80l88 17v313h127v-287z" />
    <glyph glyph-name="Nacute" unicode="&#x143;" horiz-adv-x="932" 
d="M528 872h141l-145 -124h-112zM740 174v526h128v-700h-106l-570 532v-532h-128v700h112z" />
    <glyph glyph-name="nacute" unicode="&#x144;" horiz-adv-x="798" 
d="M463 700h141l-145 -124h-112zM398 528h175c117 0 166 -47 166 -166v-362h-125v342c0 65 -20 85 -85 85h-170c-57 0 -100 -11 -130 -34l-40 -30v-363h-126v528h104l14 -73l9 7c34 28 65 46 92 54s65 12 116 12z" />
    <glyph glyph-name="Ncommaaccent" unicode="&#x145;" horiz-adv-x="932" 
d="M740 174v526h128v-700h-106l-570 532v-532h-128v700h112zM451 -114h-49v84h128v-35c0 -32 -3 -43 -23 -74l-34 -57h-65z" />
    <glyph glyph-name="ncommaaccent" unicode="&#x146;" horiz-adv-x="798" 
d="M398 528h175c117 0 166 -47 166 -166v-362h-125v342c0 65 -20 85 -85 85h-170c-57 0 -100 -11 -130 -34l-40 -30v-363h-126v528h104l14 -73l9 7c34 28 65 46 92 54s65 12 116 12zM384 -114h-49v84h128v-35c0 -32 -3 -43 -23 -74l-34 -57h-65z" />
    <glyph glyph-name="Ncaron" unicode="&#x147;" horiz-adv-x="932" 
d="M525 798l-138 24h-14l-3 5l106 45l97 -27l-30 -47h-18zM740 174v526h128v-700h-106l-570 532v-532h-128v700h112z" />
    <glyph glyph-name="ncaron" unicode="&#x148;" horiz-adv-x="798" 
d="M460 626l-138 24h-14l-3 5l106 45l97 -27l-30 -47h-18zM398 528h175c117 0 166 -47 166 -166v-362h-125v342c0 65 -20 85 -85 85h-170c-57 0 -100 -11 -130 -34l-40 -30v-363h-126v528h104l14 -73l9 7c34 28 65 46 92 54s65 12 116 12z" />
    <glyph glyph-name="Eng" unicode="&#x14a;" horiz-adv-x="932" 
d="M740 174v526h128v-684c0 -123 -55 -176 -176 -176h-152v94h110c68 0 89 20 90 87l-548 511v-532h-128v700h112z" />
    <glyph glyph-name="eng" unicode="&#x14b;" horiz-adv-x="790" 
d="M398 528h167c117 0 166 -47 166 -166v-380c0 -99 -45 -142 -142 -142h-126l1 94h74c51 0 68 17 68 68v340c0 65 -20 85 -85 85h-162c-57 0 -100 -11 -130 -34l-40 -30v-363h-126v528h104l14 -73l9 7c34 28 65 46 92 54s65 12 116 12z" />
    <glyph glyph-name="Omacron" unicode="&#x14c;" horiz-adv-x="924" 
d="M674 778h-424v66h424v-66zM683 0h-442c-128 0 -186 58 -186 186v328c0 128 58 186 186 186h442c128 0 186 -58 186 -186v-328c0 -128 -58 -186 -186 -186zM287 110h350c73 0 100 27 100 100v280c0 73 -27 100 -100 100h-350c-73 0 -100 -25 -100 -100v-280
c0 -75 27 -100 100 -100z" />
    <glyph glyph-name="omacron" unicode="&#x14d;" horiz-adv-x="794" 
d="M609 606h-424v66h424v-66zM574 0h-354c-117 0 -166 47 -166 166v196c0 119 49 166 166 166h354c117 0 166 -47 166 -166v-196c0 -119 -49 -166 -166 -166zM264 98h266c65 0 84 20 84 85v162c0 65 -19 85 -84 85h-266c-65 0 -84 -20 -84 -85v-162c0 -65 19 -85 84 -85z
" />
    <glyph glyph-name="Obreve" unicode="&#x14e;" horiz-adv-x="924" 
d="M590 748h-256c-49 0 -73 24 -73 73v51h90v-36c0 -20 10 -30 30 -30h162c20 0 30 10 30 30v36h90v-51c0 -49 -24 -73 -73 -73zM683 0h-442c-128 0 -186 58 -186 186v328c0 128 58 186 186 186h442c128 0 186 -58 186 -186v-328c0 -128 -58 -186 -186 -186zM287 110h350
c73 0 100 27 100 100v280c0 73 -27 100 -100 100h-350c-73 0 -100 -25 -100 -100v-280c0 -75 27 -100 100 -100z" />
    <glyph glyph-name="obreve" unicode="&#x14f;" horiz-adv-x="794" 
d="M525 576h-256c-49 0 -73 24 -73 73v51h90v-36c0 -20 10 -30 30 -30h162c20 0 30 10 30 30v36h90v-51c0 -49 -24 -73 -73 -73zM574 0h-354c-117 0 -166 47 -166 166v196c0 119 49 166 166 166h354c117 0 166 -47 166 -166v-196c0 -119 -49 -166 -166 -166zM264 98h266
c65 0 84 20 84 85v162c0 65 -19 85 -84 85h-266c-65 0 -84 -20 -84 -85v-162c0 -65 19 -85 84 -85z" />
    <glyph glyph-name="Ohungarumlaut" unicode="&#x150;" horiz-adv-x="924" 
d="M511 872l-120 -124h-106l94 124h132zM738 872l-120 -124h-106l95 124h131zM683 0h-442c-128 0 -186 58 -186 186v328c0 128 58 186 186 186h442c128 0 186 -58 186 -186v-328c0 -128 -58 -186 -186 -186zM287 110h350c73 0 100 27 100 100v280c0 73 -27 100 -100 100
h-350c-73 0 -100 -25 -100 -100v-280c0 -75 27 -100 100 -100z" />
    <glyph glyph-name="ohungarumlaut" unicode="&#x151;" horiz-adv-x="794" 
d="M446 700l-120 -124h-106l94 124h132zM673 700l-120 -124h-106l95 124h131zM574 0h-354c-117 0 -166 47 -166 166v196c0 119 49 166 166 166h354c117 0 166 -47 166 -166v-196c0 -119 -49 -166 -166 -166zM264 98h266c65 0 84 20 84 85v162c0 65 -19 85 -84 85h-266
c-65 0 -84 -20 -84 -85v-162c0 -65 19 -85 84 -85z" />
    <glyph glyph-name="OE" unicode="&#x152;" horiz-adv-x="1463" 
d="M857 314v-207h574v-107h-1190c-128 0 -186 58 -186 186v328c0 128 58 186 186 186h1180v-107h-564v-181h524v-98h-524zM285 109h442v482h-442c-73 0 -100 -27 -100 -100v-282c0 -73 27 -100 100 -100z" />
    <glyph glyph-name="oe" unicode="&#x153;" horiz-adv-x="1343" 
d="M804 528h319c117 0 166 -47 166 -166v-114h-550v-67c0 -65 19 -85 84 -85h278c49 0 68 17 68 68v23h120v-45c0 -97 -45 -142 -142 -142h-337c-67 0 -112 19 -135 56c-22 -37 -67 -56 -134 -56h-321c-117 0 -166 47 -166 166v196c0 119 49 166 166 166h327
c64 0 107 -18 129 -53c21 35 64 53 128 53zM739 354v-28h430v28c0 65 -20 85 -85 85h-261c-65 0 -84 -20 -84 -85zM614 183v162c0 65 -20 84 -85 84h-266c-65 0 -85 -19 -85 -84v-162c0 -65 20 -84 85 -84h266c65 0 85 19 85 84z" />
    <glyph glyph-name="Racute" unicode="&#x154;" horiz-adv-x="884" 
d="M506 872h141l-145 -124h-112zM644 268l214 -268h-155l-206 262h-301v-262h-132v700h598c117 0 166 -47 166 -166v-98c0 -119 -49 -166 -166 -166zM611 602h-415v-244h415c65 0 85 19 85 84v76c0 65 -20 84 -85 84z" />
    <glyph glyph-name="racute" unicode="&#x155;" horiz-adv-x="530" 
d="M331 700h141l-145 -124h-112zM394 528h120v-111h-155c-57 0 -100 -11 -130 -34l-40 -30v-353h-126v528h92l15 -78l16 12c34 28 65 46 92 54s65 12 116 12z" />
    <glyph glyph-name="Rcommaaccent" unicode="&#x156;" horiz-adv-x="884" 
d="M662 270l-18 -2l214 -268h-155l-206 262h-301v-262h-132v700h598c117 0 166 -47 166 -166v-98c0 -119 -49 -166 -166 -166zM611 602h-415v-244h415c65 0 85 19 85 84v76c0 65 -20 84 -85 84zM421 -114h-49v84h128v-35c0 -32 -3 -43 -23 -74l-34 -57h-65z" />
    <glyph glyph-name="rcommaaccent" unicode="&#x157;" horiz-adv-x="530" 
d="M394 528h120v-111h-155c-57 0 -100 -11 -130 -34l-40 -30v-353h-126v528h92l15 -78l16 12c34 28 65 46 92 54s65 12 116 12zM111 -114h-49v84h128v-35c0 -32 -3 -43 -23 -74l-34 -57h-65z" />
    <glyph glyph-name="Rcaron" unicode="&#x158;" horiz-adv-x="884" 
d="M503 798l-138 24h-14l-3 5l106 45l97 -27l-30 -47h-18zM644 268l214 -268h-155l-206 262h-301v-262h-132v700h598c117 0 166 -47 166 -166v-98c0 -119 -49 -166 -166 -166zM611 602h-415v-244h415c65 0 85 19 85 84v76c0 65 -20 84 -85 84z" />
    <glyph glyph-name="rcaron" unicode="&#x159;" horiz-adv-x="530" 
d="M328 626l-138 24h-14l-3 5l106 45l97 -27l-30 -47h-18zM394 528h120v-111h-155c-57 0 -100 -11 -130 -34l-40 -30v-353h-126v528h92l15 -78l16 12c34 28 65 46 92 54s65 12 116 12z" />
    <glyph glyph-name="Sacute" unicode="&#x15a;" horiz-adv-x="902" 
d="M656 872l-145 -124h-112l116 124h141zM55 142v63h126v-36c0 -49 19 -68 68 -68h400c49 0 68 19 68 68v57c0 49 -16 63 -68 68l-442 31c-100 8 -142 46 -142 142v91c0 97 45 142 142 142h484c97 0 142 -45 142 -142v-49h-126v22c0 49 -19 68 -68 68h-376
c-49 0 -68 -19 -68 -68v-34c0 -48 17 -63 68 -68l442 -30c100 -8 142 -46 142 -142v-115c0 -97 -45 -142 -142 -142h-508c-97 0 -142 45 -142 142z" />
    <glyph glyph-name="sacute" unicode="&#x15b;" horiz-adv-x="773" 
d="M591 700l-145 -124h-112l116 124h141zM54 116v50h120v-35c0 -32 12 -44 45 -44h331c32 0 45 12 45 44v42c0 31 -13 42 -45 45l-371 26c-77 6 -115 44 -115 115v54c0 75 42 115 115 115h410c73 0 116 -41 116 -116v-45h-120v30c0 32 -13 44 -45 44h-307
c-33 0 -45 -12 -45 -44v-17c0 -32 13 -43 45 -46l370 -26c77 -7 116 -45 116 -115v-78c0 -75 -43 -115 -116 -115h-434c-73 0 -115 41 -115 116z" />
    <glyph glyph-name="Scircumflex" unicode="&#x15c;" horiz-adv-x="902" 
d="M346 748h-98l138 124h130l138 -124h-98l-105 72zM55 142v63h126v-36c0 -49 19 -68 68 -68h400c49 0 68 19 68 68v57c0 49 -16 63 -68 68l-442 31c-100 8 -142 46 -142 142v91c0 97 45 142 142 142h484c97 0 142 -45 142 -142v-49h-126v22c0 49 -19 68 -68 68h-376
c-49 0 -68 -19 -68 -68v-34c0 -48 17 -63 68 -68l442 -30c100 -8 142 -46 142 -142v-115c0 -97 -45 -142 -142 -142h-508c-97 0 -142 45 -142 142z" />
    <glyph glyph-name="scircumflex" unicode="&#x15d;" horiz-adv-x="773" 
d="M281 576h-98l138 124h130l138 -124h-98l-105 72zM54 116v50h120v-35c0 -32 12 -44 45 -44h331c32 0 45 12 45 44v42c0 31 -13 42 -45 45l-371 26c-77 6 -115 44 -115 115v54c0 75 42 115 115 115h410c73 0 116 -41 116 -116v-45h-120v30c0 32 -13 44 -45 44h-307
c-33 0 -45 -12 -45 -44v-17c0 -32 13 -43 45 -46l370 -26c77 -7 116 -45 116 -115v-78c0 -75 -43 -115 -116 -115h-434c-73 0 -115 41 -115 116z" />
    <glyph glyph-name="Scedilla" unicode="&#x15e;" horiz-adv-x="902" 
d="M263 429l442 -30c100 -8 142 -46 142 -142v-115c0 -97 -45 -142 -142 -142h-239l-11 -30h86c37 0 52 -15 52 -52v-26c0 -37 -15 -52 -52 -52h-196v47h167c9 0 13 4 13 13v13c0 9 -4 13 -13 13h-117v22l19 52h-217c-97 0 -142 45 -142 142v63h126v-36c0 -49 19 -68 68 -68
h400c49 0 68 19 68 68v57c0 49 -16 63 -68 68l-442 31c-100 8 -142 46 -142 142v91c0 97 45 142 142 142h484c97 0 142 -45 142 -142v-49h-126v22c0 49 -19 68 -68 68h-376c-49 0 -68 -19 -68 -68v-34c0 -48 17 -63 68 -68z" />
    <glyph glyph-name="scedilla" unicode="&#x15f;" horiz-adv-x="773" 
d="M233 334l370 -26c77 -7 116 -45 116 -115v-78c0 -75 -43 -115 -116 -115h-202l-11 -30h86c37 0 52 -15 52 -52v-26c0 -37 -15 -52 -52 -52h-196v47h167c9 0 13 4 13 13v13c0 9 -4 13 -13 13h-117v22l19 52h-180c-73 0 -115 41 -115 116v50h120v-35c0 -32 12 -44 45 -44
h331c32 0 45 12 45 44v42c0 31 -13 42 -45 45l-371 26c-77 6 -115 44 -115 115v54c0 75 42 115 115 115h410c73 0 116 -41 116 -116v-45h-120v30c0 32 -13 44 -45 44h-307c-33 0 -45 -12 -45 -44v-17c0 -32 13 -43 45 -46z" />
    <glyph glyph-name="Scaron" unicode="&#x160;" horiz-adv-x="902" 
d="M530 798h-18l-138 24h-14l-3 5l106 45l97 -27zM55 142v63h126v-36c0 -49 19 -68 68 -68h400c49 0 68 19 68 68v57c0 49 -16 63 -68 68l-442 31c-100 8 -142 46 -142 142v91c0 97 45 142 142 142h484c97 0 142 -45 142 -142v-49h-126v22c0 49 -19 68 -68 68h-376
c-49 0 -68 -19 -68 -68v-34c0 -48 17 -63 68 -68l442 -30c100 -8 142 -46 142 -142v-115c0 -97 -45 -142 -142 -142h-508c-97 0 -142 45 -142 142z" />
    <glyph glyph-name="scaron" unicode="&#x161;" horiz-adv-x="773" 
d="M465 626h-18l-138 24h-14l-3 5l106 45l97 -27zM54 116v50h120v-35c0 -32 12 -44 45 -44h331c32 0 45 12 45 44v42c0 31 -13 42 -45 45l-371 26c-77 6 -115 44 -115 115v54c0 75 42 115 115 115h410c73 0 116 -41 116 -116v-45h-120v30c0 32 -13 44 -45 44h-307
c-33 0 -45 -12 -45 -44v-17c0 -32 13 -43 45 -46l370 -26c77 -7 116 -45 116 -115v-78c0 -75 -43 -115 -116 -115h-434c-73 0 -115 41 -115 116z" />
    <glyph glyph-name="uni0162" unicode="&#x162;" horiz-adv-x="800" 
d="M466 586v-586h-51l-11 -30h86c37 0 52 -15 52 -52v-26c0 -37 -15 -52 -52 -52h-196v47h167c9 0 13 4 13 13v13c0 9 -4 13 -13 13h-117v22l19 52h-29v586h-318v114h768v-114h-318z" />
    <glyph glyph-name="uni0163" unicode="&#x163;" horiz-adv-x="614" 
d="M588 528v-97h-298v-265c0 -51 17 -68 68 -68h230v-98h-232l-11 -30h86c37 0 52 -15 52 -52v-26c0 -37 -15 -52 -52 -52h-196v47h167c9 0 13 4 13 13v13c0 9 -4 13 -13 13h-117v22l19 52c-96 1 -140 45 -140 142v289h-148v97h148l25 120h101v-120h298z" />
    <glyph glyph-name="Tcaron" unicode="&#x164;" horiz-adv-x="800" 
d="M461 798l-138 24h-14l-3 5l106 45l97 -27l-30 -47h-18zM16 700h768v-114h-318v-586h-132v586h-318v114z" />
    <glyph glyph-name="tcaron" unicode="&#x165;" horiz-adv-x="624" 
d="M470 570h-69l42 82h-46v84h128v-35c0 -33 -3 -45 -22 -74zM588 528v-97h-298v-265c0 -51 17 -68 68 -68h230v-98h-282c-97 0 -142 43 -142 142v289h-148v97h148l25 120h101v-120h298z" />
    <glyph glyph-name="Tbar" unicode="&#x166;" horiz-adv-x="808" 
d="M784 700v-114h-318v-220h218v-80h-218v-286h-132v286h-210v80h210v220h-318v114h768z" />
    <glyph glyph-name="tbar" unicode="&#x167;" horiz-adv-x="613" 
d="M288 648v-209h299v-125h-299v-147c0 -49 17 -68 68 -68h231v-99h-281c-96 0 -142 45 -142 142v172h-148v125h148v89l25 120h99z" />
    <glyph glyph-name="Utilde" unicode="&#x168;" horiz-adv-x="897" 
d="M328 748h-77v74c0 33 17 50 50 50h99c31 0 42 -5 62 -25l42 -39c7 -7 15 -10 25 -10h24c10 0 15 5 15 14v60h77v-74c0 -33 -17 -50 -50 -50h-99c-31 0 -42 5 -62 25l-42 39c-7 7 -15 10 -25 10h-24c-10 0 -15 -5 -15 -14v-60zM654 0h-412c-128 0 -186 58 -186 186v514
h132v-488c0 -73 27 -100 100 -100h320c75 0 100 25 100 100v488h132v-514c0 -128 -58 -186 -186 -186z" />
    <glyph glyph-name="utilde" unicode="&#x169;" horiz-adv-x="798" 
d="M277 636v-60h-77v74c0 33 17 50 50 50h99c31 0 42 -5 62 -25l42 -39c7 -7 15 -10 25 -10h24c10 0 15 5 15 14v60h77v-74c0 -33 -17 -50 -50 -50h-99c-31 0 -42 5 -62 25l-42 39c-7 7 -15 10 -25 10h-24c-10 0 -15 -5 -15 -14zM609 528h126v-528h-104l-14 73l-9 -7
c-34 -28 -64 -46 -91 -54s-66 -12 -117 -12h-175c-117 0 -166 47 -166 166v362h125v-342c0 -65 20 -85 85 -85h170c57 0 100 11 130 34l40 30v363z" />
    <glyph glyph-name="Umacron" unicode="&#x16a;" horiz-adv-x="897" 
d="M660 778h-424v66h424v-66zM654 0h-412c-128 0 -186 58 -186 186v514h132v-488c0 -73 27 -100 100 -100h320c75 0 100 25 100 100v488h132v-514c0 -128 -58 -186 -186 -186z" />
    <glyph glyph-name="umacron" unicode="&#x16b;" horiz-adv-x="798" 
d="M185 672h424v-66h-424v66zM609 528h126v-528h-104l-14 73l-9 -7c-34 -28 -64 -46 -91 -54s-66 -12 -117 -12h-175c-117 0 -166 47 -166 166v362h125v-342c0 -65 20 -85 85 -85h170c57 0 100 11 130 34l40 30v363z" />
    <glyph glyph-name="Ubreve" unicode="&#x16c;" horiz-adv-x="897" 
d="M576 748h-256c-49 0 -73 24 -73 73v51h90v-36c0 -20 10 -30 30 -30h162c20 0 30 10 30 30v36h90v-51c0 -49 -24 -73 -73 -73zM654 0h-412c-128 0 -186 58 -186 186v514h132v-488c0 -73 27 -100 100 -100h320c75 0 100 25 100 100v488h132v-514c0 -128 -58 -186 -186 -186
z" />
    <glyph glyph-name="ubreve" unicode="&#x16d;" horiz-adv-x="798" 
d="M525 576h-256c-49 0 -73 24 -73 73v51h90v-36c0 -20 10 -30 30 -30h162c20 0 30 10 30 30v36h90v-51c0 -49 -24 -73 -73 -73zM609 528h126v-528h-104l-14 73l-9 -7c-34 -28 -64 -46 -91 -54s-66 -12 -117 -12h-175c-117 0 -166 47 -166 166v362h125v-342
c0 -65 20 -85 85 -85h170c57 0 100 11 130 34l40 30v363z" />
    <glyph glyph-name="Uring" unicode="&#x16e;" horiz-adv-x="897" 
d="M291 792v26c0 37 15 54 54 54h206c39 0 54 -17 54 -54v-26c0 -37 -15 -54 -54 -54h-206c-39 0 -54 17 -54 54zM346 812v-14c0 -16 4 -21 20 -21h164c16 0 20 5 20 21v14c0 16 -4 21 -20 21h-164c-16 0 -20 -5 -20 -21zM654 0h-412c-128 0 -186 58 -186 186v514h132v-488
c0 -73 27 -100 100 -100h320c75 0 100 25 100 100v488h132v-514c0 -128 -58 -186 -186 -186z" />
    <glyph glyph-name="uring" unicode="&#x16f;" horiz-adv-x="798" 
d="M500 566h-206c-37 0 -54 17 -54 54v26c0 37 17 54 54 54h206c37 0 54 -17 54 -54v-26c0 -37 -17 -54 -54 -54zM295 640v-14c0 -16 4 -21 20 -21h164c16 0 20 5 20 21v14c0 16 -4 21 -20 21h-164c-16 0 -20 -5 -20 -21zM609 528h126v-528h-104l-14 73l-9 -7
c-34 -28 -64 -46 -91 -54s-66 -12 -117 -12h-175c-117 0 -166 47 -166 166v362h125v-342c0 -65 20 -85 85 -85h170c57 0 100 11 130 34l40 30v363z" />
    <glyph glyph-name="Uhungarumlaut" unicode="&#x170;" horiz-adv-x="897" 
d="M497 872l-120 -124h-106l94 124h132zM724 872l-120 -124h-106l95 124h131zM654 0h-412c-128 0 -186 58 -186 186v514h132v-488c0 -73 27 -100 100 -100h320c75 0 100 25 100 100v488h132v-514c0 -128 -58 -186 -186 -186z" />
    <glyph glyph-name="uhungarumlaut" unicode="&#x171;" horiz-adv-x="798" 
d="M314 700h132l-120 -124h-106zM542 700h131l-120 -124h-106zM609 528h126v-528h-104l-14 73l-9 -7c-34 -28 -64 -46 -91 -54s-66 -12 -117 -12h-175c-117 0 -166 47 -166 166v362h125v-342c0 -65 20 -85 85 -85h170c57 0 100 11 130 34l40 30v363z" />
    <glyph glyph-name="Uogonek" unicode="&#x172;" horiz-adv-x="897" 
d="M708 212v488h132v-514c0 -128 -58 -186 -186 -186h-109l-22 -12c-19 -9 -22 -17 -22 -34v-13c0 -23 8 -31 31 -31h137v-70h-170c-56 0 -80 24 -80 80v16c0 29 7 51 21 64h-198c-128 0 -186 58 -186 186v514h132v-488c0 -73 27 -100 100 -100h320c75 0 100 25 100 100z
" />
    <glyph glyph-name="uogonek" unicode="&#x173;" horiz-adv-x="796" 
d="M669 -90h99v-70h-132c-56 0 -80 24 -80 80v16c0 43 8 59 47 83l22 13l-8 41l-9 -7c-34 -28 -64 -46 -91 -54s-66 -12 -117 -12h-175c-117 0 -166 47 -166 166v362h125v-342c0 -65 20 -85 85 -85h170c57 0 100 11 130 34l40 30v363h126v-528h-55l-20 -12
c-19 -11 -22 -18 -22 -35v-12c0 -23 8 -31 31 -31z" />
    <glyph glyph-name="Wcircumflex" unicode="&#x174;" horiz-adv-x="1258" 
d="M734 748l-105 72l-105 -72h-98l138 124h130l138 -124h-98zM900 161l216 539h140l-295 -700h-115l-217 526l-217 -526h-115l-295 700h147l215 -540l217 540h101z" />
    <glyph glyph-name="wcircumflex" unicode="&#x175;" horiz-adv-x="1058" 
d="M634 576l-105 72l-105 -72h-98l138 124h130l138 -124h-98zM754 140l166 388h132l-244 -528h-107l-171 387l-171 -387h-109l-244 528h137l168 -387l172 387h97z" />
    <glyph glyph-name="Ycircumflex" unicode="&#x176;" horiz-adv-x="856" 
d="M533 748l-105 72l-105 -72h-98l138 124h130l138 -124h-98zM704 700h156l-366 -443v-257h-132v257l-366 443h163l273 -340z" />
    <glyph glyph-name="ycircumflex" unicode="&#x177;" horiz-adv-x="758" 
d="M484 576l-105 72l-105 -72h-98l138 124h130l138 -124h-98zM381 122l231 406h142l-328 -540c-36 -59 -71 -99 -106 -119c-35 -19 -88 -29 -157 -29h-109v98h120c37 0 65 5 84 15c19 11 37 32 56 64l-310 511h147z" />
    <glyph glyph-name="Ydieresis" unicode="&#x178;" horiz-adv-x="856" 
d="M264 848h102v-88h-102v88zM490 848h102v-88h-102v88zM704 700h156l-366 -443v-257h-132v257l-366 443h163l273 -340z" />
    <glyph glyph-name="Zacute" unicode="&#x179;" horiz-adv-x="872" 
d="M641 872l-145 -124h-112l116 124h141zM830 0h-788v88l573 502h-553v110h768v-88l-573 -502h573v-110z" />
    <glyph glyph-name="zacute" unicode="&#x17a;" horiz-adv-x="758" 
d="M584 700l-145 -124h-112l116 124h141zM718 0h-678v74l470 360h-450v94h658v-74l-470 -360h470v-94z" />
    <glyph glyph-name="Zdotaccent" unicode="&#x17b;" horiz-adv-x="872" 
d="M499 760h-127v88h127v-88zM830 0h-788v88l573 502h-553v110h768v-88l-573 -502h573v-110z" />
    <glyph glyph-name="zdotaccent" unicode="&#x17c;" horiz-adv-x="758" 
d="M442 588h-127v88h127v-88zM718 0h-678v74l470 360h-450v94h658v-74l-470 -360h470v-94z" />
    <glyph glyph-name="Zcaron" unicode="&#x17d;" horiz-adv-x="872" 
d="M515 798h-18l-138 24h-14l-3 5l106 45l97 -27zM830 0h-788v88l573 502h-553v110h768v-88l-573 -502h573v-110z" />
    <glyph glyph-name="zcaron" unicode="&#x17e;" horiz-adv-x="758" 
d="M458 626h-18l-138 24h-14l-3 5l106 45l97 -27zM718 0h-678v74l470 360h-450v94h658v-74l-470 -360h470v-94z" />
    <glyph glyph-name="florin" unicode="&#x192;" horiz-adv-x="784" 
d="M736 594h-149c-72 0 -97 -25 -106 -100l-17 -161h252v-86h-261l-24 -221c-15 -131 -67 -186 -192 -186h-191v106h149c72 0 97 25 106 100l21 201h-256v86h266l19 181c15 131 67 186 192 186h191v-106z" />
    <glyph glyph-name="Aringacute" unicode="&#x1fa;" horiz-adv-x="923" 
d="M925 0h-148l-83 156h-468l-83 -156h-141l371 666h-13c-37 0 -54 17 -54 54v26c0 37 17 54 54 54h69l60 72h136l-78 -72h19c37 0 54 -17 54 -54v-26c0 -37 -17 -54 -54 -54h-11zM361 740v-14c0 -16 4 -21 20 -21h164c16 0 20 5 20 21v14c0 16 -4 21 -20 21h-164
c-16 0 -20 -5 -20 -21zM460 597l-180 -340h361z" />
    <glyph glyph-name="aringacute" unicode="&#x1fb;" horiz-adv-x="788" 
d="M557 528h6c117 0 166 -47 166 -166v-362h-102l-14 71l-17 -13c-31 -25 -57 -41 -80 -48s-58 -10 -105 -10h-233c-83 0 -124 41 -124 124v55c0 83 41 124 124 124h427v52c0 64 -21 84 -86 84h-253c-51 0 -68 -17 -68 -68v-19h-120v34c0 97 46 142 142 142h27
c-1 8 -2 15 -2 20v26c0 37 15 54 54 54h69l60 72h136l-78 -72h19c39 0 54 -17 54 -54v-26c0 -5 -1 -12 -2 -20zM300 568v-14c0 -16 4 -21 20 -21h164c16 0 20 5 20 21v14c0 16 -4 21 -20 21h-164c-16 0 -20 -5 -20 -21zM559 114l46 34v83h-366c-45 0 -61 -16 -61 -61v-26
c0 -45 16 -61 61 -61h210c45 0 81 10 110 31z" />
    <glyph glyph-name="AEacute" unicode="&#x1fc;" horiz-adv-x="1280" 
d="M752 872h141l-145 -124h-112zM746 314l109 -207h393v-107h-484l-78 154h-461l-82 -154h-141l390 700h846v-107h-639l95 -181h504v-98h-452zM461 597l-183 -343h357z" />
    <glyph glyph-name="aeacute" unicode="&#x1fd;" horiz-adv-x="1333" 
d="M731 700h141l-145 -124h-112zM794 528h319c117 0 166 -47 166 -166v-114h-550v-67c0 -65 19 -85 84 -85h278c49 0 68 17 68 68v23h120v-45c0 -97 -45 -142 -142 -142h-351c-76 0 -125 23 -148 68l-12 -10c-31 -25 -57 -41 -80 -48s-58 -10 -105 -10h-263
c-83 0 -124 41 -124 124v55c0 83 41 124 124 124h427v52c0 64 -21 84 -86 84h-253c-51 0 -68 -17 -68 -68v-19h-120v34c0 97 46 142 142 142h319c62 0 105 -17 128 -51c23 34 65 51 127 51zM729 354v-28h430v28c0 65 -20 85 -85 85h-261c-65 0 -84 -20 -84 -85zM558 114
l46 34v83h-365c-45 0 -61 -16 -61 -61v-26c0 -45 16 -61 61 -61h210c44 0 80 10 109 31z" />
    <glyph glyph-name="Oslashacute" unicode="&#x1fe;" horiz-adv-x="924" 
d="M526 872h141l-145 -124h-112zM899 730l-76 -74c31 -30 46 -77 46 -142v-328c0 -128 -58 -186 -186 -186h-442c-32 0 -59 3 -81 10l-41 -40h-94l76 74c-31 30 -46 77 -46 142v328c0 128 58 186 186 186h442c32 0 59 -3 81 -10l41 40h94zM182 494v-288c0 -31 5 -53 15 -68
l467 455c-5 1 -12 1 -22 1h-360c-73 0 -100 -27 -100 -100zM742 206v288c0 31 -5 53 -15 68l-467 -455c5 -1 12 -1 22 -1h360c73 0 100 27 100 100z" />
    <glyph glyph-name="oslashacute" unicode="&#x1ff;" horiz-adv-x="794" 
d="M461 700h141l-145 -124h-112zM770 564l-75 -69c30 -25 45 -70 45 -133v-196c0 -119 -49 -166 -166 -166h-354c-20 0 -40 2 -60 5l-45 -41h-91l75 69c-30 25 -45 70 -45 133v196c0 119 49 166 166 166h354c20 0 40 -2 60 -5l45 41h91zM172 351v-174c0 -31 5 -52 15 -64
l352 323h-1h-282c-65 0 -84 -20 -84 -85zM622 177v174c0 31 -5 52 -15 64l-352 -323h1h282c65 0 84 20 84 85z" />
    <glyph glyph-name="Scommaaccent" unicode="&#x218;" horiz-adv-x="902" 
d="M55 142v63h126v-36c0 -49 19 -68 68 -68h400c49 0 68 19 68 68v57c0 49 -16 63 -68 68l-442 31c-100 8 -142 46 -142 142v91c0 97 45 142 142 142h484c97 0 142 -45 142 -142v-49h-126v22c0 49 -19 68 -68 68h-376c-49 0 -68 -19 -68 -68v-34c0 -48 17 -63 68 -68
l442 -30c100 -8 142 -46 142 -142v-115c0 -97 -45 -142 -142 -142h-508c-97 0 -142 45 -142 142zM458 -196h-65l43 82h-49v84h128v-35c0 -32 -3 -43 -23 -74z" />
    <glyph glyph-name="scommaaccent" unicode="&#x219;" horiz-adv-x="773" 
d="M54 116v50h120v-35c0 -32 12 -44 45 -44h331c32 0 45 12 45 44v42c0 31 -13 42 -45 45l-371 26c-77 6 -115 44 -115 115v54c0 75 42 115 115 115h410c73 0 116 -41 116 -116v-45h-120v30c0 32 -13 44 -45 44h-307c-33 0 -45 -12 -45 -44v-17c0 -32 13 -43 45 -46l370 -26
c77 -7 116 -45 116 -115v-78c0 -75 -43 -115 -116 -115h-434c-73 0 -115 41 -115 116zM393 -196h-65l43 82h-49v84h128v-35c0 -32 -3 -43 -23 -74z" />
    <glyph glyph-name="uni021A" unicode="&#x21a;" horiz-adv-x="800" 
d="M16 700h768v-114h-318v-586h-132v586h-318v114zM385 -114h-49v84h128v-35c0 -32 -3 -43 -23 -74l-34 -57h-65z" />
    <glyph glyph-name="uni021B" unicode="&#x21b;" horiz-adv-x="614" 
d="M588 528v-97h-298v-265c0 -51 17 -68 68 -68h230v-98h-282c-97 0 -142 43 -142 142v289h-148v97h148l25 120h101v-120h298zM326 -114h-49v84h128v-35c0 -32 -3 -43 -23 -74l-34 -57h-65z" />
    <glyph glyph-name="uni0237" unicode="&#x237;" horiz-adv-x="302" 
d="M92 -160h-154v94h101c49 0 68 17 68 68v526h127v-546c0 -99 -45 -142 -142 -142z" />
    <glyph glyph-name="circumflex" unicode="&#x2c6;" horiz-adv-x="502" 
d="M162 576h-98l138 124h130l138 -124h-98l-105 72z" />
    <glyph glyph-name="caron" unicode="&#x2c7;" horiz-adv-x="526" 
d="M346 626h-18l-138 24h-14l-3 5l106 45l97 -27z" />
    <glyph glyph-name="breve" unicode="&#x2d8;" horiz-adv-x="498" 
d="M393 576h-256c-49 0 -73 24 -73 73v51h90v-36c0 -20 10 -30 30 -30h162c20 0 30 10 30 30v36h90v-51c0 -49 -24 -73 -73 -73z" />
    <glyph glyph-name="dotaccent" unicode="&#x2d9;" horiz-adv-x="251" 
d="M191 588h-127v88h127v-88z" />
    <glyph glyph-name="ring" unicode="&#x2da;" horiz-adv-x="386" 
d="M52 620v26c0 37 17 54 54 54h206c37 0 54 -17 54 -54v-26c0 -37 -17 -54 -54 -54h-206c-37 0 -54 17 -54 54zM107 640v-14c0 -16 4 -21 20 -21h164c16 0 20 5 20 21v14c0 16 -4 21 -20 21h-164c-16 0 -20 -5 -20 -21z" />
    <glyph glyph-name="ogonek" unicode="&#x2db;" horiz-adv-x="350" 
d="M207 9l-39 -21c-19 -9 -22 -17 -22 -34v-13c0 -23 8 -31 31 -31h137v-70h-170c-56 0 -80 24 -80 80v16c0 44 7 59 47 83l50 27z" />
    <glyph glyph-name="tilde" unicode="&#x2dc;" horiz-adv-x="498" 
d="M141 576h-77v74c0 33 17 50 50 50h99c31 0 42 -5 62 -25l42 -39c7 -7 15 -10 25 -10h24c10 0 15 5 15 14v60h77v-74c0 -33 -17 -50 -50 -50h-99c-31 0 -42 5 -62 25l-42 39c-7 7 -15 10 -25 10h-24c-10 0 -15 -5 -15 -14v-60z" />
    <glyph glyph-name="hungarumlaut" unicode="&#x2dd;" horiz-adv-x="553" 
d="M286 700l-120 -124h-106l94 124h132zM513 700l-120 -124h-106l95 124h131z" />
    <glyph glyph-name="gravecomb" unicode="&#x300;" horiz-adv-x="0" 
d="M-64 576h-111l-146 124h142z" />
    <glyph glyph-name="acutecomb" unicode="&#x301;" horiz-adv-x="0" 
d="M-64 700l-145 -124h-112l116 124h141z" />
    <glyph glyph-name="uni0302" unicode="&#x302;" horiz-adv-x="0" 
d="M-372 576h-98l138 124h130l138 -124h-98l-105 72z" />
    <glyph glyph-name="tildecomb" unicode="&#x303;" horiz-adv-x="0" 
d="M-381 576h-77v74c0 33 17 50 50 50h99c31 0 42 -5 62 -25l42 -39c7 -7 15 -10 25 -10h24c10 0 15 5 15 14v60h77v-74c0 -33 -17 -50 -50 -50h-99c-31 0 -42 5 -62 25l-42 39c-7 7 -15 10 -25 10h-24c-10 0 -15 -5 -15 -14v-60z" />
    <glyph glyph-name="uni0304" unicode="&#x304;" horiz-adv-x="0" 
d="M-64 606h-424v66h424v-66z" />
    <glyph glyph-name="uni0306" unicode="&#x306;" horiz-adv-x="0" 
d="M-137 576h-256c-49 0 -73 24 -73 73v51h90v-36c0 -20 10 -30 30 -30h162c20 0 30 10 30 30v36h90v-51c0 -49 -24 -73 -73 -73z" />
    <glyph glyph-name="uni0307" unicode="&#x307;" horiz-adv-x="0" 
d="M-64 588h-127v88h127v-88z" />
    <glyph glyph-name="uni0308" unicode="&#x308;" horiz-adv-x="0" 
d="M-290 588h-102v88h102v-88zM-64 588h-102v88h102v-88z" />
    <glyph glyph-name="uni030A" unicode="&#x30a;" horiz-adv-x="0" 
d="M-366 620v26c0 37 17 54 54 54h206c37 0 54 -17 54 -54v-26c0 -37 -17 -54 -54 -54h-206c-37 0 -54 17 -54 54zM-311 640v-14c0 -16 4 -21 20 -21h164c16 0 20 5 20 21v14c0 16 -4 21 -20 21h-164c-16 0 -20 -5 -20 -21z" />
    <glyph glyph-name="uni030B" unicode="&#x30b;" horiz-adv-x="0" 
d="M-283 700l-120 -124h-106l94 124h132zM-56 700l-120 -124h-106l95 124h131z" />
    <glyph glyph-name="uni030C" unicode="&#x30c;" horiz-adv-x="0" 
d="M-188 626h-18l-138 24h-14l-3 5l106 45l97 -27z" />
    <glyph glyph-name="uni0312" unicode="&#x312;" horiz-adv-x="0" 
d="M-133 742h65l-41 -82h45v-84h-124v35c0 33 3 45 22 74z" />
    <glyph glyph-name="uni0326" unicode="&#x326;" horiz-adv-x="0" 
d="M-121 -196h-65l43 82h-49v84h128v-35c0 -32 -3 -43 -23 -74z" />
    <glyph glyph-name="uni0327" unicode="&#x327;" horiz-adv-x="0" 
d="M-104 -160h-196v47h167c9 0 13 4 13 13v13c0 9 -4 13 -13 13h-117v22l26 72h52l-18 -50h86c37 0 52 -15 52 -52v-26c0 -37 -15 -52 -52 -52z" />
    <glyph glyph-name="uni0328" unicode="&#x328;" horiz-adv-x="0" 
d="M-171 9l-39 -21c-19 -9 -22 -17 -22 -34v-13c0 -23 8 -31 31 -31h137v-70h-170c-56 0 -80 24 -80 80v16c0 44 7 59 47 83l50 27z" />
    <glyph glyph-name="uni0335" unicode="&#x335;" horiz-adv-x="0" 
d="M-480 314v80h440v-80h-440z" />
    <glyph glyph-name="uni0336" unicode="&#x336;" horiz-adv-x="0" 
d="M-896 314v80h856v-80h-856z" />
    <glyph glyph-name="uni0337" unicode="&#x337;" horiz-adv-x="0" 
d="M-466 310v80l426 60v-80z" />
    <glyph glyph-name="uni0338" unicode="&#x338;" horiz-adv-x="0" 
d="M-624 -30l538 600h86l-538 -600h-86z" />
    <glyph glyph-name="uni0394" unicode="&#x394;" horiz-adv-x="928" 
d="M391 700h146l389 -700h-924zM461 594l-262 -492h523z" />
    <glyph glyph-name="uni03A9" unicode="&#x3a9;" horiz-adv-x="922" 
d="M634 113v-12h243v-101h-346v188h106c73 0 100 27 100 100v203c0 73 -27 100 -100 100h-352c-73 0 -100 -27 -100 -100v-203c0 -73 27 -100 100 -100h106v-188h-346v101h243v12h-59c-120 0 -174 54 -174 174v227c0 128 58 186 186 186h440c128 0 186 -58 186 -186v-227
c0 -120 -54 -174 -174 -174h-59z" />
    <glyph glyph-name="uni03BC" unicode="&#x3bc;" horiz-adv-x="849" 
d="M793 98h40v-98h-92c-65 0 -105 24 -120 73l-9 -7c-34 -28 -64 -46 -91 -54s-65 -12 -116 -12h-173c-17 0 -33 1 -47 3v-163h-122v688h126v-342c0 -65 20 -85 85 -85h170c55 0 99 11 130 34l40 30v363h125v-376c0 -40 14 -54 54 -54z" />
    <glyph glyph-name="pi" unicode="&#x3c0;" horiz-adv-x="884" 
d="M858 528v-97h-124v-265c0 -51 17 -68 68 -68h56v-98h-108c-97 0 -142 43 -142 142v289h-362v-431h-126v431h-104v97h842z" />
    <glyph glyph-name="uni0401" unicode="&#x401;" horiz-adv-x="801" 
d="M236 848h102v-88h-102v88zM462 848h102v-88h-102v88zM195 314v-207h574v-107h-705v700h695v-107h-564v-181h524v-98h-524z" />
    <glyph glyph-name="uni0403" unicode="&#x403;" horiz-adv-x="736" 
d="M432 872h141l-145 -124h-112zM64 700h656v-114h-524v-586h-132v700z" />
    <glyph glyph-name="uni0405" unicode="&#x405;" horiz-adv-x="902" 
d="M55 142v63h126v-36c0 -49 19 -68 68 -68h400c49 0 68 19 68 68v57c0 49 -16 63 -68 68l-442 31c-100 8 -142 46 -142 142v91c0 97 45 142 142 142h484c97 0 142 -45 142 -142v-49h-126v22c0 49 -19 68 -68 68h-376c-49 0 -68 -19 -68 -68v-34c0 -48 17 -63 68 -68
l442 -30c100 -8 142 -46 142 -142v-115c0 -97 -45 -142 -142 -142h-508c-97 0 -142 45 -142 142z" />
    <glyph glyph-name="uni0406" unicode="&#x406;" horiz-adv-x="272" 
d="M69 0v700h134v-700h-134z" />
    <glyph glyph-name="uni0407" unicode="&#x407;" horiz-adv-x="272" 
d="M74 760h-102v88h102v-88zM300 760h-102v88h102v-88zM69 0v700h134v-700h-134z" />
    <glyph glyph-name="uni0408" unicode="&#x408;" horiz-adv-x="820" 
d="M578 0h-360c-128 0 -186 58 -186 186v82h128v-60c0 -73 27 -100 100 -100h272c73 0 100 27 100 100v492h132v-514c0 -128 -58 -186 -186 -186z" />
    <glyph glyph-name="uni040C" unicode="&#x40c;" horiz-adv-x="858" 
d="M430 872h141l-145 -124h-112zM368 362l484 -362h-211l-446 344v-344h-131v700h131v-327l441 327h212z" />
    <glyph glyph-name="uni040E" unicode="&#x40e;" horiz-adv-x="856" 
d="M556 748h-256c-49 0 -73 24 -73 73v51h90v-36c0 -20 10 -30 30 -30h162c20 0 30 10 30 30v36h90v-51c0 -49 -24 -73 -73 -73zM431 330l273 370h156l-537 -700h-154l182 237l-355 463h163z" />
    <glyph glyph-name="uni0410" unicode="&#x410;" horiz-adv-x="920" 
d="M925 0h-148l-83 156h-468l-83 -156h-141l390 700h144zM460 597l-180 -340h361z" />
    <glyph glyph-name="uni0411" unicode="&#x411;" horiz-adv-x="885" 
d="M695 0h-631v700h713v-101h-582v-186h500c97 0 142 -43 142 -142v-129c0 -97 -46 -142 -142 -142zM195 322v-222h443c51 0 68 17 68 68v86c0 51 -17 68 -68 68h-443z" />
    <glyph glyph-name="uni0412" unicode="&#x412;" horiz-adv-x="885" 
d="M754 367c55 -14 83 -57 83 -128v-97c0 -97 -46 -142 -142 -142h-631v700h611c96 0 142 -45 142 -142v-69c0 -63 -21 -103 -63 -122zM618 600h-423v-192h423c51 0 68 17 68 68v56c0 51 -17 68 -68 68zM706 168v83c0 51 -17 68 -68 68h-443v-219h443c51 0 68 17 68 68z" />
    <glyph glyph-name="uni0413" unicode="&#x413;" horiz-adv-x="736" 
d="M64 700h656v-114h-524v-586h-132v700z" />
    <glyph glyph-name="uni0414" unicode="&#x414;" horiz-adv-x="958" 
d="M858 700v-590h84v-230h-124v120h-678v-120h-124v230h44c64 0 82 18 85 82l33 508h680zM305 586l-26 -382c-3 -41 -10 -72 -20 -94h467v476h-421z" />
    <glyph glyph-name="uni0415" unicode="&#x415;" horiz-adv-x="801" 
d="M195 314v-207h574v-107h-705v700h695v-107h-564v-181h524v-98h-524z" />
    <glyph glyph-name="uni0416" unicode="&#x416;" horiz-adv-x="1456" 
d="M967 362l483 -362h-211l-445 344v-344h-132v344l-445 -344h-211l483 362l-479 338h212l440 -326v326h132v-326l440 326h212z" />
    <glyph glyph-name="uni0417" unicode="&#x417;" horiz-adv-x="901" 
d="M770 366c51 -16 77 -58 77 -127v-97c0 -97 -46 -142 -142 -142h-509c-96 0 -142 45 -142 142v95h127v-69c0 -51 17 -68 68 -68h399c51 0 68 17 68 68v81c0 51 -17 68 -68 68h-302v93h292c51 0 68 17 68 68v54c0 51 -17 68 -68 68h-379c-51 0 -68 -17 -68 -68v-61h-127v87
c0 97 46 142 142 142h489c96 0 142 -45 142 -142v-69c0 -65 -22 -106 -67 -123z" />
    <glyph glyph-name="uni0418" unicode="&#x418;" horiz-adv-x="932" 
d="M192 174l564 526h112v-700h-128v532l-570 -532h-106v700h128v-526z" />
    <glyph glyph-name="uni0419" unicode="&#x419;" horiz-adv-x="932" 
d="M594 748h-256c-49 0 -73 24 -73 73v51h90v-36c0 -20 10 -30 30 -30h162c20 0 30 10 30 30v36h90v-51c0 -49 -24 -73 -73 -73zM192 174l564 526h112v-700h-128v532l-570 -532h-106v700h128v-526z" />
    <glyph glyph-name="uni041A" unicode="&#x41a;" horiz-adv-x="858" 
d="M368 362l484 -362h-211l-446 344v-344h-131v700h131v-327l441 327h212z" />
    <glyph glyph-name="uni041B" unicode="&#x41b;" horiz-adv-x="910" 
d="M94 0h-78v110h32c64 0 82 18 85 82l33 508h680v-700h-132v586h-421l-28 -418c-8 -120 -55 -168 -171 -168z" />
    <glyph glyph-name="uni041C" unicode="&#x41c;" horiz-adv-x="1040" 
d="M523 261l341 439h112v-700h-126v506l-294 -372h-72l-294 372v-506h-126v700h117z" />
    <glyph glyph-name="uni041D" unicode="&#x41d;" horiz-adv-x="912" 
d="M716 423v277h132v-700h-132v309h-520v-309h-132v700h132v-277h520z" />
    <glyph glyph-name="uni041E" unicode="&#x41e;" horiz-adv-x="924" 
d="M683 0h-442c-128 0 -186 58 -186 186v328c0 128 58 186 186 186h442c128 0 186 -58 186 -186v-328c0 -128 -58 -186 -186 -186zM287 110h350c73 0 100 27 100 100v280c0 73 -27 100 -100 100h-350c-73 0 -100 -25 -100 -100v-280c0 -75 27 -100 100 -100z" />
    <glyph glyph-name="uni041F" unicode="&#x41f;" horiz-adv-x="912" 
d="M196 0h-132v700h784v-700h-132v586h-520v-586z" />
    <glyph glyph-name="uni0420" unicode="&#x420;" horiz-adv-x="860" 
d="M196 0h-132v700h598c117 0 166 -47 166 -166v-128c0 -119 -49 -166 -166 -166h-466v-240zM196 598v-260h415c65 0 85 19 85 84v92c0 65 -20 84 -85 84h-415z" />
    <glyph glyph-name="uni0421" unicode="&#x421;" horiz-adv-x="896" 
d="M659 0h-418c-128 0 -186 58 -186 186v328c0 128 58 186 186 186h418c128 0 186 -58 186 -186v-74h-128v52c0 73 -27 100 -100 100h-330c-73 0 -100 -27 -100 -100v-284c0 -73 27 -100 100 -100h330c73 0 100 27 100 100v61h128v-83c0 -128 -58 -186 -186 -186z" />
    <glyph glyph-name="uni0422" unicode="&#x422;" horiz-adv-x="800" 
d="M16 700h768v-114h-318v-586h-132v586h-318v114z" />
    <glyph glyph-name="uni0423" unicode="&#x423;" horiz-adv-x="856" 
d="M431 330l273 370h156l-537 -700h-154l182 237l-355 463h163z" />
    <glyph glyph-name="uni0424" unicode="&#x424;" horiz-adv-x="1162" 
d="M643 654h278c128 0 186 -58 186 -186v-236c0 -128 -58 -186 -186 -186h-278v-86h-124v86h-278c-128 0 -186 58 -186 186v236c0 128 58 186 186 186h278v86h124v-86zM287 145h232v410h-232c-73 0 -100 -27 -100 -100v-210c0 -73 27 -100 100 -100zM975 245v210
c0 73 -27 100 -100 100h-232v-410h232c73 0 100 27 100 100z" />
    <glyph glyph-name="uni0425" unicode="&#x425;" horiz-adv-x="875" 
d="M167 0h-161l344 356l-334 344h171l255 -274l253 274h164l-334 -344l344 -356h-171l-264 286z" />
    <glyph glyph-name="uni0426" unicode="&#x426;" horiz-adv-x="948" 
d="M808 0h-744v700h132v-586h520v586h132v-586h84v-234h-124v120z" />
    <glyph glyph-name="uni0427" unicode="&#x427;" horiz-adv-x="868" 
d="M804 0h-132v252h-474c-117 0 -166 47 -166 166v282h132v-250c0 -65 20 -84 85 -84h423v334h132v-700z" />
    <glyph glyph-name="uni0428" unicode="&#x428;" horiz-adv-x="1360" 
d="M1296 0h-1232v700h132v-586h418v586h132v-586h418v586h132v-700z" />
    <glyph glyph-name="uni0429" unicode="&#x429;" horiz-adv-x="1396" 
d="M1256 0h-1192v700h132v-586h418v586h132v-586h418v586h132v-586h84v-234h-124v120z" />
    <glyph glyph-name="uni042A" unicode="&#x42a;" horiz-adv-x="1038" 
d="M234 590h-218v110h350v-240h474c117 0 166 -47 166 -166v-128c0 -119 -49 -166 -166 -166h-606v590zM366 362v-260h423c65 0 85 19 85 84v92c0 65 -20 84 -85 84h-423z" />
    <glyph glyph-name="uni042B" unicode="&#x42b;" horiz-adv-x="1132" 
d="M64 0v700h132v-240h466c117 0 166 -47 166 -166v-128c0 -119 -49 -166 -166 -166h-598zM929 0v700h134v-700h-134zM611 362h-415v-260h415c65 0 85 19 85 84v92c0 65 -20 84 -85 84z" />
    <glyph glyph-name="uni042C" unicode="&#x42c;" horiz-adv-x="860" 
d="M64 0v700h132v-240h466c117 0 166 -47 166 -166v-128c0 -119 -49 -166 -166 -166h-598zM611 362h-415v-260h415c65 0 85 19 85 84v92c0 65 -20 84 -85 84z" />
    <glyph glyph-name="uni042D" unicode="&#x42d;" horiz-adv-x="910" 
d="M238 700h432c128 0 186 -58 186 -186v-328c0 -128 -58 -186 -186 -186h-432c-128 0 -186 58 -186 186v83h128v-69c0 -73 27 -100 100 -100h344c73 0 100 27 100 100v118h-364v85h364v97c0 73 -27 100 -100 100h-344c-73 0 -100 -27 -100 -100v-60h-128v74
c0 128 58 186 186 186z" />
    <glyph glyph-name="uni042E" unicode="&#x42e;" horiz-adv-x="1355" 
d="M672 700h442c128 0 186 -58 186 -186v-328c0 -128 -58 -186 -186 -186h-442c-128 0 -186 58 -186 186v123h-290v-309h-132v700h132v-278h290v92c0 128 58 186 186 186zM1168 210v280c0 73 -27 100 -100 100h-350c-73 0 -100 -27 -100 -100v-280c0 -73 27 -100 100 -100
h350c73 0 100 27 100 100z" />
    <glyph glyph-name="uni042F" unicode="&#x42f;" horiz-adv-x="884" 
d="M222 700h598v-700h-132v262h-301l-206 -262h-155l214 268l-18 2c-117 0 -166 47 -166 166v98c0 119 49 166 166 166zM273 358h415v244h-415c-65 0 -85 -19 -85 -84v-76c0 -65 20 -84 85 -84z" />
    <glyph glyph-name="uni0430" unicode="&#x430;" horiz-adv-x="785" 
d="M220 528h343c117 0 166 -47 166 -166v-362h-102l-14 71l-17 -13c-31 -25 -57 -41 -80 -48s-58 -10 -105 -10h-233c-83 0 -124 41 -124 124v55c0 83 41 124 124 124h427v52c0 64 -21 84 -86 84h-253c-51 0 -68 -17 -68 -68v-19h-120v34c0 97 46 142 142 142zM559 114
l46 34v83h-366c-45 0 -61 -16 -61 -61v-26c0 -45 16 -61 61 -61h210c45 0 81 10 110 31z" />
    <glyph glyph-name="uni0431" unicode="&#x431;" horiz-adv-x="794" 
d="M269 458h329c97 0 142 -43 142 -142v-174c0 -97 -46 -142 -142 -142h-401c-96 0 -142 45 -142 142v359c0 127 57 180 186 188l479 21v-97l-461 -22c-77 -4 -104 -30 -104 -106v-74c19 31 57 47 114 47zM616 164v133c0 49 -19 68 -68 68h-301c-49 0 -68 -19 -68 -68v-133
c0 -49 19 -68 68 -68h301c51 0 68 17 68 68z" />
    <glyph glyph-name="uni0432" unicode="&#x432;" horiz-adv-x="796" 
d="M672 277c41 -11 61 -43 61 -97v-73c0 -73 -34 -107 -107 -107h-561v528h546c73 0 107 -34 107 -107v-53c0 -48 -15 -78 -46 -91zM545 442h-356v-131h356c36 0 49 13 49 49v35c0 35 -13 47 -49 47zM609 133v54c0 36 -13 48 -48 48h-372v-149h372c35 0 48 12 48 47z" />
    <glyph glyph-name="uni0433" unicode="&#x433;" horiz-adv-x="639" 
d="M189 0h-126v528h560v-101h-434v-427z" />
    <glyph glyph-name="uni0434" unicode="&#x434;" horiz-adv-x="843" 
d="M747 528v-430h80v-218h-118v120h-575v-120h-118v218h37c56 0 73 18 77 74l24 356h593zM274 427l-18 -246c-3 -34 -10 -62 -19 -83h384v329h-347z" />
    <glyph glyph-name="uni0435" unicode="&#x435;" horiz-adv-x="783" 
d="M220 528h343c117 0 166 -47 166 -166v-114h-551v-67c0 -65 20 -85 85 -85h278c49 0 68 19 68 68v23h120v-45c0 -97 -46 -142 -142 -142h-367c-117 0 -166 47 -166 166v196c0 119 49 166 166 166zM178 354v-28h431v28c0 65 -21 85 -86 85h-260c-65 0 -85 -20 -85 -85z" />
    <glyph glyph-name="uni0436" unicode="&#x436;" horiz-adv-x="1257" 
d="M859 266l396 -266h-208l-356 249v-249h-125v249l-355 -249h-209l396 266l-390 262h207l351 -251v251h125v-251l352 251h206z" />
    <glyph glyph-name="uni0437" unicode="&#x437;" horiz-adv-x="783" 
d="M672 275c38 -12 57 -44 57 -95v-73c0 -73 -33 -107 -108 -107h-460c-73 0 -107 34 -107 107v69h120v-39c0 -37 14 -50 51 -50h328c39 0 52 13 52 50v46c0 37 -13 51 -52 51h-238v79h231c37 0 51 14 51 51v27c0 37 -14 50 -51 50h-314c-37 0 -50 -13 -50 -50v-33h-120v63
c0 73 34 107 107 107h445c73 0 108 -34 108 -107v-53c0 -48 -17 -79 -50 -93z" />
    <glyph glyph-name="uni0438" unicode="&#x438;" horiz-adv-x="816" 
d="M185 145l462 383h106v-528h-121v389l-469 -389h-100v528h122v-383z" />
    <glyph glyph-name="uni0439" unicode="&#x439;" horiz-adv-x="816" 
d="M536 576h-256c-49 0 -73 24 -73 73v51h90v-36c0 -20 10 -30 30 -30h162c20 0 30 10 30 30v36h90v-51c0 -49 -24 -73 -73 -73zM185 145l462 383h106v-528h-121v389l-469 -389h-100v528h122v-383z" />
    <glyph glyph-name="uni043A" unicode="&#x43a;" horiz-adv-x="754" 
d="M357 266l395 -266h-208l-356 250v-250h-125v528h125v-251l352 251h206z" />
    <glyph glyph-name="uni043B" unicode="&#x43b;" horiz-adv-x="797" 
d="M89 0h-73v98h25c55 0 72 18 76 74l24 356h593v-528h-126v427h-347l-19 -278c-8 -104 -52 -149 -153 -149z" />
    <glyph glyph-name="uni043C" unicode="&#x43c;" horiz-adv-x="902" 
d="M181 0h-118v528h112l278 -319l280 319h106v-528h-117v371l-241 -271h-59l-241 271v-371z" />
    <glyph glyph-name="uni043D" unicode="&#x43d;" horiz-adv-x="802" 
d="M614 322v206h125v-528h-125v222h-425v-222h-126v528h126v-206h425z" />
    <glyph glyph-name="uni043E" unicode="&#x43e;" horiz-adv-x="794" 
d="M574 0h-354c-117 0 -166 47 -166 166v196c0 119 49 166 166 166h354c117 0 166 -47 166 -166v-196c0 -119 -49 -166 -166 -166zM264 98h266c65 0 84 20 84 85v162c0 65 -19 85 -84 85h-266c-65 0 -84 -20 -84 -85v-162c0 -65 19 -85 84 -85z" />
    <glyph glyph-name="uni043F" unicode="&#x43f;" horiz-adv-x="802" 
d="M189 0h-126v528h676v-528h-125v427h-425v-427z" />
    <glyph glyph-name="uni0440" unicode="&#x440;" horiz-adv-x="803" 
d="M398 528h185c117 0 166 -47 166 -166v-196c0 -119 -49 -166 -166 -166h-185c-51 0 -89 4 -116 12s-58 26 -92 54l-1 1v-227h-126v688h104l14 -73l9 7c34 28 65 46 92 54s65 12 116 12zM624 183v162c0 65 -20 85 -85 85h-180c-55 0 -99 -12 -130 -35l-40 -30v-202l40 -30
c31 -23 75 -35 130 -35h180c65 0 85 20 85 85z" />
    <glyph glyph-name="uni0441" unicode="&#x441;" horiz-adv-x="770" 
d="M54 166v196c0 119 49 166 166 166h330c117 0 166 -47 166 -166v-41h-122v24c0 65 -19 85 -84 85h-246c-65 0 -84 -20 -84 -85v-162c0 -65 19 -85 84 -85h246c65 0 84 20 84 85v32h122v-49c0 -119 -49 -166 -166 -166h-330c-117 0 -166 47 -166 166z" />
    <glyph glyph-name="uni0442" unicode="&#x442;" horiz-adv-x="692" 
d="M283 427h-267v101h660v-101h-267v-427h-126v427z" />
    <glyph glyph-name="uni0443" unicode="&#x443;" horiz-adv-x="758" 
d="M381 122l231 406h142l-328 -540c-36 -59 -71 -99 -106 -119c-35 -19 -88 -29 -157 -29h-109v98h120c37 0 65 5 84 15c19 11 37 32 56 64l-310 511h147z" />
    <glyph glyph-name="uni0444" unicode="&#x444;" horiz-adv-x="1114" 
d="M618 528h276c117 0 166 -47 166 -166v-196c0 -119 -49 -166 -166 -166h-276v-160h-122v160h-276c-117 0 -166 47 -166 166v196c0 119 49 166 166 166h276v172h122v-172zM264 90h232v348h-232c-65 0 -84 -20 -84 -85v-178c0 -65 19 -85 84 -85zM934 175v178
c0 65 -19 85 -84 85h-232v-348h232c65 0 84 20 84 85z" />
    <glyph glyph-name="uni0445" unicode="&#x445;" horiz-adv-x="757" 
d="M165 0h-163l288 269l-278 259h171l199 -197l199 197h164l-278 -259l288 -269h-172l-208 207z" />
    <glyph glyph-name="uni0446" unicode="&#x446;" horiz-adv-x="835" 
d="M702 0h-639v528h126v-427h425v427h125v-427h80v-221h-117v120z" />
    <glyph glyph-name="uni0447" unicode="&#x447;" horiz-adv-x="755" 
d="M32 529l126 -1v-171c0 -51 17 -68 68 -68h340v239h126v-528h-126v188h-392c-97 0 -142 45 -142 142v199z" />
    <glyph glyph-name="uni0448" unicode="&#x448;" horiz-adv-x="1187" 
d="M1124 0h-1061v528h126v-427h342v427h125v-427h342v427h126v-528z" />
    <glyph glyph-name="uni0449" unicode="&#x449;" horiz-adv-x="1228" 
d="M1094 0h-1031v528h126v-427h346v427h125v-427h346v427h126v-427h80v-221h-118v120z" />
    <glyph glyph-name="uni044A" unicode="&#x44a;" horiz-adv-x="882" 
d="M190 427h-174v101h300v-179h396c96 0 138 -42 138 -138v-73c0 -96 -42 -138 -138 -138h-522v427zM316 266v-179h344c48 0 64 17 64 65v49c0 48 -16 65 -64 65h-344z" />
    <glyph glyph-name="uni044B" unicode="&#x44b;" horiz-adv-x="1017" 
d="M63 0v528h126v-179h396c96 0 138 -42 138 -138v-73c0 -96 -42 -138 -138 -138h-522zM949 0h-127v528h127v-528zM533 266h-344v-179h344c48 0 65 17 65 65v49c0 48 -17 65 -65 65z" />
    <glyph glyph-name="uni044C" unicode="&#x44c;" horiz-adv-x="755" 
d="M63 0v528h126v-179h396c96 0 138 -42 138 -138v-73c0 -96 -42 -138 -138 -138h-522zM533 266h-344v-179h344c48 0 65 17 65 65v49c0 48 -17 65 -65 65z" />
    <glyph glyph-name="uni044D" unicode="&#x44d;" horiz-adv-x="789" 
d="M220 528h349c117 0 166 -47 166 -166v-196c0 -119 -49 -166 -166 -166h-349c-117 0 -166 47 -166 166v48h120v-33c0 -65 20 -85 85 -85h266c65 0 86 20 86 85v55h-294v75h294v36c0 65 -21 85 -86 85h-266c-65 0 -85 -20 -85 -85v-26h-120v41c0 119 49 166 166 166z" />
    <glyph glyph-name="uni044E" unicode="&#x44e;" horiz-adv-x="1155" 
d="M581 528h354c117 0 166 -47 166 -166v-196c0 -119 -49 -166 -166 -166h-354c-117 0 -166 47 -166 166v56h-226v-222h-126v528h126v-206h226v40c0 119 49 166 166 166zM976 183v162c0 65 -20 85 -85 85h-265c-65 0 -85 -20 -85 -85v-162c0 -65 20 -85 85 -85h265
c65 0 85 20 85 85z" />
    <glyph glyph-name="uni044F" unicode="&#x44f;" horiz-adv-x="779" 
d="M194 528h522v-528h-126v194h-271l-151 -194h-140l158 200c-89 3 -130 45 -130 138v52c0 96 42 138 138 138zM246 274h344v170h-344c-48 0 -64 -17 -64 -65v-40c0 -48 16 -65 64 -65z" />
    <glyph glyph-name="uni0451" unicode="&#x451;" horiz-adv-x="783" 
d="M227 676h102v-88h-102v88zM453 676h102v-88h-102v88zM220 528h343c117 0 166 -47 166 -166v-114h-551v-67c0 -65 20 -85 85 -85h278c49 0 68 19 68 68v23h120v-45c0 -97 -46 -142 -142 -142h-367c-117 0 -166 47 -166 166v196c0 119 49 166 166 166zM178 354v-28h431v28
c0 65 -21 85 -86 85h-260c-65 0 -85 -20 -85 -85z" />
    <glyph glyph-name="uni0453" unicode="&#x453;" horiz-adv-x="639" 
d="M525 700l-145 -124h-112l116 124h141zM189 0h-126v528h560v-101h-434v-427z" />
    <glyph glyph-name="uni0455" unicode="&#x455;" horiz-adv-x="773" 
d="M54 116v50h120v-35c0 -32 12 -44 45 -44h331c32 0 45 12 45 44v42c0 31 -13 42 -45 45l-371 26c-77 6 -115 44 -115 115v54c0 75 42 115 115 115h410c73 0 116 -41 116 -116v-45h-120v30c0 32 -13 44 -45 44h-307c-33 0 -45 -12 -45 -44v-17c0 -32 13 -43 45 -46l370 -26
c77 -7 116 -45 116 -115v-78c0 -75 -43 -115 -116 -115h-434c-73 0 -115 41 -115 116z" />
    <glyph glyph-name="uni0456" unicode="&#x456;" horiz-adv-x="260" 
d="M193 601h-126v99h126v-99zM193 0h-126v528h126v-528z" />
    <glyph glyph-name="uni0457" unicode="&#x457;" horiz-adv-x="262" 
d="M69 588h-102v88h102v-88zM295 588h-102v88h102v-88zM194 0h-127v528h127v-528z" />
    <glyph glyph-name="uni0458" unicode="&#x458;" horiz-adv-x="300" 
d="M233 601h-126v99h126v-99zM91 -160h-153v95h101c51 0 68 17 68 68v525h126v-546c0 -97 -45 -142 -142 -142z" />
    <glyph glyph-name="uni045C" unicode="&#x45c;" horiz-adv-x="754" 
d="M445 700h141l-145 -124h-112zM357 266l395 -266h-208l-356 250v-250h-125v528h125v-251l352 251h206z" />
    <glyph glyph-name="uni045E" unicode="&#x45e;" horiz-adv-x="758" 
d="M507 576h-256c-49 0 -73 24 -73 73v51h90v-36c0 -20 10 -30 30 -30h162c20 0 30 10 30 30v36h90v-51c0 -49 -24 -73 -73 -73zM381 122l231 406h142l-328 -540c-36 -59 -71 -99 -106 -119c-35 -19 -88 -29 -157 -29h-109v98h120c37 0 65 5 84 15c19 11 37 32 56 64
l-310 511h147z" />
    <glyph glyph-name="uni0498" unicode="&#x498;" horiz-adv-x="901" 
d="M770 366c51 -16 77 -58 77 -127v-97c0 -97 -46 -142 -142 -142h-240l-11 -30h86c37 0 52 -15 52 -52v-26c0 -37 -15 -52 -52 -52h-196v47h167c9 0 13 4 13 13v13c0 9 -4 13 -13 13h-117v22l19 52h-217c-96 0 -142 45 -142 142v95h127v-69c0 -51 17 -68 68 -68h399
c51 0 68 17 68 68v81c0 51 -17 68 -68 68h-302v93h292c51 0 68 17 68 68v54c0 51 -17 68 -68 68h-379c-51 0 -68 -17 -68 -68v-61h-127v87c0 97 46 142 142 142h489c96 0 142 -45 142 -142v-69c0 -65 -22 -106 -67 -123z" />
    <glyph glyph-name="uni0499" unicode="&#x499;" horiz-adv-x="783" 
d="M672 275c38 -12 57 -44 57 -95v-73c0 -73 -33 -107 -108 -107h-215l-11 -30h86c37 0 52 -15 52 -52v-26c0 -37 -15 -52 -52 -52h-196v47h167c9 0 13 4 13 13v13c0 9 -4 13 -13 13h-117v22l19 52h-193c-73 0 -107 34 -107 107v69h120v-39c0 -37 14 -50 51 -50h328
c39 0 52 13 52 50v46c0 37 -13 51 -52 51h-238v79h231c37 0 51 14 51 51v27c0 37 -14 50 -51 50h-314c-37 0 -50 -13 -50 -50v-33h-120v63c0 73 34 107 107 107h445c73 0 108 -34 108 -107v-53c0 -48 -17 -79 -50 -93z" />
    <glyph glyph-name="uni04BB" unicode="&#x4bb;" horiz-adv-x="798" 
d="M402 528h171c117 0 166 -47 166 -166v-362h-125v342c0 65 -20 85 -85 85h-170c-57 0 -100 -11 -130 -34l-40 -30v-363h-126v700h126v-242l5 4c34 28 65 46 92 54s65 12 116 12z" />
    <glyph glyph-name="uni04C0" unicode="&#x4c0;" horiz-adv-x="272" 
d="M69 0v700h134v-700h-134z" />
    <glyph glyph-name="uni04C1" unicode="&#x4c1;" horiz-adv-x="1456" 
d="M856 748h-256c-49 0 -73 24 -73 73v51h90v-36c0 -20 10 -30 30 -30h162c20 0 30 10 30 30v36h90v-51c0 -49 -24 -73 -73 -73zM967 362l483 -362h-211l-445 344v-344h-132v344l-445 -344h-211l483 362l-479 338h212l440 -326v326h132v-326l440 326h212z" />
    <glyph glyph-name="uni04C2" unicode="&#x4c2;" horiz-adv-x="1257" 
d="M757 576h-256c-49 0 -73 24 -73 73v51h90v-36c0 -20 10 -30 30 -30h162c20 0 30 10 30 30v36h90v-51c0 -49 -24 -73 -73 -73zM859 266l396 -266h-208l-356 249v-249h-125v249l-355 -249h-209l396 266l-390 262h207l351 -251v251h125v-251l352 251h206z" />
    <glyph glyph-name="uni04D0" unicode="&#x4d0;" horiz-adv-x="920" 
d="M591 748h-256c-49 0 -73 24 -73 73v51h90v-36c0 -20 10 -30 30 -30h162c20 0 30 10 30 30v36h90v-51c0 -49 -24 -73 -73 -73zM925 0h-148l-83 156h-468l-83 -156h-141l390 700h144zM460 597l-180 -340h361z" />
    <glyph glyph-name="uni04D1" unicode="&#x4d1;" horiz-adv-x="785" 
d="M525 576h-256c-49 0 -73 24 -73 73v51h90v-36c0 -20 10 -30 30 -30h162c20 0 30 10 30 30v36h90v-51c0 -49 -24 -73 -73 -73zM220 528h343c117 0 166 -47 166 -166v-362h-102l-14 71l-17 -13c-31 -25 -57 -41 -80 -48s-58 -10 -105 -10h-233c-83 0 -124 41 -124 124v55
c0 83 41 124 124 124h427v52c0 64 -21 84 -86 84h-253c-51 0 -68 -17 -68 -68v-19h-120v34c0 97 46 142 142 142zM559 114l46 34v83h-366c-45 0 -61 -16 -61 -61v-26c0 -45 16 -61 61 -61h210c45 0 81 10 110 31z" />
    <glyph glyph-name="uni04D2" unicode="&#x4d2;" horiz-adv-x="920" 
d="M299 848h102v-88h-102v88zM525 848h102v-88h-102v88zM925 0h-148l-83 156h-468l-83 -156h-141l390 700h144zM460 597l-180 -340h361z" />
    <glyph glyph-name="uni04D3" unicode="&#x4d3;" horiz-adv-x="785" 
d="M233 676h102v-88h-102v88zM459 676h102v-88h-102v88zM220 528h343c117 0 166 -47 166 -166v-362h-102l-14 71l-17 -13c-31 -25 -57 -41 -80 -48s-58 -10 -105 -10h-233c-83 0 -124 41 -124 124v55c0 83 41 124 124 124h427v52c0 64 -21 84 -86 84h-253
c-51 0 -68 -17 -68 -68v-19h-120v34c0 97 46 142 142 142zM559 114l46 34v83h-366c-45 0 -61 -16 -61 -61v-26c0 -45 16 -61 61 -61h210c45 0 81 10 110 31z" />
    <glyph glyph-name="uni04D4" unicode="&#x4d4;" horiz-adv-x="1280" 
d="M746 314l109 -207h393v-107h-484l-78 154h-461l-82 -154h-141l390 700h846v-107h-639l95 -181h504v-98h-452zM461 597l-183 -343h357z" />
    <glyph glyph-name="uni04D5" unicode="&#x4d5;" horiz-adv-x="1333" 
d="M794 528h319c117 0 166 -47 166 -166v-114h-550v-67c0 -65 19 -85 84 -85h278c49 0 68 17 68 68v23h120v-45c0 -97 -45 -142 -142 -142h-351c-76 0 -125 23 -148 68l-12 -10c-31 -25 -57 -41 -80 -48s-58 -10 -105 -10h-263c-83 0 -124 41 -124 124v55
c0 83 41 124 124 124h427v52c0 64 -21 84 -86 84h-253c-51 0 -68 -17 -68 -68v-19h-120v34c0 97 46 142 142 142h319c62 0 105 -17 128 -51c23 34 65 51 127 51zM729 354v-28h430v28c0 65 -20 85 -85 85h-261c-65 0 -84 -20 -84 -85zM558 114l46 34v83h-365
c-45 0 -61 -16 -61 -61v-26c0 -45 16 -61 61 -61h210c44 0 80 10 109 31z" />
    <glyph glyph-name="uni04D6" unicode="&#x4d6;" horiz-adv-x="801" 
d="M528 748h-256c-49 0 -73 24 -73 73v51h90v-36c0 -20 10 -30 30 -30h162c20 0 30 10 30 30v36h90v-51c0 -49 -24 -73 -73 -73zM195 314v-207h574v-107h-705v700h695v-107h-564v-181h524v-98h-524z" />
    <glyph glyph-name="uni04D7" unicode="&#x4d7;" horiz-adv-x="783" 
d="M519 576h-256c-49 0 -73 24 -73 73v51h90v-36c0 -20 10 -30 30 -30h162c20 0 30 10 30 30v36h90v-51c0 -49 -24 -73 -73 -73zM220 528h343c117 0 166 -47 166 -166v-114h-551v-67c0 -65 20 -85 85 -85h278c49 0 68 19 68 68v23h120v-45c0 -97 -46 -142 -142 -142h-367
c-117 0 -166 47 -166 166v196c0 119 49 166 166 166zM178 354v-28h431v28c0 65 -21 85 -86 85h-260c-65 0 -85 -20 -85 -85z" />
    <glyph glyph-name="uni04DC" unicode="&#x4dc;" horiz-adv-x="1456" 
d="M564 848h102v-88h-102v88zM790 848h102v-88h-102v88zM967 362l483 -362h-211l-445 344v-344h-132v344l-445 -344h-211l483 362l-479 338h212l440 -326v326h132v-326l440 326h212z" />
    <glyph glyph-name="uni04DD" unicode="&#x4dd;" horiz-adv-x="1257" 
d="M465 676h102v-88h-102v88zM691 676h102v-88h-102v88zM859 266l396 -266h-208l-356 249v-249h-125v249l-355 -249h-209l396 266l-390 262h207l351 -251v251h125v-251l352 251h206z" />
    <glyph glyph-name="uni04DE" unicode="&#x4de;" horiz-adv-x="901" 
d="M286 848h102v-88h-102v88zM512 848h102v-88h-102v88zM770 366c51 -16 77 -58 77 -127v-97c0 -97 -46 -142 -142 -142h-509c-96 0 -142 45 -142 142v95h127v-69c0 -51 17 -68 68 -68h399c51 0 68 17 68 68v81c0 51 -17 68 -68 68h-302v93h292c51 0 68 17 68 68v54
c0 51 -17 68 -68 68h-379c-51 0 -68 -17 -68 -68v-61h-127v87c0 97 46 142 142 142h489c96 0 142 -45 142 -142v-69c0 -65 -22 -106 -67 -123z" />
    <glyph glyph-name="uni04DF" unicode="&#x4df;" horiz-adv-x="783" 
d="M227 676h102v-88h-102v88zM453 676h102v-88h-102v88zM672 275c38 -12 57 -44 57 -95v-73c0 -73 -33 -107 -108 -107h-460c-73 0 -107 34 -107 107v69h120v-39c0 -37 14 -50 51 -50h328c39 0 52 13 52 50v46c0 37 -13 51 -52 51h-238v79h231c37 0 51 14 51 51v27
c0 37 -14 50 -51 50h-314c-37 0 -50 -13 -50 -50v-33h-120v63c0 73 34 107 107 107h445c73 0 108 -34 108 -107v-53c0 -48 -17 -79 -50 -93z" />
    <glyph glyph-name="uni04E2" unicode="&#x4e2;" horiz-adv-x="932" 
d="M254 844h424v-66h-424v66zM192 174l564 526h112v-700h-128v532l-570 -532h-106v700h128v-526z" />
    <glyph glyph-name="uni04E3" unicode="&#x4e3;" horiz-adv-x="816" 
d="M196 672h424v-66h-424v66zM185 145l462 383h106v-528h-121v389l-469 -389h-100v528h122v-383z" />
    <glyph glyph-name="uni04E4" unicode="&#x4e4;" horiz-adv-x="932" 
d="M302 848h102v-88h-102v88zM528 848h102v-88h-102v88zM192 174l564 526h112v-700h-128v532l-570 -532h-106v700h128v-526z" />
    <glyph glyph-name="uni04E5" unicode="&#x4e5;" horiz-adv-x="816" 
d="M244 676h102v-88h-102v88zM470 676h102v-88h-102v88zM185 145l462 383h106v-528h-121v389l-469 -389h-100v528h122v-383z" />
    <glyph glyph-name="uni04E6" unicode="&#x4e6;" horiz-adv-x="924" 
d="M400 760h-102v88h102v-88zM626 760h-102v88h102v-88zM683 0h-442c-128 0 -186 58 -186 186v328c0 128 58 186 186 186h442c128 0 186 -58 186 -186v-328c0 -128 -58 -186 -186 -186zM287 110h350c73 0 100 27 100 100v280c0 73 -27 100 -100 100h-350
c-73 0 -100 -25 -100 -100v-280c0 -75 27 -100 100 -100z" />
    <glyph glyph-name="uni04E7" unicode="&#x4e7;" horiz-adv-x="794" 
d="M335 588h-102v88h102v-88zM561 588h-102v88h102v-88zM574 0h-354c-117 0 -166 47 -166 166v196c0 119 49 166 166 166h354c117 0 166 -47 166 -166v-196c0 -119 -49 -166 -166 -166zM264 98h266c65 0 84 20 84 85v162c0 65 -19 85 -84 85h-266c-65 0 -84 -20 -84 -85
v-162c0 -65 19 -85 84 -85z" />
    <glyph glyph-name="uni04EC" unicode="&#x4ec;" horiz-adv-x="910" 
d="M291 848h102v-88h-102v88zM517 848h102v-88h-102v88zM238 700h432c128 0 186 -58 186 -186v-328c0 -128 -58 -186 -186 -186h-432c-128 0 -186 58 -186 186v83h128v-69c0 -73 27 -100 100 -100h344c73 0 100 27 100 100v118h-364v85h364v97c0 73 -27 100 -100 100h-344
c-73 0 -100 -27 -100 -100v-60h-128v74c0 128 58 186 186 186z" />
    <glyph glyph-name="uni04ED" unicode="&#x4ed;" horiz-adv-x="789" 
d="M224 676h102v-88h-102v88zM450 676h102v-88h-102v88zM220 528h349c117 0 166 -47 166 -166v-196c0 -119 -49 -166 -166 -166h-349c-117 0 -166 47 -166 166v48h120v-33c0 -65 20 -85 85 -85h266c65 0 86 20 86 85v55h-294v75h294v36c0 65 -21 85 -86 85h-266
c-65 0 -85 -20 -85 -85v-26h-120v41c0 119 49 166 166 166z" />
    <glyph glyph-name="uni04EE" unicode="&#x4ee;" horiz-adv-x="856" 
d="M216 844h424v-66h-424v66zM431 330l273 370h156l-537 -700h-154l182 237l-355 463h163z" />
    <glyph glyph-name="uni04EF" unicode="&#x4ef;" horiz-adv-x="758" 
d="M167 672h424v-66h-424v66zM381 122l231 406h142l-328 -540c-36 -59 -71 -99 -106 -119c-35 -19 -88 -29 -157 -29h-109v98h120c37 0 65 5 84 15c19 11 37 32 56 64l-310 511h147z" />
    <glyph glyph-name="uni04F0" unicode="&#x4f0;" horiz-adv-x="856" 
d="M264 848h102v-88h-102v88zM490 848h102v-88h-102v88zM431 330l273 370h156l-537 -700h-154l182 237l-355 463h163z" />
    <glyph glyph-name="uni04F1" unicode="&#x4f1;" horiz-adv-x="758" 
d="M215 676h102v-88h-102v88zM441 676h102v-88h-102v88zM381 122l231 406h142l-328 -540c-36 -59 -71 -99 -106 -119c-35 -19 -88 -29 -157 -29h-109v98h120c37 0 65 5 84 15c19 11 37 32 56 64l-310 511h147z" />
    <glyph glyph-name="uni04F2" unicode="&#x4f2;" horiz-adv-x="856" 
d="M345 872h132l-120 -124h-106zM573 872h131l-120 -124h-106zM431 330l273 370h156l-537 -700h-154l182 237l-355 463h163z" />
    <glyph glyph-name="uni04F3" unicode="&#x4f3;" horiz-adv-x="758" 
d="M296 700h132l-120 -124h-106zM524 700h131l-120 -124h-106zM381 122l231 406h142l-328 -540c-36 -59 -71 -99 -106 -119c-35 -19 -88 -29 -157 -29h-109v98h120c37 0 65 5 84 15c19 11 37 32 56 64l-310 511h147z" />
    <glyph glyph-name="uni04F4" unicode="&#x4f4;" horiz-adv-x="868" 
d="M372 760h-102v88h102v-88zM598 760h-102v88h102v-88zM804 0h-132v252h-474c-117 0 -166 47 -166 166v282h132v-250c0 -65 20 -84 85 -84h423v334h132v-700z" />
    <glyph glyph-name="uni04F5" unicode="&#x4f5;" horiz-adv-x="600" 
d="M166 588h-102v88h102v-88zM392 588h-102v88h102v-88zM32 529l126 -1v-171c0 -51 17 -68 68 -68h340v239h126v-528h-126v188h-392c-97 0 -142 45 -142 142v199z" />
    <glyph glyph-name="uni04F8" unicode="&#x4f8;" horiz-adv-x="1132" 
d="M934 760h-102v88h102v-88zM1160 760h-102v88h102v-88zM64 0v700h132v-240h466c117 0 166 -47 166 -166v-128c0 -119 -49 -166 -166 -166h-598zM929 0v700h134v-700h-134zM611 362h-415v-260h415c65 0 85 19 85 84v92c0 65 -20 84 -85 84z" />
    <glyph glyph-name="uni04F9" unicode="&#x4f9;" horiz-adv-x="1017" 
d="M824 588h-102v88h102v-88zM1050 588h-102v88h102v-88zM63 0v528h126v-179h396c96 0 138 -42 138 -138v-73c0 -96 -42 -138 -138 -138h-522zM949 0h-127v528h127v-528zM533 266h-344v-179h344c48 0 65 17 65 65v49c0 48 -17 65 -65 65z" />
    <glyph glyph-name="Wgrave" unicode="&#x1e80;" horiz-adv-x="1258" 
d="M566 872l115 -124h-111l-146 124h142zM900 161l216 539h140l-295 -700h-115l-217 526l-217 -526h-115l-295 700h147l215 -540l217 540h101z" />
    <glyph glyph-name="wgrave" unicode="&#x1e81;" horiz-adv-x="1058" 
d="M466 700l115 -124h-111l-146 124h142zM754 140l166 388h132l-244 -528h-107l-171 387l-171 -387h-109l-244 528h137l168 -387l172 387h97z" />
    <glyph glyph-name="Wacute" unicode="&#x1e82;" horiz-adv-x="1258" 
d="M693 872h141l-145 -124h-112zM900 161l216 539h140l-295 -700h-115l-217 526l-217 -526h-115l-295 700h147l215 -540l217 540h101z" />
    <glyph glyph-name="wacute" unicode="&#x1e83;" horiz-adv-x="1058" 
d="M593 700h141l-145 -124h-112zM754 140l166 388h132l-244 -528h-107l-171 387l-171 -387h-109l-244 528h137l168 -387l172 387h97z" />
    <glyph glyph-name="Wdieresis" unicode="&#x1e84;" horiz-adv-x="1258" 
d="M465 848h102v-88h-102v88zM691 848h102v-88h-102v88zM900 161l216 539h140l-295 -700h-115l-217 526l-217 -526h-115l-295 700h147l215 -540l217 540h101z" />
    <glyph glyph-name="wdieresis" unicode="&#x1e85;" horiz-adv-x="1058" 
d="M365 676h102v-88h-102v88zM591 676h102v-88h-102v88zM754 140l166 388h132l-244 -528h-107l-171 387l-171 -387h-109l-244 528h137l168 -387l172 387h97z" />
    <glyph glyph-name="uni1E9E" unicode="&#x1e9e;" horiz-adv-x="920" 
d="M559 420h168c97 0 142 -43 142 -142v-136c0 -97 -45 -142 -142 -142h-368v97h312c49 0 68 19 68 68v95c0 51 -17 68 -68 68h-292v68l243 196h-335c-73 0 -100 -27 -100 -100v-492h-130v514c0 128 58 186 186 186h580v-58z" />
    <glyph glyph-name="Ygrave" unicode="&#x1ef2;" horiz-adv-x="856" 
d="M365 872l115 -124h-111l-146 124h142zM704 700h156l-366 -443v-257h-132v257l-366 443h163l273 -340z" />
    <glyph glyph-name="ygrave" unicode="&#x1ef3;" horiz-adv-x="758" 
d="M316 700l115 -124h-111l-146 124h142zM381 122l231 406h142l-328 -540c-36 -59 -71 -99 -106 -119c-35 -19 -88 -29 -157 -29h-109v98h120c37 0 65 5 84 15c19 11 37 32 56 64l-310 511h147z" />
    <glyph glyph-name="endash" unicode="&#x2013;" horiz-adv-x="760" 
d="M48 298v104h664v-104h-664z" />
    <glyph glyph-name="emdash" unicode="&#x2014;" horiz-adv-x="1028" 
d="M48 298v104h932v-104h-932z" />
    <glyph glyph-name="quoteleft" unicode="&#x2018;" horiz-adv-x="280" 
d="M135 700h81l-51 -160h51v-132h-152v55c0 35 7 68 20 97z" />
    <glyph glyph-name="quoteright" unicode="&#x2019;" horiz-adv-x="280" 
d="M145 408h-81l51 160h-51v132h152v-55c0 -35 -7 -68 -20 -97z" />
    <glyph glyph-name="quotesinglbase" unicode="&#x201a;" horiz-adv-x="280" 
d="M145 -160h-81l51 160h-51v132h152v-55c0 -35 -7 -68 -20 -97z" />
    <glyph glyph-name="quotedblleft" unicode="&#x201c;" horiz-adv-x="528" 
d="M135 700h81l-51 -160h51v-132h-152v55c0 35 7 68 20 97zM383 700h81l-51 -160h51v-132h-152v55c0 35 7 68 20 97z" />
    <glyph glyph-name="quotedblright" unicode="&#x201d;" horiz-adv-x="528" 
d="M145 408h-81l51 160h-51v132h152v-55c0 -35 -7 -68 -20 -97zM393 408h-81l51 160h-51v132h152v-55c0 -35 -7 -68 -20 -97z" />
    <glyph glyph-name="quotedblbase" unicode="&#x201e;" horiz-adv-x="528" 
d="M145 -160h-81l51 160h-51v132h152v-55c0 -35 -7 -68 -20 -97zM393 -160h-81l51 160h-51v132h152v-55c0 -35 -7 -68 -20 -97z" />
    <glyph glyph-name="dagger" unicode="&#x2020;" horiz-adv-x="494" 
d="M290 576h162v-76h-162v-226h-86v226h-162v76h162v124h86v-124z" />
    <glyph glyph-name="daggerdbl" unicode="&#x2021;" horiz-adv-x="494" 
d="M452 582v-74h-162v-138h162v-74h-162v-118h-86v118h-162v74h162v138h-162v74h162v118h86v-118h162z" />
    <glyph glyph-name="bullet" unicode="&#x2022;" horiz-adv-x="380" 
d="M245 224h-110c-47 0 -71 24 -71 71v110c0 47 24 71 71 71h110c47 0 71 -24 71 -71v-110c0 -47 -24 -71 -71 -71z" />
    <glyph glyph-name="perthousand" unicode="&#x2030;" horiz-adv-x="1404" 
d="M318 306h-172c-69 0 -104 35 -104 104v106c0 72 33 104 104 104h172c71 0 104 -32 104 -104v-106c0 -69 -35 -104 -104 -104zM216 0h-86l626 620h86zM169 372h126c37 0 51 15 51 52v78c0 37 -14 52 -51 52h-126c-37 0 -51 -15 -51 -52v-78c0 -37 14 -52 51 -52zM826 0
h-172c-69 0 -104 35 -104 104v106c0 72 33 104 104 104h172c71 0 104 -32 104 -104v-106c0 -69 -35 -104 -104 -104zM1258 0h-172c-69 0 -104 35 -104 104v106c0 72 33 104 104 104h172c71 0 104 -32 104 -104v-106c0 -69 -35 -104 -104 -104zM677 66h126c37 0 51 15 51 52
v78c0 37 -14 52 -51 52h-126c-37 0 -51 -15 -51 -52v-78c0 -37 14 -52 51 -52zM1109 66h126c37 0 51 15 51 52v78c0 37 -14 52 -51 52h-126c-37 0 -51 -15 -51 -52v-78c0 -37 14 -52 51 -52z" />
    <glyph glyph-name="guilsinglleft" unicode="&#x2039;" horiz-adv-x="524" 
d="M52 388l420 198v-103l-308 -132l308 -133v-105l-420 198v77z" />
    <glyph glyph-name="guilsinglright" unicode="&#x203a;" horiz-adv-x="524" 
d="M52 481v105l420 -198v-77l-420 -198v103l308 133z" />
    <glyph glyph-name="fraction" unicode="&#x2044;" horiz-adv-x="233" 
d="M-148 0h-85l615 700h84z" />
    <glyph glyph-name="Euro" unicode="&#x20ac;" horiz-adv-x="892" 
d="M826 514v-74h-124v62c0 73 -27 100 -100 100h-270c-73 0 -100 -27 -100 -100v-50h350v-59h-350v-86h350v-59h-350v-50c0 -73 27 -100 100 -100h270c73 0 100 27 100 100v71h124v-83c0 -128 -58 -186 -186 -186h-350c-128 0 -186 58 -186 186v62h-98v59h98v86h-98v59h98
v62c0 128 58 186 186 186h350c128 0 186 -58 186 -186z" />
    <glyph glyph-name="trademark" unicode="&#x2122;" horiz-adv-x="663" 
d="M135 650h-103v50h261v-50h-103v-183h-55v183zM477 567l105 133h49v-233h-54v153l-87 -108h-29l-87 108v-153h-54v233h51z" />
    <glyph glyph-name="minus" unicode="&#x2212;" 
d="M68 298v104h728v-104h-728z" />
    <glyph glyph-name="approxequal" unicode="&#x2248;" 
d="M385 622l192 -154c15 -14 34 -21 55 -21h23c24 0 33 9 33 33v194h108v-214c0 -68 -26 -94 -94 -94h-91c-31 0 -55 3 -71 10c-17 6 -37 20 -61 42l-192 154c-15 14 -34 21 -55 21h-23c-24 0 -33 -9 -33 -33v-194h-108v214c0 68 26 94 94 94h91c31 0 55 -3 72 -9
c17 -7 37 -21 60 -43zM385 282l192 -154c15 -14 34 -21 55 -21h23c24 0 33 9 33 33v194h108v-214c0 -68 -26 -94 -94 -94h-91c-31 0 -55 3 -71 10c-17 6 -37 20 -61 42l-192 154c-15 14 -34 21 -55 21h-23c-24 0 -33 -9 -33 -33v-194h-108v214c0 68 26 94 94 94h91
c31 0 55 -3 72 -9c17 -7 37 -21 60 -43z" />
    <glyph glyph-name="notequal" unicode="&#x2260;" 
d="M796 526v-100h-275l-77 -152h352v-100h-402l-66 -130h-101l66 130h-225v100h275l77 152h-352v100h402l66 130h101l-66 -130h225z" />
    <glyph glyph-name="lessequal" unicode="&#x2264;" 
d="M68 492l728 184v-106l-592 -124l592 -124v-107l-728 184v93zM796 24h-728v93h728v-93z" />
    <glyph glyph-name="greaterequal" unicode="&#x2265;" 
d="M68 570v106l728 -184v-93l-728 -184v107l592 124zM796 24h-728v93h728v-93z" />
    <glyph glyph-name="fi" unicode="&#xfb01;" horiz-adv-x="853" 
d="M164 465v93c0 97 46 142 142 142h271v-97h-221c-51 0 -68 -19 -68 -68v-70h289v-97h-289v-368h-124v368h-148v97h148zM660 601v99h126v-99h-126zM786 0h-126v528h126v-528z" />
    <glyph glyph-name="fl" unicode="&#xfb02;" horiz-adv-x="855" 
d="M164 465v93c0 97 46 142 142 142h271v-97h-221c-51 0 -68 -19 -68 -68v-70h289v-97h-289v-368h-124v368h-148v97h148zM660 0v700h127v-700h-127z" />
    <glyph glyph-name="A.ss01" horiz-adv-x="912" 
d="M243 700h427c128 0 186 -58 186 -186v-514h-131v223h-538v-223h-130v514c0 128 58 186 186 186zM187 491v-162h538v162c0 73 -27 100 -100 100h-338c-73 0 -100 -27 -100 -100z" />
    <glyph glyph-name="Aacute.ss01" horiz-adv-x="912" 
d="M522 872h141l-145 -124h-112zM243 700h427c128 0 186 -58 186 -186v-514h-131v223h-538v-223h-130v514c0 128 58 186 186 186zM187 491v-162h538v162c0 73 -27 100 -100 100h-338c-73 0 -100 -27 -100 -100z" />
    <glyph glyph-name="Abreve.ss01" horiz-adv-x="912" 
d="M586 748h-256c-49 0 -73 24 -73 73v51h90v-36c0 -20 10 -30 30 -30h162c20 0 30 10 30 30v36h90v-51c0 -49 -24 -73 -73 -73zM243 700h427c128 0 186 -58 186 -186v-514h-131v223h-538v-223h-130v514c0 128 58 186 186 186zM187 491v-162h538v162c0 73 -27 100 -100 100
h-338c-73 0 -100 -27 -100 -100z" />
    <glyph glyph-name="Acircumflex.ss01" horiz-adv-x="912" 
d="M563 748l-105 72l-105 -72h-98l138 124h130l138 -124h-98zM243 700h427c128 0 186 -58 186 -186v-514h-131v223h-538v-223h-130v514c0 128 58 186 186 186zM187 491v-162h538v162c0 73 -27 100 -100 100h-338c-73 0 -100 -27 -100 -100z" />
    <glyph glyph-name="Adieresis.ss01" horiz-adv-x="912" 
d="M294 848h102v-88h-102v88zM520 848h102v-88h-102v88zM243 700h427c128 0 186 -58 186 -186v-514h-131v223h-538v-223h-130v514c0 128 58 186 186 186zM187 491v-162h538v162c0 73 -27 100 -100 100h-338c-73 0 -100 -27 -100 -100z" />
    <glyph glyph-name="Agrave.ss01" horiz-adv-x="912" 
d="M395 872l115 -124h-111l-146 124h142zM243 700h427c128 0 186 -58 186 -186v-514h-131v223h-538v-223h-130v514c0 128 58 186 186 186zM187 491v-162h538v162c0 73 -27 100 -100 100h-338c-73 0 -100 -27 -100 -100z" />
    <glyph glyph-name="Amacron.ss01" horiz-adv-x="912" 
d="M246 844h424v-66h-424v66zM243 700h427c128 0 186 -58 186 -186v-514h-131v223h-538v-223h-130v514c0 128 58 186 186 186zM187 491v-162h538v162c0 73 -27 100 -100 100h-338c-73 0 -100 -27 -100 -100z" />
    <glyph glyph-name="Aogonek.ss01" horiz-adv-x="912" 
d="M751 -90h137v-70h-170c-56 0 -80 24 -80 80v16c0 44 7 59 47 83l40 22v182h-538v-223h-130v514c0 128 58 186 186 186h427c128 0 186 -58 186 -186v-514h-92l-22 -12c-19 -9 -22 -17 -22 -34v-13c0 -23 8 -31 31 -31zM187 491v-162h538v162c0 73 -27 100 -100 100h-338
c-73 0 -100 -27 -100 -100z" />
    <glyph glyph-name="Aring.ss01" horiz-adv-x="912" 
d="M561 738h-206c-39 0 -54 17 -54 54v26c0 37 15 54 54 54h206c39 0 54 -17 54 -54v-26c0 -37 -15 -54 -54 -54zM356 812v-14c0 -16 4 -21 20 -21h164c16 0 20 5 20 21v14c0 16 -4 21 -20 21h-164c-16 0 -20 -5 -20 -21zM243 700h427c128 0 186 -58 186 -186v-514h-131v223
h-538v-223h-130v514c0 128 58 186 186 186zM187 491v-162h538v162c0 73 -27 100 -100 100h-338c-73 0 -100 -27 -100 -100z" />
    <glyph glyph-name="Aringacute.ss01" horiz-adv-x="912" 
d="M613 700h57c128 0 186 -58 186 -186v-514h-131v223h-538v-223h-130v514c0 128 58 186 186 186h60c-1 8 -2 15 -2 20v26c0 37 15 54 54 54h69l60 72h136l-78 -72h19c39 0 54 -17 54 -54v-26c0 -5 -1 -12 -2 -20zM356 740v-14c0 -16 4 -21 20 -21h164c16 0 20 5 20 21v14
c0 16 -4 21 -20 21h-164c-16 0 -20 -5 -20 -21zM187 491v-162h538v162c0 73 -27 100 -100 100h-338c-73 0 -100 -27 -100 -100z" />
    <glyph glyph-name="Atilde.ss01" horiz-adv-x="912" 
d="M338 808v-60h-77v74c0 33 17 50 50 50h99c31 0 42 -5 62 -25l42 -39c7 -7 15 -10 25 -10h24c10 0 15 5 15 14v60h77v-74c0 -33 -17 -50 -50 -50h-99c-31 0 -42 5 -62 25l-42 39c-7 7 -15 10 -25 10h-24c-10 0 -15 -5 -15 -14zM243 700h427c128 0 186 -58 186 -186v-514
h-131v223h-538v-223h-130v514c0 128 58 186 186 186zM187 491v-162h538v162c0 73 -27 100 -100 100h-338c-73 0 -100 -27 -100 -100z" />
    <glyph glyph-name="I.ss01" horiz-adv-x="656" 
d="M624 700v-99h-229v-502h229v-99h-592v99h229v502h-229v99h592z" />
    <glyph glyph-name="Iacute.ss01" horiz-adv-x="656" 
d="M392 872h141l-145 -124h-112zM624 700v-99h-229v-502h229v-99h-592v99h229v502h-229v99h592z" />
    <glyph glyph-name="Icircumflex.ss01" horiz-adv-x="656" 
d="M433 748l-105 72l-105 -72h-98l138 124h130l138 -124h-98zM624 700v-99h-229v-502h229v-99h-592v99h229v502h-229v99h592z" />
    <glyph glyph-name="Idieresis.ss01" horiz-adv-x="656" 
d="M164 848h102v-88h-102v88zM390 848h102v-88h-102v88zM624 700v-99h-229v-502h229v-99h-592v99h229v502h-229v99h592z" />
    <glyph glyph-name="Idotaccent.ss01" horiz-adv-x="656" 
d="M264 848h127v-88h-127v88zM624 700v-99h-229v-502h229v-99h-592v99h229v502h-229v99h592z" />
    <glyph glyph-name="Igrave.ss01" horiz-adv-x="656" 
d="M265 872l115 -124h-111l-146 124h142zM624 700v-99h-229v-502h229v-99h-592v99h229v502h-229v99h592z" />
    <glyph glyph-name="Imacron.ss01" horiz-adv-x="656" 
d="M116 844h424v-66h-424v66zM624 700v-99h-229v-502h229v-99h-592v99h229v502h-229v99h592z" />
    <glyph glyph-name="Iogonek.ss01" horiz-adv-x="656" 
d="M624 700v-99h-229v-502h229v-99h-124l-22 -12c-19 -9 -22 -17 -22 -34v-13c0 -23 8 -31 31 -31h137v-70h-170c-56 0 -80 24 -80 80v16c0 29 7 51 21 64h-363v99h229v502h-229v99h592z" />
    <glyph glyph-name="Itilde.ss01" horiz-adv-x="656" 
d="M208 808v-60h-77v74c0 33 17 50 50 50h99c31 0 42 -5 62 -25l42 -39c7 -7 15 -10 25 -10h24c10 0 15 5 15 14v60h77v-74c0 -33 -17 -50 -50 -50h-99c-31 0 -42 5 -62 25l-42 39c-7 7 -15 10 -25 10h-24c-10 0 -15 -5 -15 -14zM624 700v-99h-229v-502h229v-99h-592v99h229
v502h-229v99h592z" />
    <glyph glyph-name="R.ss01" horiz-adv-x="884" 
d="M828 558v-123c0 -67 -24 -108 -71 -125c47 -17 71 -58 71 -125v-185h-132v192c0 52 -19 70 -70 70h-430v-262h-132v700h622c97 0 142 -43 142 -142zM626 602h-430v-244h430c51 0 70 18 70 70v104c0 52 -19 70 -70 70z" />
    <glyph glyph-name="Racute.ss01" horiz-adv-x="884" 
d="M506 872h141l-145 -124h-112zM828 558v-123c0 -67 -24 -108 -71 -125c47 -17 71 -58 71 -125v-185h-132v192c0 52 -19 70 -70 70h-430v-262h-132v700h622c97 0 142 -43 142 -142zM626 602h-430v-244h430c51 0 70 18 70 70v104c0 52 -19 70 -70 70z" />
    <glyph glyph-name="Rcaron.ss01" horiz-adv-x="884" 
d="M503 798l-138 24h-14l-3 5l106 45l97 -27l-30 -47h-18zM828 558v-123c0 -67 -24 -108 -71 -125c47 -17 71 -58 71 -125v-185h-132v192c0 52 -19 70 -70 70h-430v-262h-132v700h622c97 0 142 -43 142 -142zM626 602h-430v-244h430c51 0 70 18 70 70v104
c0 52 -19 70 -70 70z" />
    <glyph glyph-name="Rcommaaccent.ss01" horiz-adv-x="884" 
d="M828 558v-123c0 -67 -24 -108 -71 -125c47 -17 71 -58 71 -125v-185h-132v192c0 52 -19 70 -70 70h-430v-262h-132v700h622c97 0 142 -43 142 -142zM626 602h-430v-244h430c51 0 70 18 70 70v104c0 52 -19 70 -70 70zM427 -114h-49v84h128v-35c0 -32 -3 -43 -23 -74
l-34 -57h-65z" />
    <glyph glyph-name="i.loclTRK" horiz-adv-x="262" 
d="M194 588h-127v88h127v-88zM194 0h-127v528h127v-528z" />
    <glyph glyph-name="uni0410.ss01" horiz-adv-x="915" 
d="M243 700h430c128 0 186 -58 186 -186v-514h-130v223h-542v-223h-130v514c0 128 58 186 186 186zM187 491v-162h542v162c0 73 -27 100 -100 100h-342c-73 0 -100 -27 -100 -100z" />
    <glyph glyph-name="uni042F.ss01" horiz-adv-x="884" 
d="M198 700h622v-700h-132v262h-430c-51 0 -70 -18 -70 -70v-192h-132v185c0 67 24 108 71 125c-47 17 -71 58 -71 125v123c0 99 45 142 142 142zM188 532v-104c0 -52 19 -70 70 -70h430v244h-430c-51 0 -70 -18 -70 -70z" />
    <glyph glyph-name="uni044F.ss01" horiz-adv-x="771" 
d="M155 528h553v-528h-126v194h-362c-37 0 -50 -13 -50 -50v-144h-122v144c0 50 18 81 53 94c-35 13 -53 44 -53 95v87c0 75 34 108 107 108zM174 394v-68c0 -39 14 -52 51 -52h357v170h-357c-37 0 -51 -13 -51 -50z" />
    <glyph glyph-name="zero.tf" 
d="M612 0h-360c-128 0 -186 58 -186 186v328c0 128 58 186 186 186h360c128 0 186 -58 186 -186v-328c0 -128 -58 -186 -186 -186zM294 106h276c73 0 100 27 100 100v288c0 73 -27 100 -100 100h-276c-73 0 -100 -27 -100 -100v-288c0 -73 27 -100 100 -100z" />
    <glyph glyph-name="one.tf" 
d="M522 700v-598h294v-102h-768v102h346v487l-316 -25v106l384 30h60z" />
    <glyph glyph-name="two.tf" 
d="M787 105v-105h-721v215c0 95 43 136 142 148l395 46c51 7 68 25 68 74v48c0 51 -17 68 -68 68h-332c-51 0 -68 -17 -68 -68v-34h-123v61c0 97 46 142 142 142h434c96 0 142 -45 142 -142v-97c0 -95 -43 -136 -142 -148l-395 -46c-52 -7 -68 -25 -68 -74v-88h594z" />
    <glyph glyph-name="three.tf" 
d="M723 366c51 -16 77 -58 77 -127v-97c0 -97 -46 -142 -142 -142h-452c-96 0 -142 45 -142 142v85h123v-60c0 -51 17 -68 68 -68h350c51 0 68 17 68 68v82c0 51 -17 68 -68 68h-265v92h255c51 0 68 19 68 68v56c0 51 -17 68 -68 68h-330c-51 0 -68 -17 -68 -68v-52h-123v77
c0 97 46 142 142 142h432c96 0 142 -45 142 -142v-69c0 -65 -22 -106 -67 -123z" />
    <glyph glyph-name="four.tf" 
d="M661 260h175v-97h-175v-163h-126v163h-507v81l487 456h146v-440zM535 598l-361 -338h361v338z" />
    <glyph glyph-name="five.tf" 
d="M656 0h-586v105h533c51 0 68 19 68 68v83c0 51 -17 68 -68 68h-533v376h698v-105h-571v-168h459c96 0 142 -45 142 -142v-143c0 -97 -46 -142 -142 -142z" />
    <glyph glyph-name="six.tf" 
d="M293 429h363c97 0 142 -43 142 -142v-145c0 -97 -46 -142 -142 -142h-448c-96 0 -142 45 -142 142v372c0 128 58 186 186 186h516v-105h-475c-73 0 -100 -27 -100 -100v-99c19 22 53 33 100 33zM671 169v92c0 51 -17 68 -68 68h-342c-51 0 -68 -17 -68 -68v-92
c0 -51 17 -68 68 -68h342c51 0 68 17 68 68z" />
    <glyph glyph-name="seven.tf" 
d="M48 590v110h768v-94l-303 -273c-27 -24 -44 -48 -53 -71s-13 -56 -13 -98v-164h-130v164c0 57 6 102 19 135c12 33 36 64 72 95l226 196h-586z" />
    <glyph glyph-name="eight.tf" 
d="M723 366c51 -16 77 -58 77 -127v-97c0 -97 -46 -142 -142 -142h-452c-96 0 -142 45 -142 142v97c0 69 26 111 77 127c-45 17 -67 58 -67 123v69c0 97 46 142 142 142h432c96 0 142 -45 142 -142v-69c0 -65 -22 -106 -67 -123zM201 535v-60c0 -51 17 -68 68 -68h326
c51 0 68 17 68 68v60c0 51 -17 68 -68 68h-326c-51 0 -68 -17 -68 -68zM673 165v87c0 51 -17 68 -68 68h-346c-51 0 -68 -17 -68 -68v-87c0 -51 17 -68 68 -68h346c51 0 68 17 68 68z" />
    <glyph glyph-name="nine.tf" 
d="M208 700h448c96 0 142 -45 142 -142v-372c0 -128 -58 -186 -186 -186h-516v105h475c73 0 100 27 100 100v92c-19 -22 -53 -33 -100 -33h-363c-97 0 -142 43 -142 142v152c0 97 46 142 142 142zM261 364h342c51 0 68 17 68 68v99c0 51 -17 68 -68 68h-342
c-51 0 -68 -17 -68 -68v-99c0 -51 17 -68 68 -68z" />
    <glyph glyph-name="zero.subs" horiz-adv-x="548" 
d="M384 -100h-220c-80 0 -118 37 -118 118v184c0 81 38 118 118 118h220c80 0 118 -37 118 -118v-184c0 -81 -38 -118 -118 -118zM199 -10h150c33 0 46 12 46 45v150c0 33 -13 45 -46 45h-150c-33 0 -46 -12 -46 -45v-150c0 -33 13 -45 46 -45z" />
    <glyph glyph-name="one.subs" horiz-adv-x="512" 
d="M321 320v-335h158v-85h-447v85h181v241l-163 -13v89l219 18h52z" />
    <glyph glyph-name="two.subs" horiz-adv-x="548" 
d="M495 -12v-88h-449v135c0 61 28 89 92 96l226 22c24 3 31 10 31 33v21c0 23 -8 31 -31 31h-175c-23 0 -31 -8 -31 -31v-19h-104v40c0 64 29 92 92 92h264c63 0 92 -28 92 -92v-55c0 -63 -27 -89 -92 -96l-225 -22c-24 -3 -32 -12 -32 -33v-34h342z" />
    <glyph glyph-name="three.subs" horiz-adv-x="544" 
d="M454 117c31 -10 47 -36 47 -79v-46c0 -64 -28 -92 -91 -92h-275c-63 0 -92 28 -92 92v55h104v-32c0 -24 7 -31 31 -31h185c24 0 31 7 31 31v32c0 23 -7 31 -31 31h-148v75h142c24 0 31 8 31 32v20c0 24 -7 31 -31 31h-173c-24 0 -31 -7 -31 -31v-27h-104v50
c0 64 29 92 92 92h263c63 0 91 -28 91 -92v-34c0 -41 -14 -67 -41 -77z" />
    <glyph glyph-name="four.subs" horiz-adv-x="566" 
d="M431 66h102v-80h-102v-86h-103v86h-296v67l280 267h119v-254zM328 229l-173 -163h173v163z" />
    <glyph glyph-name="five.subs" horiz-adv-x="529" 
d="M392 -100h-344v88h296c24 0 32 8 32 31v29c0 24 -8 32 -32 32h-296v240h417v-88h-310v-69h237c63 0 91 -28 91 -92v-79c0 -64 -28 -92 -91 -92z" />
    <glyph glyph-name="six.subs" horiz-adv-x="548" 
d="M214 163h196c63 0 92 -28 92 -91v-80c0 -64 -29 -92 -92 -92h-272c-63 0 -92 28 -92 92v210c0 81 38 118 118 118h320v-88h-285c-33 0 -46 -11 -46 -46v-43c11 13 32 20 61 20zM395 17v35c0 24 -8 32 -31 32h-179c-24 0 -32 -8 -32 -32v-35c0 -23 8 -31 32 -31h179
c23 0 31 8 31 31z" />
    <glyph glyph-name="seven.subs" horiz-adv-x="524" 
d="M32 227v93h459v-80l-174 -161c-25 -23 -31 -42 -31 -82v-97h-110v96c0 35 4 62 11 81s21 38 42 57l106 93h-303z" />
    <glyph glyph-name="eight.subs" horiz-adv-x="548" 
d="M456 117c31 -10 47 -36 47 -79v-46c0 -64 -28 -92 -91 -92h-275c-63 0 -92 28 -92 92v46c0 43 16 69 48 79c-28 10 -42 36 -42 77v34c0 64 29 92 92 92h263c63 0 91 -28 91 -92v-34c0 -41 -14 -67 -41 -77zM158 207v-25c0 -23 8 -31 31 -31h169c24 0 31 8 31 31v25
c0 23 -7 31 -31 31h-169c-23 0 -31 -8 -31 -31zM395 13v36c0 23 -7 31 -31 31h-181c-23 0 -31 -8 -31 -31v-36c0 -23 8 -31 31 -31h181c24 0 31 8 31 31z" />
    <glyph glyph-name="nine.subs" horiz-adv-x="548" 
d="M138 320h272c63 0 92 -28 92 -92v-210c0 -81 -38 -118 -118 -118h-320v88h285c33 0 46 11 46 46v40c-11 -13 -32 -20 -61 -20h-196c-63 0 -92 28 -92 91v83c0 64 29 92 92 92zM185 133h179c23 0 31 8 31 32v38c0 23 -8 31 -31 31h-179c-24 0 -32 -8 -32 -31v-38
c0 -24 8 -32 32 -32z" />
    <glyph glyph-name="zero.dnom" horiz-adv-x="548" 
d="M384 0h-220c-80 0 -118 37 -118 118v184c0 81 38 118 118 118h220c80 0 118 -37 118 -118v-184c0 -81 -38 -118 -118 -118zM199 90h150c33 0 46 12 46 45v150c0 33 -13 45 -46 45h-150c-33 0 -46 -12 -46 -45v-150c0 -33 13 -45 46 -45z" />
    <glyph glyph-name="one.dnom" horiz-adv-x="512" 
d="M321 420v-335h158v-85h-447v85h181v241l-163 -13v89l219 18h52z" />
    <glyph glyph-name="two.dnom" horiz-adv-x="548" 
d="M495 88v-88h-449v135c0 61 28 89 92 96l226 22c24 3 31 10 31 33v21c0 23 -8 31 -31 31h-175c-23 0 -31 -8 -31 -31v-19h-104v40c0 64 29 92 92 92h264c63 0 92 -28 92 -92v-55c0 -63 -27 -89 -92 -96l-225 -22c-24 -3 -32 -12 -32 -33v-34h342z" />
    <glyph glyph-name="three.dnom" horiz-adv-x="544" 
d="M454 217c31 -10 47 -36 47 -79v-46c0 -64 -28 -92 -91 -92h-275c-63 0 -92 28 -92 92v55h104v-32c0 -24 7 -31 31 -31h185c24 0 31 7 31 31v32c0 23 -7 31 -31 31h-148v75h142c24 0 31 8 31 32v20c0 24 -7 31 -31 31h-173c-24 0 -31 -7 -31 -31v-27h-104v50
c0 64 29 92 92 92h263c63 0 91 -28 91 -92v-34c0 -41 -14 -67 -41 -77z" />
    <glyph glyph-name="four.dnom" horiz-adv-x="566" 
d="M431 166h102v-80h-102v-86h-103v86h-296v67l280 267h119v-254zM328 329l-173 -163h173v163z" />
    <glyph glyph-name="five.dnom" horiz-adv-x="529" 
d="M392 0h-344v88h296c24 0 32 8 32 31v29c0 24 -8 32 -32 32h-296v240h417v-88h-310v-69h237c63 0 91 -28 91 -92v-79c0 -64 -28 -92 -91 -92z" />
    <glyph glyph-name="six.dnom" horiz-adv-x="548" 
d="M214 263h196c63 0 92 -28 92 -91v-80c0 -64 -29 -92 -92 -92h-272c-63 0 -92 28 -92 92v210c0 81 38 118 118 118h320v-88h-285c-33 0 -46 -11 -46 -46v-43c11 13 32 20 61 20zM395 117v35c0 24 -8 32 -31 32h-179c-24 0 -32 -8 -32 -32v-35c0 -23 8 -31 32 -31h179
c23 0 31 8 31 31z" />
    <glyph glyph-name="seven.dnom" horiz-adv-x="524" 
d="M32 327v93h459v-80l-174 -161c-25 -23 -31 -42 -31 -82v-97h-110v96c0 35 4 62 11 81s21 38 42 57l106 93h-303z" />
    <glyph glyph-name="eight.dnom" horiz-adv-x="548" 
d="M456 217c31 -10 47 -36 47 -79v-46c0 -64 -28 -92 -91 -92h-275c-63 0 -92 28 -92 92v46c0 43 16 69 48 79c-28 10 -42 36 -42 77v34c0 64 29 92 92 92h263c63 0 91 -28 91 -92v-34c0 -41 -14 -67 -41 -77zM158 307v-25c0 -23 8 -31 31 -31h169c24 0 31 8 31 31v25
c0 23 -7 31 -31 31h-169c-23 0 -31 -8 -31 -31zM395 113v36c0 23 -7 31 -31 31h-181c-23 0 -31 -8 -31 -31v-36c0 -23 8 -31 31 -31h181c24 0 31 8 31 31z" />
    <glyph glyph-name="nine.dnom" horiz-adv-x="548" 
d="M138 420h272c63 0 92 -28 92 -92v-210c0 -81 -38 -118 -118 -118h-320v88h285c33 0 46 11 46 46v40c-11 -13 -32 -20 -61 -20h-196c-63 0 -92 28 -92 91v83c0 64 29 92 92 92zM185 233h179c23 0 31 8 31 32v38c0 23 -8 31 -31 31h-179c-24 0 -32 -8 -32 -31v-38
c0 -24 8 -32 32 -32z" />
    <glyph glyph-name="zero.numr" horiz-adv-x="548" 
d="M384 280h-220c-80 0 -118 37 -118 118v184c0 81 38 118 118 118h220c80 0 118 -37 118 -118v-184c0 -81 -38 -118 -118 -118zM199 370h150c33 0 46 12 46 45v150c0 33 -13 45 -46 45h-150c-33 0 -46 -12 -46 -45v-150c0 -33 13 -45 46 -45z" />
    <glyph glyph-name="one.numr" horiz-adv-x="512" 
d="M321 700v-335h158v-85h-447v85h181v241l-163 -13v89l219 18h52z" />
    <glyph glyph-name="two.numr" horiz-adv-x="548" 
d="M495 368v-88h-449v135c0 61 28 89 92 96l226 22c24 3 31 10 31 33v21c0 23 -8 31 -31 31h-175c-23 0 -31 -8 -31 -31v-19h-104v40c0 64 29 92 92 92h264c63 0 92 -28 92 -92v-55c0 -63 -27 -89 -92 -96l-225 -22c-24 -3 -32 -12 -32 -33v-34h342z" />
    <glyph glyph-name="three.numr" horiz-adv-x="544" 
d="M454 497c31 -10 47 -36 47 -79v-46c0 -64 -28 -92 -91 -92h-275c-63 0 -92 28 -92 92v55h104v-32c0 -24 7 -31 31 -31h185c24 0 31 7 31 31v32c0 23 -7 31 -31 31h-148v75h142c24 0 31 8 31 32v20c0 24 -7 31 -31 31h-173c-24 0 -31 -7 -31 -31v-27h-104v50
c0 64 29 92 92 92h263c63 0 91 -28 91 -92v-34c0 -41 -14 -67 -41 -77z" />
    <glyph glyph-name="four.numr" horiz-adv-x="566" 
d="M431 446h102v-80h-102v-86h-103v86h-296v67l280 267h119v-254zM328 609l-173 -163h173v163z" />
    <glyph glyph-name="five.numr" horiz-adv-x="529" 
d="M392 280h-344v88h296c24 0 32 8 32 31v29c0 24 -8 32 -32 32h-296v240h417v-88h-310v-69h237c63 0 91 -28 91 -92v-79c0 -64 -28 -92 -91 -92z" />
    <glyph glyph-name="six.numr" horiz-adv-x="548" 
d="M214 543h196c63 0 92 -28 92 -91v-80c0 -64 -29 -92 -92 -92h-272c-63 0 -92 28 -92 92v210c0 81 38 118 118 118h320v-88h-285c-33 0 -46 -11 -46 -46v-43c11 13 32 20 61 20zM395 397v35c0 24 -8 32 -31 32h-179c-24 0 -32 -8 -32 -32v-35c0 -23 8 -31 32 -31h179
c23 0 31 8 31 31z" />
    <glyph glyph-name="seven.numr" horiz-adv-x="524" 
d="M32 607v93h459v-80l-174 -161c-25 -23 -31 -42 -31 -82v-97h-110v96c0 35 4 62 11 81s21 38 42 57l106 93h-303z" />
    <glyph glyph-name="eight.numr" horiz-adv-x="548" 
d="M456 497c31 -10 47 -36 47 -79v-46c0 -64 -28 -92 -91 -92h-275c-63 0 -92 28 -92 92v46c0 43 16 69 48 79c-28 10 -42 36 -42 77v34c0 64 29 92 92 92h263c63 0 91 -28 91 -92v-34c0 -41 -14 -67 -41 -77zM158 587v-25c0 -23 8 -31 31 -31h169c24 0 31 8 31 31v25
c0 23 -7 31 -31 31h-169c-23 0 -31 -8 -31 -31zM395 393v36c0 23 -7 31 -31 31h-181c-23 0 -31 -8 -31 -31v-36c0 -23 8 -31 31 -31h181c24 0 31 8 31 31z" />
    <glyph glyph-name="nine.numr" horiz-adv-x="548" 
d="M138 700h272c63 0 92 -28 92 -92v-210c0 -81 -38 -118 -118 -118h-320v88h285c33 0 46 11 46 46v40c-11 -13 -32 -20 -61 -20h-196c-63 0 -92 28 -92 91v83c0 64 29 92 92 92zM185 513h179c23 0 31 8 31 32v38c0 23 -8 31 -31 31h-179c-24 0 -32 -8 -32 -31v-38
c0 -24 8 -32 32 -32z" />
    <glyph glyph-name="zero.sups" horiz-adv-x="548" 
d="M384 380h-220c-80 0 -118 37 -118 118v184c0 81 38 118 118 118h220c80 0 118 -37 118 -118v-184c0 -81 -38 -118 -118 -118zM199 470h150c33 0 46 12 46 45v150c0 33 -13 45 -46 45h-150c-33 0 -46 -12 -46 -45v-150c0 -33 13 -45 46 -45z" />
    <glyph glyph-name="one.sups" horiz-adv-x="512" 
d="M321 800v-335h158v-85h-447v85h181v241l-163 -13v89l219 18h52z" />
    <glyph glyph-name="two.sups" horiz-adv-x="548" 
d="M495 468v-88h-449v135c0 61 28 89 92 96l226 22c24 3 31 10 31 33v21c0 23 -8 31 -31 31h-175c-23 0 -31 -8 -31 -31v-19h-104v40c0 64 29 92 92 92h264c63 0 92 -28 92 -92v-55c0 -63 -27 -89 -92 -96l-225 -22c-24 -3 -32 -12 -32 -33v-34h342z" />
    <glyph glyph-name="three.sups" horiz-adv-x="544" 
d="M454 597c31 -10 47 -36 47 -79v-46c0 -64 -28 -92 -91 -92h-275c-63 0 -92 28 -92 92v55h104v-32c0 -24 7 -31 31 -31h185c24 0 31 7 31 31v32c0 23 -7 31 -31 31h-148v75h142c24 0 31 8 31 32v20c0 24 -7 31 -31 31h-173c-24 0 -31 -7 -31 -31v-27h-104v50
c0 64 29 92 92 92h263c63 0 91 -28 91 -92v-34c0 -41 -14 -67 -41 -77z" />
    <glyph glyph-name="four.sups" horiz-adv-x="566" 
d="M431 546h102v-80h-102v-86h-103v86h-296v67l280 267h119v-254zM328 709l-173 -163h173v163z" />
    <glyph glyph-name="five.sups" horiz-adv-x="529" 
d="M392 380h-344v88h296c24 0 32 8 32 31v29c0 24 -8 32 -32 32h-296v240h417v-88h-310v-69h237c63 0 91 -28 91 -92v-79c0 -64 -28 -92 -91 -92z" />
    <glyph glyph-name="six.sups" horiz-adv-x="548" 
d="M214 643h196c63 0 92 -28 92 -91v-80c0 -64 -29 -92 -92 -92h-272c-63 0 -92 28 -92 92v210c0 81 38 118 118 118h320v-88h-285c-33 0 -46 -11 -46 -46v-43c11 13 32 20 61 20zM395 497v35c0 24 -8 32 -31 32h-179c-24 0 -32 -8 -32 -32v-35c0 -23 8 -31 32 -31h179
c23 0 31 8 31 31z" />
    <glyph glyph-name="seven.sups" horiz-adv-x="524" 
d="M32 707v93h459v-80l-174 -161c-25 -23 -31 -42 -31 -82v-97h-110v96c0 35 4 62 11 81s21 38 42 57l106 93h-303z" />
    <glyph glyph-name="eight.sups" horiz-adv-x="548" 
d="M456 597c31 -10 47 -36 47 -79v-46c0 -64 -28 -92 -91 -92h-275c-63 0 -92 28 -92 92v46c0 43 16 69 48 79c-28 10 -42 36 -42 77v34c0 64 29 92 92 92h263c63 0 91 -28 91 -92v-34c0 -41 -14 -67 -41 -77zM158 687v-25c0 -23 8 -31 31 -31h169c24 0 31 8 31 31v25
c0 23 -7 31 -31 31h-169c-23 0 -31 -8 -31 -31zM395 493v36c0 23 -7 31 -31 31h-181c-23 0 -31 -8 -31 -31v-36c0 -23 8 -31 31 -31h181c24 0 31 8 31 31z" />
    <glyph glyph-name="nine.sups" horiz-adv-x="548" 
d="M138 800h272c63 0 92 -28 92 -92v-210c0 -81 -38 -118 -118 -118h-320v88h285c33 0 46 11 46 46v40c-11 -13 -32 -20 -61 -20h-196c-63 0 -92 28 -92 91v83c0 64 29 92 92 92zM185 613h179c23 0 31 8 31 32v38c0 23 -8 31 -31 31h-179c-24 0 -32 -8 -32 -31v-38
c0 -24 8 -32 32 -32z" />
    <glyph glyph-name="numbersign.numr" horiz-adv-x="550" 
d="M510 601v-65h-95l-14 -92h84v-65h-94l-16 -99h-79l16 99h-109l-16 -99h-79l16 99h-85v65h95l14 92h-84v65h94l16 99h79l-16 -99h109l16 99h79l-16 -99h85zM213 444h109l14 92h-109z" />
    <glyph glyph-name="numbersign.tf" 
d="M812 517v-80h-159l-28 -174h145v-80h-157l-29 -183h-99l29 183h-216l-29 -183h-99l29 183h-147v80h159l28 174h-145v80h157l29 183h99l-29 -183h216l29 183h99l-29 -183h147zM310 263h216l28 174h-216z" />
    <glyph glyph-name="cent.numr" horiz-adv-x="548" 
d="M502 594v-36h-103v20c0 29 -9 38 -38 38h-169c-29 0 -39 -9 -39 -38v-102c0 -29 10 -38 39 -38h169c29 0 38 9 38 38v24h103v-40c0 -75 -31 -106 -106 -106h-86v-60h-70v60h-88c-75 0 -106 31 -106 106v134c0 75 31 106 106 106h88v60h70v-60h86c75 0 106 -31 106 -106z
" />
    <glyph glyph-name="dollar.numr" horiz-adv-x="548" 
d="M187 545l225 -16c65 -5 92 -30 92 -91v-66c0 -64 -29 -92 -92 -92h-103v-60h-70v60h-104c-63 0 -92 28 -92 92v39h104v-18c0 -24 7 -32 31 -32h188c23 0 31 8 31 32v21c0 23 -7 27 -31 30l-225 17c-65 5 -92 28 -92 91v56c0 64 29 92 92 92h98v60h70v-60h95
c63 0 91 -28 91 -92v-33h-102v12c0 24 -8 32 -32 32h-173c-24 0 -32 -8 -32 -32v-12c0 -23 8 -27 31 -30z" />
    <glyph glyph-name="Euro.numr" horiz-adv-x="566" 
d="M520 582v-51h-104v41c0 35 -12 46 -45 46h-148c-33 0 -46 -11 -46 -46v-18h181v-44h-181v-40h181v-44h-181v-18c0 -35 13 -46 46 -46h148c33 0 45 11 45 46v45h104v-55c0 -81 -38 -118 -118 -118h-214c-80 0 -118 37 -118 118v28h-54v44h54v40h-54v44h54v28
c0 81 38 118 118 118h214c80 0 118 -37 118 -118z" />
    <glyph glyph-name="florin.numr" horiz-adv-x="500" 
d="M460 610h-95c-35 0 -46 -12 -49 -45l-8 -78h140v-66h-147l-12 -119c-8 -83 -42 -118 -121 -118h-131v90h96c33 0 44 11 48 46l11 101h-143v66h150l10 95c9 83 41 118 120 118h131v-90z" />
    <glyph glyph-name="sterling.numr" horiz-adv-x="560" 
d="M514 582v-41h-103v31c0 35 -13 46 -46 46h-144c-32 0 -44 -13 -44 -46v-48h176v-58h-176v-100h203c23 0 30 8 30 31v40h104v-65c0 -64 -29 -92 -92 -92h-400v86h48v100h-54v58h54v58c0 81 38 118 118 118h208c80 0 118 -37 118 -118z" />
    <glyph glyph-name="yen.numr" horiz-adv-x="548" 
d="M502 425h-175v-43h176v-49h-176v-53h-107v53h-176v49h176v43h-176v49h148l-166 226h131l120 -178l119 178h125l-166 -226h147v-49z" />
    <glyph glyph-name="cent.tf" 
d="M798 534v-55h-124v36c0 65 -20 85 -85 85h-310c-65 0 -85 -20 -85 -85v-200c0 -65 20 -85 85 -85h310c65 0 85 20 85 85v43h124v-62c0 -119 -49 -166 -166 -166h-154v-100h-88v100h-158c-117 0 -166 47 -166 166v238c0 119 49 166 166 166h158v100h88v-100h154
c117 0 166 -47 166 -166z" />
    <glyph glyph-name="dollar.tf" 
d="M267 428l393 -31c99 -8 142 -46 142 -142v-113c0 -97 -46 -142 -142 -142h-185v-100h-87v100h-184c-96 0 -142 45 -142 142v63h123v-37c0 -51 17 -68 68 -68h354c51 0 68 17 68 68v59c0 49 -16 64 -68 68l-393 31c-99 8 -142 46 -142 142v90c0 97 46 142 142 142h174v100
h87v-100h171c96 0 142 -45 142 -142v-49h-123v23c0 51 -17 68 -68 68h-330c-51 0 -68 -17 -68 -68v-36c0 -49 17 -64 68 -68z" />
    <glyph glyph-name="Euro.tf" 
d="M798 514v-74h-124v62c0 73 -27 100 -100 100h-260c-73 0 -100 -27 -100 -100v-50h340v-59h-340v-86h340v-59h-340v-50c0 -73 27 -100 100 -100h260c73 0 100 27 100 100v71h124v-83c0 -128 -58 -186 -186 -186h-340c-128 0 -186 58 -186 186v62h-80v59h80v86h-80v59h80
v62c0 128 58 186 186 186h340c128 0 186 -58 186 -186z" />
    <glyph glyph-name="florin.tf" 
d="M796 594h-169c-72 0 -97 -25 -106 -100l-17 -161h272v-86h-281l-24 -221c-15 -131 -67 -186 -192 -186h-211v106h169c72 0 97 25 106 100l21 201h-276v86h286l19 181c15 131 67 186 192 186h211v-106z" />
    <glyph glyph-name="sterling.tf" 
d="M798 514v-60h-124v48c0 73 -27 100 -100 100h-254c-69 0 -96 -27 -96 -100v-109h330v-74h-330v-217h382c51 0 68 17 68 68v68h124v-96c0 -99 -45 -142 -142 -142h-640v102h80v217h-90v74h90v121c0 128 58 186 186 186h330c128 0 186 -58 186 -186z" />
    <glyph glyph-name="yen.tf" 
d="M685 700h151l-302 -389h272v-64h-310v-90h310v-64h-310v-93h-128v93h-310v64h310v90h-310v64h272l-302 389h158l249 -340z" />
    <glyph glyph-name="percent.numr" horiz-adv-x="613" 
d="M215 504h-116c-42 0 -63 21 -63 63v70c0 42 21 63 63 63h116c42 0 63 -21 63 -63v-70c0 -42 -21 -63 -63 -63zM147 280h-62l379 420h64zM118 556h80c13 0 20 7 20 21v49c0 16 -4 21 -20 21h-80c-16 0 -21 -4 -21 -21v-49c0 -14 7 -21 21 -21zM514 280h-117
c-42 0 -63 21 -63 63v70c0 42 21 63 63 63h117c41 0 62 -21 62 -63v-70c0 -42 -21 -63 -62 -63zM416 333h80c15 0 20 5 20 21v49c0 16 -5 21 -20 21h-80c-16 0 -21 -5 -21 -21v-49c0 -16 5 -21 21 -21z" />
    <glyph glyph-name="perthousand.numr" horiz-adv-x="885" 
d="M215 504h-116c-42 0 -63 21 -63 63v70c0 42 21 63 63 63h116c42 0 63 -21 63 -63v-70c0 -42 -21 -63 -63 -63zM147 280h-62l379 420h64zM118 556h80c13 0 20 7 20 21v49c0 16 -4 21 -20 21h-80c-16 0 -21 -4 -21 -21v-49c0 -14 7 -21 21 -21zM514 280h-117
c-42 0 -63 21 -63 63v70c0 42 21 63 63 63h117c41 0 62 -21 62 -63v-70c0 -42 -21 -63 -62 -63zM786 280h-117c-42 0 -63 21 -63 63v70c0 42 21 63 63 63h117c41 0 62 -21 62 -63v-70c0 -42 -21 -63 -62 -63zM416 333h80c15 0 20 5 20 21v49c0 16 -5 21 -20 21h-80
c-16 0 -21 -5 -21 -21v-49c0 -16 5 -21 21 -21zM688 333h80c15 0 20 5 20 21v49c0 16 -5 21 -20 21h-80c-16 0 -21 -5 -21 -21v-49c0 -16 5 -21 21 -21z" />
    <glyph glyph-name="percent.tf" horiz-adv-x="972" 
d="M328 376h-182c-69 0 -104 35 -104 104v116c0 72 33 104 104 104h182c71 0 104 -32 104 -104v-116c0 -69 -35 -104 -104 -104zM208 0h-84l640 700h84zM169 442h136c37 0 51 15 51 52v88c0 37 -14 52 -51 52h-136c-37 0 -51 -15 -51 -52v-88c0 -37 14 -52 51 -52zM826 0
h-182c-69 0 -104 35 -104 104v116c0 72 33 104 104 104h182c71 0 104 -32 104 -104v-116c0 -69 -35 -104 -104 -104zM667 66h136c37 0 51 15 51 52v88c0 37 -14 52 -51 52h-136c-37 0 -51 -15 -51 -52v-88c0 -37 14 -52 51 -52z" />
    <glyph glyph-name="perthousand.tf" horiz-adv-x="1414" 
d="M328 376h-182c-69 0 -104 35 -104 104v116c0 72 33 104 104 104h182c71 0 104 -32 104 -104v-116c0 -69 -35 -104 -104 -104zM209 0h-85l639 700h85zM169 442h136c37 0 51 15 51 52v88c0 37 -14 52 -51 52h-136c-37 0 -51 -15 -51 -52v-88c0 -37 14 -52 51 -52zM826 0
h-182c-69 0 -104 35 -104 104v116c0 72 33 104 104 104h182c71 0 104 -32 104 -104v-116c0 -69 -35 -104 -104 -104zM1268 0h-182c-69 0 -104 35 -104 104v116c0 72 33 104 104 104h182c71 0 104 -32 104 -104v-116c0 -69 -35 -104 -104 -104zM667 66h136c37 0 51 15 51 52
v88c0 37 -14 52 -51 52h-136c-37 0 -51 -15 -51 -52v-88c0 -37 14 -52 51 -52zM1109 66h136c37 0 51 15 51 52v88c0 37 -14 52 -51 52h-136c-37 0 -51 -15 -51 -52v-88c0 -37 14 -52 51 -52z" />
    <glyph glyph-name="brevecombcy" horiz-adv-x="0" 
d="M-137 576h-256c-49 0 -73 24 -73 73v51h90v-36c0 -20 10 -30 30 -30h162c20 0 30 10 30 30v36h90v-51c0 -49 -24 -73 -73 -73z" />
    <glyph glyph-name="ringacutecomb" horiz-adv-x="418" 
d="M293 628h19c37 0 54 -17 54 -54v-26c0 -37 -17 -54 -54 -54h-206c-37 0 -54 17 -54 54v26c0 37 17 54 54 54h69l60 72h136zM311 554v14c0 16 -4 21 -20 21h-164c-16 0 -20 -5 -20 -21v-14c0 -16 4 -21 20 -21h164c16 0 20 5 20 21z" />
    </font>
</defs>
</svg>
